0 m01-stand
0 Name: m01-stand.ldr
0 Author: FLL Sim

0 STEP
0 STEP
0 STEP
0 STEP
0 STEP
0 STEP
0 STEP
0 STEP
0 STEP
0 STEP
0 STEP
0 STEP
0 STEP
0 STEP
0 STEP
0 STEP
0 // 4x6 hollow technic brick
1 71 399.7017 -39.4134 127.6508 0.9781 -0.1418 0.1521 0 -0.7314 -0.682 0.2079 0.6671 -0.7154 32531a.dat
0 // 2x6 plate with rounded corners
1 10 403.8772 -47.2025 108.0066 -0.9781 -0.1418 -0.1521 0 -0.7314 0.682 -0.2079 0.6671 0.7154 18980.dat
0 // dark orange 2x2 tile
1 484 397.7949 -19.9226 136.6215 -0.1521 -0.1418 0.9781 0.682 -0.7314 0 0.7154 0.6671 0.2079 3068b.dat
0 // green 1x2 rounded plate
1 2 360.1896 -26.7425 121.1513 -0.9781 -0.1418 -0.1521 0 -0.7314 0.682 -0.2079 0.6671 0.7154 35480.dat
0 // green 1x2 rounded plate
1 2 438.4414 -26.7425 137.7842 -0.9781 -0.1418 -0.1521 0 -0.7314 0.682 -0.2079 0.6671 0.7154 35480.dat
0 // green 1x2 rounded plate
1 2 353.063 -27.7117 106.5817 -0.1521 -0.1418 0.9781 0.682 -0.7314 0 0.7154 0.6671 0.2079 35480.dat
0 // bright green 1x3 rounded plate
1 10 374.1465 -34.5317 103.5862 -0.1521 -0.1418 0.9781 0.682 -0.7314 0 0.7154 0.6671 0.2079 77850.dat
0 // green 1x2 rounded plate
1 2 414.793 -41.3517 104.749 -0.1521 -0.1418 0.9781 0.682 -0.7314 0 0.7154 0.6671 0.2079 35480.dat
0 // bright green 2x2 round plate
1 10 441.0963 -27.7117 125.2938 -0.1521 -0.1418 0.9781 0.682 -0.7314 0 0.7154 0.6671 0.2079 4032a.dat
0 // black pin
1 0 336.5537 -33.0869 136.1545 0.9781 0.1521 0.1418 0 -0.682 0.7314 0.2079 -0.7154 -0.6671 61332.dat
0 // black pin
1 0 453.9314 -33.0869 161.1039 0.9781 0.1521 0.1418 0 -0.682 0.7314 0.2079 -0.7154 -0.6671 61332.dat
0 // blue axle/pin
1 1 342.636 -60.3669 107.5396 -0.9781 0.1521 -0.1418 0 -0.682 -0.7314 -0.2079 -0.7154 0.6671 43093.dat
0 // blue axle/pin
1 1 460.0137 -60.3669 132.489 0.9781 0.1521 0.1418 0 -0.682 0.7314 0.2079 -0.7154 -0.6671 43093.dat
0 // 4x4 bent liftarm
1 71 332.8545 -60.3669 105.4605 -0.1418 0.9781 -0.1521 -0.7314 0 0.682 0.6671 0.2079 0.7154 32348.dat
0 // 4x4 bent liftarm
1 71 469.7952 -60.3669 134.5682 -0.1418 0.9781 -0.1521 -0.7314 0 0.682 0.6671 0.2079 0.7154 32348.dat
0 // tan axle/pin (pivot)
1 19 301.6694 -30 204.0777 0.9781 -0.0366 -0.2047 0 0.9844 -0.1759 0.2079 0.172 0.9629 3749.dat
0 // tan axle/pin (pivot)
1 19 458.173 -30 237.3435 -0.9781 -0.0366 0.2047 0 0.9844 0.1759 -0.2079 0.172 -0.9629 3749.dat
0 // yellow pin
1 14 325.3258 -26.4823 188.9779 0.9781 -0.0366 -0.2047 0 0.9844 -0.1759 0.2079 0.172 0.9629 3673.dat
0 // yellow pin
1 14 442.7035 -26.4823 213.9273 -0.9781 -0.0366 0.2047 0 0.9844 0.1759 -0.2079 0.172 -0.9629 3673.dat
0 // 2L pin joiner
1 71 344.8887 -26.4823 193.1361 0.9781 -0.0366 -0.2047 0 0.9844 -0.1759 0.2079 0.172 0.9629 62462.dat
0 // 2L pin joiner
1 71 423.1405 -26.4823 209.7691 -0.9781 -0.0366 0.2047 0 0.9844 0.1759 -0.2079 0.172 -0.9629 62462.dat
0 // 5x5 L-shaped technic brick
1 72 333.0929 -40 200.5335 0.9781 0 -0.2079 0 1 0 0.2079 0 0.9781 32555.dat
0 // 1x2 plate
1 71 354.1209 -16 245.8968 0.9781 0 -0.2079 0 1 0 0.2079 0 0.9781 3023b.dat
0 // 2x2 plate with side studs (back)
1 72 310.8368 -24 257.1433 -0.9781 0 0.2079 0 1 0 -0.2079 0 -0.9781 4304.dat
0 // 2x2 plate with side studs (side)
1 72 272.325 -24 197.8403 0.2079 0 0.9781 0 1 0 -0.9781 0 0.2079 4304.dat
0 // 1x2 plate
1 71 310.8368 -32 257.1433 0.9781 0 -0.2079 0 1 0 0.2079 0 0.9781 3023b.dat
0 // 1x2 plate
1 71 272.325 -32 197.8403 -0.2079 0 -0.9781 0 1 0 0.9781 0 -0.2079 3023b.dat
0 // curved slope (back)
1 72 312.9159 -32 247.3618 -0.9781 0 0.2079 0 1 0 -0.2079 0 -0.9781 15068.dat
0 // curved slope (side)
1 72 282.1064 -32 199.9194 0.2079 0 0.9781 0 1 0 -0.9781 0 0.2079 15068.dat
0 // 5x5 L-shaped technic brick
1 72 430.9077 -40 221.3247 0.2079 0 0.9781 0 1 0 -0.9781 0 0.2079 32555.dat
0 // 1x2 plate
1 71 393.2468 -16 254.2133 0.9781 0 -0.2079 0 1 0 0.2079 0 0.9781 3023b.dat
0 // 2x2 plate with side studs (back)
1 72 428.2145 -24 282.0927 -0.9781 0 0.2079 0 1 0 -0.2079 0 -0.9781 4304.dat
0 // 2x2 plate with side studs (side)
1 72 487.5174 -24 243.5809 -0.2079 0 -0.9781 0 1 0 0.9781 0 -0.2079 4304.dat
0 // 1x2 plate
1 71 428.2145 -32 282.0927 0.9781 0 -0.2079 0 1 0 0.2079 0 0.9781 3023b.dat
0 // 1x2 plate
1 71 487.5174 -32 243.5809 0.2079 0 0.9781 0 1 0 -0.9781 0 0.2079 3023b.dat
0 // curved slope (back)
1 72 430.2936 -32 272.3112 -0.9781 0 0.2079 0 1 0 -0.2079 0 -0.9781 15068.dat
0 // curved slope (side)
1 72 477.736 -32 241.5018 -0.2079 0 -0.9781 0 1 0 0.9781 0 -0.2079 15068.dat
0 // 1x4 plate (joins the halves)
1 71 373.6838 -8 250.055 0.9781 0 -0.2079 0 1 0 0.2079 0 0.9781 3710.dat
0 // 1x4 tile
1 72 373.6838 -48 250.055 0.9781 0 -0.2079 0 1 0 0.2079 0 0.9781 2431.dat
0 // 1x2 plate with vertical bar
1 0 254.7183 -18 194.0979 -0.2079 0.9781 0 0 0 1 0.9781 0.2079 0 88072.dat
0 // white 2x2 dish
1 15 246.8931 -38 192.4346 -0.2079 -0.9781 0 0 0 -1 0.9781 -0.2079 0 4740.dat
0 // gold 1x1 round plate
1 297 240.0461 -38 190.9792 -0.2079 -0.9781 0 0 0 -1 0.9781 -0.2079 0 85861.dat
0 // gold telescope
1 297 233.1991 -38 189.5238 -0.2079 -0.9781 0 0 0 -1 0.9781 -0.2079 0 64644.dat
