0 m01
0 Name: m01.ldr
0 Author: FLL Sim

0 // base 4x6 plate
1 4 -667.9361 -16 -219.945 1 0 0 0 1 0 0 0 1 3032.dat
0 // slope back
1 4 -697.9361 -40 -199.945 0 0 1 0 1 0 -1 0 0 3039.dat
0 STEP
0 // slope front
1 4 -697.9361 -40 -239.945 0 0 1 0 1 0 -1 0 0 3039.dat
0 STEP
0 // 2x2 brick
1 4 -667.9361 -40 -219.945 -1 0 0 0 1 0 0 0 -1 3003.dat
0 STEP
0 // front hole brick
1 4 -667.9361 -40 -249.945 -1 0 0 0 1 0 0 0 -1 3700.dat
0 // back hole brick
1 4 -667.9361 -40 -189.945 1 0 0 0 1 0 0 0 1 3700.dat
0 // base front pin
1 14 -667.9361 -30 -259.945 0 -1 0 0 0 1 -1 0 0 3673.dat
0 // base back pin
1 14 -667.9361 -30 -179.945 0 1 0 0 0 1 1 0 0 3673.dat
0 STEP
0 // 2x4 brick
1 4 -627.9361 -40 -219.945 0 0 1 0 1 0 -1 0 0 3001.dat
0 STEP
0 // rounded-bottom foot
1 4 -647.9361 -8 -239.945 1 0 0 0 1 0 0 0 1 2654a.dat
0 // rounded-bottom foot
1 4 -687.9361 -8 -239.945 1 0 0 0 1 0 0 0 1 2654a.dat
0 // rounded-bottom foot
1 4 -647.9361 -8 -199.945 1 0 0 0 1 0 0 0 1 2654a.dat
0 // rounded-bottom foot
1 4 -687.9361 -8 -199.945 1 0 0 0 1 0 0 0 1 2654a.dat
0 STEP
0 // 1x4 brick
1 4 -617.9361 -64 -219.945 0 0 -1 0 1 0 1 0 0 3010.dat
0 // upper 2x4 brick
1 4 -647.9361 -64 -219.945 0 0 -1 0 1 0 1 0 0 3001.dat
0 STEP
0 // 2x4 tile
1 4 -627.9361 -72 -219.945 0 0 -1 0 1 0 1 0 0 87079.dat
0 STEP
0 STEP
0 // 32L axle
1 0 -339.1261 -58 -169.945 0.9964 -0.0848 0 -0.0848 -0.9964 0 0 0 -1 50450.dat
0 // left connector
1 0 -667.9361 -30 -169.945 0 0.0848 -0.9964 0 0.9964 0.0848 1 0 0 32013.dat
0 // right connector
1 0 -10.3162 -86 -169.945 0 -0.0848 0.9964 0 -0.9964 -0.0848 1 0 0 32013.dat
0 STEP
0 // drone 2x4 plate
1 33 -10.3162 -56 -219.945 1 0 0 0 1 0 0 0 1 3020.dat
0 // inverted curved slope back
1 0 -10.3162 -72 -209.945 -1 0 0 0 1 0 0 0 -1 1750.dat
0 // inverted curved slope front
1 0 -10.3162 -72 -229.945 1 0 0 0 1 0 0 0 1 1750.dat
0 // drone 2x2 brick
1 4 -10.3162 -88 -219.945 -1 0 0 0 1 0 0 0 -1 3003.dat
0 // socket brick
1 72 -40.3162 -88 -219.945 0 0 1 0 1 0 -1 0 0 80431.dat
0 // socket brick
1 72 19.6838 -88 -219.945 0 0 -1 0 1 0 1 0 0 80431.dat
0 // 1L pin with stud
1 4 -29.3162 -70 -219.945 1 0 0 0 0 -1 0 1 0 89678.dat
0 // 1L pin with stud
1 4 8.6838 -70 -219.945 -1 0 0 0 0 -1 0 -1 0 89678.dat
0 // trans-black 1x1 round tile
1 10375 -33.3162 -70 -219.945 0 1 0 -1 0 0 0 0 1 98138.dat
0 // trans-black 1x1 round tile
1 10375 12.6838 -70 -219.945 0 -1 0 -1 0 0 0 0 -1 98138.dat
0 // white 2x6 plate
1 15 -10.3162 -96 -219.945 -1 0 0 0 1 0 0 0 -1 3795.dat
0 // white hole brick
1 15 -10.3162 -96 -249.945 -1 0 0 0 1 0 0 0 -1 3700.dat
0 // white hole brick
1 15 -10.3162 -96 -189.945 1 0 0 0 1 0 0 0 1 3700.dat
0 // tan 3L pin
1 19 -10.3162 -86 -269.945 0 -1 0 0 0 1 -1 0 0 39888.dat
0 // tan 3L pin
1 19 -10.3162 -86 -169.945 0 1 0 0 0 1 1 0 0 39888.dat
0 // white 3x3 corner plate
1 15 -60.3162 -104 -269.945 1 0 0 0 1 0 0 0 1 68568.dat
0 // white 3x3 corner plate
1 15 39.6838 -104 -269.945 0 0 -1 0 1 0 1 0 0 68568.dat
0 // white 3x3 corner plate
1 15 -60.3162 -104 -169.945 0 0 1 0 1 0 -1 0 0 68568.dat
0 // white 3x3 corner plate
1 15 39.6838 -104 -169.945 -1 0 0 0 1 0 0 0 -1 68568.dat
0 // rotor (2x2 round tile)
1 0 -50.3162 -112 -219.945 1 0 0 0 1 0 0 0 1 15535.dat
0 // rotor (2x2 round tile)
1 0 29.6838 -112 -219.945 1 0 0 0 1 0 0 0 1 15535.dat
0 // rotor (2x2 round tile)
1 0 -10.3162 -112 -259.945 0 0 1 0 1 0 -1 0 0 15535.dat
0 // rotor (2x2 round tile)
1 0 -10.3162 -112 -179.945 0 0 1 0 1 0 -1 0 0 15535.dat
0 // trans-light-blue 2x2 brick
1 43 -10.3162 -48 -219.945 0 0 1 0 1 0 -1 0 0 6223.dat
0 // trans-light-blue 2x2 brick
1 43 -10.3162 -24 -219.945 0 0 1 0 1 0 -1 0 0 6223.dat
0 STEP
0 // 32L axle
1 0 -339.1261 -58 -269.945 0.9964 -0.0848 0 -0.0848 -0.9964 0 0 0 -1 50450.dat
0 // left connector
1 0 -667.9361 -30 -269.945 0 0.0848 -0.9964 0 0.9964 0.0848 1 0 0 32013.dat
0 // right connector
1 0 -10.3162 -86 -269.945 0 -0.0848 0.9964 0 -0.9964 -0.0848 1 0 0 32013.dat
0 STEP
0 // 32L axle
1 0 318.81 -62.0002 -149.945 0.9974 0.0727 0 0.0727 -0.9974 0 0 0 -1 50450.dat
0 // left connector
1 0 -10.3162 -86 -149.945 0 -0.0727 -0.9974 0 0.9974 -0.0727 1 0 0 32013.dat
0 // right connector
1 0 647.9361 -38.0003 -149.945 0 0.0727 0.9974 0 -0.9974 0.0727 1 0 0 32013.dat
0 STEP
0 // 6x6 round plate
1 71 647.9361 -24.0003 -219.945 1 0 0 0 1 0 0 0 1 11213.dat
0 // lime 2x4 plate
1 27 647.9361 -32.0003 -219.945 0 0 1 0 1 0 -1 0 0 3020.dat
0 // 2x2 round plate
1 71 687.9361 -32.0003 -219.945 0 0 1 0 1 0 -1 0 0 4032a.dat
0 // 2x2 round plate with centre stud
1 72 687.9361 -40.0003 -219.945 0 0 -1 0 1 0 1 0 0 18674.dat
0 // 1x2 plate
1 71 647.9361 -40.0003 -249.945 -1 0 0 0 1 0 0 0 -1 3023b.dat
0 // 1x2 plate
1 71 647.9361 -40.0003 -189.945 -1 0 0 0 1 0 0 0 -1 3023b.dat
0 // chair hole brick
1 71 647.9361 -48.0003 -269.945 -1 0 0 0 1 0 0 0 -1 3700.dat
0 // chair hole brick
1 71 647.9361 -48.0003 -169.945 1 0 0 0 1 0 0 0 1 3700.dat
0 // chair pin
1 14 647.9361 -38.0003 -279.945 0 -1 0 0 0 1 -1 0 0 3673.dat
0 // chair pin
1 14 647.9361 -38.0003 -159.945 0 1 0 0 0 1 1 0 0 3673.dat
0 // curved slope
1 72 647.9361 -40.0003 -259.945 -1 0 0 0 1 0 0 0 -1 15068.dat
0 // curved slope
1 72 647.9361 -40.0003 -179.945 1 0 0 0 1 0 0 0 1 15068.dat
0 // L-shaped bar
1 0 687.9361 -125.5003 -219.945 -1 0 0 0 -1 0 0 0 1 87618.dat
0 // minifig seat
1 27 647.9361 -40.0003 -219.945 0 0 1 0 1 0 -1 0 0 4079.dat
0 // telescope
1 297 687.9361 -125.5003 -248.945 -1 0 0 0 0 -1 0 -1 0 64644.dat
0 // gold 1x1 round plate
1 297 687.9361 -125.5003 -241.945 -1 0 0 0 0 -1 0 -1 0 85861.dat
0 // 3x3 dish
1 47 687.9361 -125.5003 -233.945 -1 0 0 0 0 -1 0 -1 0 43898.dat
0 // turntable 4x4 base
1 0 647.9361 -16.0003 -219.945 1 0 0 0 1 0 0 0 1 61485.dat
0 // 8x8 round plate
1 71 647.9361 -8.0003 -219.945 0 0 -1 0 1 0 1 0 0 74611.dat
0 // minifig hips
1 3 635.9361 -61.0003 -219.945 0 0 1 0 1 0 -1 0 0 3815.dat
0 // minifig leg
1 3 635.9361 -49.0003 -219.945 0 -1 0 0 0 1 -1 0 0 3816.dat
0 // minifig leg
1 3 635.9361 -49.0003 -219.945 0 -1 0 0 0 1 -1 0 0 3817.dat
0 // minifig torso (brown vest over striped tank top)
1 70 635.9361 -93.0003 -219.945 0 0 1 0 1 0 -1 0 0 973.dat
0 // minifig arm
1 14 635.9361 -83.6602 -206.3638 0 -1 0 -0.1701 0 -0.9854 0.9854 0 -0.1701 3818.dat
0 // minifig arm
1 14 635.9361 -83.6602 -233.5261 0 -1 0 0.1701 0 -0.9854 0.9854 0 0.1701 3819.dat
0 // minifig hand
1 14 617.0522 -73.0699 -209.61 0 -0.7071 0.7071 -0.1701 -0.6968 -0.6968 0.9854 -0.1203 -0.1203 3820.dat
0 // minifig hand
1 14 617.0522 -73.0699 -230.28 0 -0.7071 0.7071 0.1701 -0.6968 -0.6968 0.9854 0.1203 0.1203 3820.dat
0 // minifig head (big smile)
1 14 635.9361 -117.0003 -219.945 0 0 1 0 1 0 -1 0 0 3626c.dat
0 // white helmet
1 15 635.9361 -117.0003 -219.945 0 0 1 0 1 0 -1 0 0 2446.dat
0 // black visor (no snap data: placed at the helmet pivot)
1 0 635.9361 -117.0003 -219.945 0 0 1 0 1 0 -1 0 0 2447.dat
0 // video game controller
1 0 615.2359 -77.1344 -219.945 0 0 1 0 1 0 -1 0 0 53118.dat
0 STEP
0 // 32L axle
1 0 318.81 -62.0002 -289.945 0.9974 0.0727 0 0.0727 -0.9974 0 0 0 -1 50450.dat
0 // left connector
1 0 -10.3162 -86 -289.945 0 -0.0727 -0.9974 0 0.9974 -0.0727 1 0 0 32013.dat
0 // right connector
1 0 647.9361 -38.0003 -289.945 0 0.0727 0.9974 0 -0.9974 0.0727 1 0 0 32013.dat
0 STEP
0 STEP
0 // red 1x1 round tile (unsnapped)
1 4 393.7095 -34.5317 107.7445 0.9781 -0.1418 0.1521 0 -0.7314 -0.682 0.2079 0.6671 -0.7154 98138.dat
