0 m02
0 Name: m02.ldr
0 Author: FLL Sim

0 // 5x7 frame
1 71 0 -10 0 1 0 0 0 1 0 0 0 1 64179.dat
0 // pin into frame
1 0 30 -10 0 -1 0 0 0 1 0 0 0 -1 61332.dat
0 STEP
0 // pin out front
1 0 50 -10 -40 -1 0 0 0 1 0 0 0 -1 61332.dat
0 // 3L pin through frame
1 1 40 -10 40 -1 0 0 0 1 0 0 0 -1 42924.dat
0 STEP
0 // outer 5L beam right
1 72 60 -10 0 0 1 0 -1 0 0 0 0 1 32316.dat
0 STEP
1 0 -50 -10 -40 -1 0 0 0 1 0 0 0 -1 61332.dat
1 0 -50 -10 40 -1 0 0 0 1 0 0 0 -1 61332.dat
0 // outer 5L beam left
1 72 -60 -10 0 0 -1 0 1 0 0 0 0 1 32316.dat
0 STEP
0 // upright
1 71 20 -50 20 0 1 0 0 0 1 1 0 0 60484.dat
0 // upright
1 0 10 -10 20 -1 0 0 0 1 0 0 0 -1 61332.dat
0 // upright
1 0 10 -50 20 -1 0 0 0 0 1 0 1 0 61332.dat
0 // 11L upright
1 27 0 -110 20 0 1 0 0 0 1 1 0 0 32525.dat
0 STEP
0 // 7x3 bent liftarm
1 27 -20 -150 20 0 -1 0 0 0 -1 1 0 0 32271.dat
1 0 -10 -170 20 1 0 0 0 0 -1 0 1 0 61332.dat
1 0 -10 -210 20 1 0 0 0 0 -1 0 1 0 61332.dat
1 0 -10 -270 20 1 0 0 0 0 -1 0 1 0 61332.dat
1 0 -10 -282 36 1 0 0 0 0.8 -0.6 0 0.6 0.8 61332.dat
0 STEP
0 // back 7L (stem carrier)
1 27 0 -258 4 0 1 0 -0.8 0 -0.6 -0.6 0 0.8 32524.dat
0 STEP
0 STEP
0 STEP
0 STEP
0 STEP
0 STEP
0 STEP
0 STEP
0 STEP
0 // #5 angle connector
1 27 20 -258 4 -1 0 0 0 0.8 0.6 0 0.6 -0.8 32015.dat
0 // red 2L axle
1 4 20 -276 28 0 -1 0 -0.6 0 -0.8 0.8 0 -0.6 32062.dat
0 // #3 connector 1
1 14 20 -294 52 1 0 0 0 0.8 -0.6 0 0.6 0.8 32016.dat
0 // blue pin (#5)
1 1 20 -258 4 1 0 0 0 0.8 -0.6 0 0.6 0.8 42924.dat
0 // blue pin (#3)
1 1 20 -294 52 1 0 0 0 0.8 -0.6 0 0.6 0.8 42924.dat
0 // red 2L axle 2
1 4 20 -319.8142 67.2849 0 -1 0 -0.8605 0 -0.5095 0.5095 0 -0.8605 32062.dat
0 // #3 connector 2
1 14 20 -345.6284 82.5698 1 0 0 0 -0.8 0.6 0 -0.6 -0.8 32016.dat
0 // red pin with stud
1 4 30 -345.6284 82.5698 1 0 0 0 -0.6 -0.8 0 0.8 -0.6 89678.dat
0 // grey 3L axle
1 71 20 -369.6283 114.5699 0 1 0 -0.6 0 0.8 0.8 0 0.6 4519.dat
0 // leaf plate (flower)
1 27 2 -345.6284 82.5698 0 1 0 -0.6 0 0.8 0.8 0 0.6 32607.dat
0 // pink round plate
1 5 -6 -345.6284 82.5698 0 1 0 -0.6 0 0.8 0.8 0 0.6 85861.dat
0 // green 3L bar (flower)
1 10 -6 -345.6284 82.5698 0 1 0 -0.6 0 0.8 0.8 0 0.6 87994.dat
0 // leaf plate (front)
1 27 38 -345.6284 82.5698 0 -1 0 -0.8 0 0.6 -0.6 0 -0.8 32607.dat
0 // hose connector front
1 14 40 -369.6283 114.5699 0 0 1 -0.6 -0.8 0 0.8 -0.6 0 42135.dat
0 // hose connector back
1 14 0 -381.6282 130.5699 0 0 -1 -0.6 0.8 0 0.8 0.6 0 42135.dat
0 STEP
0 // 6L bar (seed hook)
1 10 20 -280.1288 -33.442 1 0 0 0 0.5088 -0.8609 0 0.8609 0.5088 63965a.dat
0 STEP
0 // front 7L
1 27 40 -258 4 0 1 0 -0.8 0 -0.6 -0.6 0 0.8 32524.dat
0 // red pin with stud (front 7L hole 2)
1 4 50 -282 36 1 0 0 0 0.6 0.8 0 -0.8 0.6 89678.dat
0 // red pin with stud (front 7L hole 5)
1 4 50 -246 -12 1 0 0 0 0.6 0.8 0 -0.8 0.6 89678.dat
0 STEP
0 // butterfly
1 85 50 -246 -12 0 -1 0 0 0 -1 1 0 0 80674.dat
0 STEP
0 // leaf plate (front 7L)
1 27 58 -282 36 0 -1 0 -0.8 0 0.6 -0.6 0 -0.8 32607.dat
0 // carrot-top sprig (front 7L)
1 27 38 -282 36 0 -1 0 1 0 0 0 0 1 33183.dat
0 // leaf plate (bent liftarm)
1 27 -38 -294 52 0 1 0 0 0 -1 -1 0 0 32607.dat
0 // carrot-top sprig (bent liftarm)
1 27 -18 -294 52 0 1 0 -1 0 0 0 0 1 33183.dat
0 STEP
0 // seed 1 gold ring [loose:seed 1]
1 297 48 -282.0092 -60.2088 0 1 0 -0.8609 0 0.5088 0.5088 0 0.8609 3917.dat
0 // seed 1 L-shaped bar [loose:seed 1]
1 70 64.8 -282.0092 -60.2088 0 0 1 0 -1 0 1 0 0 87618.dat
0 // seed 1 tan round plate (ring stud) [loose:seed 1]
1 19 50.8 -282.0092 -60.2088 0 -1 0 1 0 0 0 0 1 85861.dat
0 // seed 1 red bush [loose:seed 1]
1 4 64.8 -266.5092 -60.2088 1 0 0 0 0 1 0 -1 0 3713.dat
0 // seed 1 red bush [loose:seed 1]
1 4 64.8 -246.5092 -60.2088 1 0 0 0 0 1 0 -1 0 3713.dat
0 // seed 1 dome bottom [loose:seed 1]
1 70 64.8 -163.5092 -60.2088 1 0 0 0 1 0 0 0 1 15395.dat
0 // seed 1 tan plate [loose:seed 1]
1 19 64.8 -171.5092 -60.2088 1 0 0 0 1 0 0 0 1 6141.dat
0 // seed 1 tan plate [loose:seed 1]
1 19 64.8 -179.5092 -60.2088 1 0 0 0 1 0 0 0 1 6141.dat
0 // seed 1 round brick with points [loose:seed 1]
1 70 64.8 -207.5092 -60.2088 1 0 0 0 1 0 0 0 1 15469.dat
0 // seed 1 round tile with stud [loose:seed 1]
1 70 64.8 -215.5092 -60.2088 1 0 0 0 1 0 0 0 1 18674.dat
0 STEP
0 STEP
0 // seed 2 (back) gold ring [loose:seed 2]
1 297 -8 -293.2028 -79.1483 0 -1 0 -0.8609 0 -0.5088 0.5088 0 -0.8609 3917.dat
0 // seed 2 (back) 2L bar with stop [loose:seed 2]
1 70 -12 -293.2028 -79.1483 0 -1 0 0 0 1 -1 0 0 78258.dat
0 // seed 2 (back) dome bottom [loose:seed 2]
1 70 -24 -293.2028 -79.1483 0 1 0 0 0 1 1 0 0 15395.dat
0 // seed 2 (back) tan plate [loose:seed 2]
1 19 -32 -293.2028 -79.1483 0 1 0 0 0 1 1 0 0 6141.dat
0 // seed 2 (back) tan plate [loose:seed 2]
1 19 -40 -293.2028 -79.1483 0 1 0 0 0 1 1 0 0 6141.dat
0 // seed 2 (back) round brick with points [loose:seed 2]
1 70 -68 -293.2028 -79.1483 0 1 0 0 0 1 1 0 0 15469.dat
0 // seed 2 (back) round tile with stud [loose:seed 2]
1 70 -76 -293.2028 -79.1483 0 1 0 0 0 1 1 0 0 18674.dat
0 // seed 2 (back) hose [loose:seed 2]
1 27 -20 -381.6282 130.5699 0.0008 1 -0.0003 0 -0.0003 -1 -1 0.0008 0 57539k01.dat
0 // seed 2 (back) hose [loose:seed 2]
1 27 -33.3652 -381.3037 129.8004 0.1146 0.9923 -0.0479 0 -0.0483 -0.9988 -0.9934 0.1145 -0.0055 57539k02.dat
0 // seed 2 (back) hose [loose:seed 2]
1 27 -39.0975 -380.9623 128.9905 0.1639 0.9841 -0.068 0 -0.0689 -0.9976 -0.9865 0.1635 -0.0113 57539k02.dat
0 // seed 2 (back) hose [loose:seed 2]
1 27 -44.7741 -380.5012 127.8971 0.2137 0.973 -0.0877 0 -0.0897 -0.996 -0.9769 0.2129 -0.0192 57539k02.dat
0 // seed 2 (back) hose [loose:seed 2]
1 27 -50.3794 -379.9233 126.5265 0.2607 0.9596 -0.1055 0 -0.1093 -0.994 -0.9654 0.2591 -0.0285 57539k02.dat
0 // seed 2 (back) hose [loose:seed 2]
1 27 -55.8991 -379.2321 124.8871 0.3076 0.9436 -0.1224 0 -0.1286 -0.9917 -0.9515 0.3051 -0.0396 57539k02.dat
0 // seed 2 (back) hose [loose:seed 2]
1 27 -61.3204 -378.4319 122.9892 0.3528 0.9255 -0.1377 0 -0.1472 -0.9891 -0.9357 0.349 -0.0519 57539k02.dat
0 // seed 2 (back) hose [loose:seed 2]
1 27 -66.6321 -377.5275 120.8442 0.3962 0.9056 -0.1513 0 -0.1648 -0.9863 -0.9182 0.3908 -0.0653 57539k02.dat
0 // seed 2 (back) hose [loose:seed 2]
1 27 -71.8247 -376.5241 118.4644 0.4364 0.8849 -0.1628 0 -0.181 -0.9835 -0.8997 0.4292 -0.079 57539k02.dat
0 // seed 2 (back) hose [loose:seed 2]
1 27 -76.8904 -375.427 115.8626 0.476 0.8622 -0.1731 0 -0.1968 -0.9804 -0.8794 0.4667 -0.0937 57539k02.dat
0 // seed 2 (back) hose [loose:seed 2]
1 27 -81.8228 -374.2418 113.0517 0.5136 0.8386 -0.1816 0 -0.2117 -0.9773 -0.858 0.502 -0.1087 57539k02.dat
0 // seed 2 (back) hose [loose:seed 2]
1 27 -86.617 -372.9739 110.0445 0.5493 0.8141 -0.1885 0 -0.2256 -0.9742 -0.8356 0.5351 -0.1239 57539k02.dat
0 // seed 2 (back) hose [loose:seed 2]
1 27 -91.269 -371.6284 106.8534 0.582 0.7898 -0.1938 0 -0.2383 -0.9712 -0.8132 0.5652 -0.1387 57539k02.dat
0 // seed 2 (back) hose [loose:seed 2]
1 27 -95.7763 -370.2104 103.4904 0.614 0.7641 -0.1978 0 -0.2506 -0.9681 -0.7893 0.5944 -0.1539 57539k02.dat
0 // seed 2 (back) hose [loose:seed 2]
1 27 -100.1366 -368.7247 99.9667 0.6433 0.739 -0.2004 0 -0.2618 -0.9651 -0.7657 0.6208 -0.1684 57539k02.dat
0 // seed 2 (back) hose [loose:seed 2]
1 27 -104.3486 -367.1757 96.2931 0.6709 0.7135 -0.2018 0 -0.2722 -0.9622 -0.7415 0.6456 -0.1826 57539k02.dat
0 // seed 2 (back) hose [loose:seed 2]
1 27 -108.4113 -365.5677 92.4794 0.6971 0.6879 -0.2022 0 -0.282 -0.9594 -0.717 0.6688 -0.1966 57539k02.dat
0 // seed 2 (back) hose [loose:seed 2]
1 27 -112.3242 -363.9045 88.5347 0.7218 0.6621 -0.2015 0 -0.2912 -0.9567 -0.6921 0.6906 -0.2102 57539k02.dat
0 // seed 2 (back) hose [loose:seed 2]
1 27 -116.0866 -362.1897 84.4677 0.7459 0.6353 -0.1998 0 -0.3 -0.9539 -0.666 0.7116 -0.2238 57539k02.dat
0 // seed 2 (back) hose [loose:seed 2]
1 27 -119.6981 -360.4266 80.2862 0.768 0.6093 -0.1973 0 -0.3081 -0.9514 -0.6404 0.7306 -0.2366 57539k02.dat
0 // seed 2 (back) hose [loose:seed 2]
1 27 -123.1582 -358.6183 75.9973 0.7889 0.5832 -0.194 0 -0.3156 -0.9489 -0.6146 0.7485 -0.249 57539k02.dat
0 // seed 2 (back) hose [loose:seed 2]
1 27 -126.4664 -356.7675 71.6078 0.8086 0.5569 -0.1899 0 -0.3227 -0.9465 -0.5884 0.7653 -0.2609 57539k02.dat
0 // seed 2 (back) hose [loose:seed 2]
1 27 -129.6216 -354.8768 67.1237 0.8273 0.5305 -0.185 0 -0.3293 -0.9442 -0.5618 0.7811 -0.2725 57539k02.dat
0 // seed 2 (back) hose [loose:seed 2]
1 27 -132.6229 -352.9487 62.5508 0.8449 0.5039 -0.1795 0 -0.3356 -0.942 -0.5349 0.7959 -0.2835 57539k02.dat
0 // seed 2 (back) hose [loose:seed 2]
1 27 -135.4686 -350.9852 57.8941 0.8616 0.477 -0.1733 0 -0.3415 -0.9399 -0.5075 0.8098 -0.2942 57539k02.dat
0 // seed 2 (back) hose [loose:seed 2]
1 27 -138.1567 -348.9886 53.1587 0.8774 0.4499 -0.1664 0 -0.347 -0.9379 -0.4797 0.8229 -0.3044 57539k02.dat
0 // seed 2 (back) hose [loose:seed 2]
1 27 -140.6849 -346.9606 48.349 0.8928 0.4215 -0.1587 0 -0.3523 -0.9359 -0.4504 0.8356 -0.3146 57539k02.dat
0 // seed 2 (back) hose [loose:seed 2]
1 27 -143.0499 -344.9032 43.4693 0.9069 0.3936 -0.1505 0 -0.3572 -0.934 -0.4214 0.8471 -0.3239 57539k02.dat
0 // seed 2 (back) hose [loose:seed 2]
1 27 -145.2481 -342.818 38.5239 0.9205 0.3642 -0.1414 0 -0.3618 -0.9322 -0.3907 0.8581 -0.3331 57539k02.dat
0 // seed 2 (back) hose [loose:seed 2]
1 27 -147.2749 -340.7068 33.5167 0.9333 0.3342 -0.1315 0 -0.3662 -0.9305 -0.3592 0.8685 -0.3417 57539k02.dat
0 // seed 2 (back) hose [loose:seed 2]
1 27 -149.125 -338.5712 28.4518 0.9451 0.3035 -0.1209 0 -0.3702 -0.929 -0.3267 0.878 -0.3499 57539k02.dat
0 // seed 2 (back) hose [loose:seed 2]
1 27 -150.7919 -336.413 23.3332 0.9564 0.2708 -0.1092 0 -0.374 -0.9274 -0.292 0.887 -0.3577 57539k02.dat
0 // seed 2 (back) hose [loose:seed 2]
1 27 -152.2682 -334.2339 18.1651 0.9667 0.2371 -0.0966 0 -0.3774 -0.926 -0.256 0.8952 -0.3649 57539k02.dat
0 // seed 2 (back) hose [loose:seed 2]
1 27 -153.5451 -332.0359 12.9522 0.9758 0.2022 -0.0832 0 -0.3805 -0.9248 -0.2186 0.9024 -0.3713 57539k02.dat
0 // seed 2 (back) hose [loose:seed 2]
1 27 -154.6124 -329.8212 7.6994 0.984 0.1648 -0.0684 0 -0.3832 -0.9237 -0.1784 0.9088 -0.3771 57539k02.dat
0 // seed 2 (back) hose [loose:seed 2]
1 27 -155.4583 -327.592 2.4125 0.9907 0.1257 -0.0525 0 -0.3854 -0.9227 -0.1362 0.9141 -0.3818 57539k02.dat
0 // seed 2 (back) hose [loose:seed 2]
1 27 -156.0692 -325.3513 -2.9017 0.9958 0.0848 -0.0356 0 -0.3871 -0.922 -0.0919 0.9181 -0.3855 57539k02.dat
0 // seed 2 (back) hose [loose:seed 2]
1 27 -156.4292 -323.1025 -8.2353 0.9991 0.0392 -0.0165 0 -0.3882 -0.9216 -0.0426 0.9207 -0.3879 57539k02.dat
0 // seed 2 (back) hose [loose:seed 2]
1 27 -156.5204 -320.8496 -13.5785 1 -0.0088 0.0037 0 -0.3885 -0.9214 0.0096 0.9214 -0.3885 57539k02.dat
0 // seed 2 (back) hose [loose:seed 2]
1 27 -156.3222 -318.5977 -18.9192 0.9978 -0.0611 0.0257 0 -0.3878 -0.9217 0.0662 0.9197 -0.3869 57539k02.dat
0 // seed 2 (back) hose [loose:seed 2]
1 27 -155.8116 -316.3534 -24.2421 0.992 -0.1164 0.0487 0 -0.3859 -0.9226 0.1261 0.9152 -0.3828 57539k02.dat
0 // seed 2 (back) hose [loose:seed 2]
1 27 -154.9631 -314.1246 -29.5281 0.9816 -0.1765 0.0731 0 -0.3824 -0.924 0.1911 0.907 -0.3754 57539k02.dat
0 // seed 2 (back) hose [loose:seed 2]
1 27 -153.7492 -311.9215 -34.7531 0.9653 -0.2418 0.0984 0 -0.377 -0.9262 0.2611 0.8941 -0.3639 57539k02.dat
0 // seed 2 (back) hose [loose:seed 2]
1 27 -152.1412 -309.757 -39.8867 0.9418 -0.3123 0.124 0 -0.3691 -0.9294 0.3361 0.8753 -0.3476 57539k02.dat
0 // seed 2 (back) hose [loose:seed 2]
1 27 -150.1113 -307.6468 -44.8915 0.9096 -0.3879 0.1488 0 -0.3581 -0.9337 0.4154 0.8493 -0.3257 57539k02.dat
0 // seed 2 (back) hose [loose:seed 2]
1 27 -147.6349 -305.6099 -49.7224 0.8683 -0.4658 0.1705 0 -0.3438 -0.939 0.4961 0.8154 -0.2985 57539k02.dat
0 // seed 2 (back) hose [loose:seed 2]
1 27 -144.6946 -303.6685 -54.3268 0.8159 -0.5467 0.1881 0 -0.3253 -0.9456 0.5782 0.7715 -0.2654 57539k02.dat
0 // seed 2 (back) hose [loose:seed 2]
1 27 -141.285 -301.8467 -58.6474 0.7518 -0.6286 0.1993 0 -0.3022 -0.9533 0.6594 0.7166 -0.2272 57539k02.dat
0 // seed 2 (back) hose [loose:seed 2]
1 27 -137.4162 -300.1692 -62.626 0.6796 -0.7052 0.2021 0 -0.2755 -0.9613 0.7336 0.6533 -0.1872 57539k02.dat
0 // seed 2 (back) hose [loose:seed 2]
1 27 -133.1171 -298.6582 -66.2097 0.5996 -0.7759 0.1962 0 -0.2451 -0.9695 0.8003 0.5813 -0.147 57539k02.dat
0 // seed 2 (back) hose [loose:seed 2]
1 27 -128.4334 -297.3309 -69.3577 0.5161 -0.8369 0.1821 0 -0.2126 -0.9771 0.8565 0.5043 -0.1097 57539k02.dat
0 // seed 2 (back) hose [loose:seed 2]
1 27 -123.4234 -296.1974 -72.046 0.4296 -0.8885 0.161 0 -0.1782 -0.984 0.903 0.4227 -0.0766 57539k02.dat
0 // seed 2 (back) hose [loose:seed 2]
1 27 -118.1514 -295.26 -74.2692 0.3468 -0.9281 0.1357 0 -0.1447 -0.9895 0.9379 0.3432 -0.0502 57539k02.dat
0 // seed 2 (back) hose [loose:seed 2]
1 27 -112.6804 -294.5141 -76.0382 0.2696 -0.9568 0.1088 0 -0.1129 -0.9936 0.963 0.2678 -0.0304 57539k02.dat
0 // seed 2 (back) hose [loose:seed 2]
1 27 -107.0669 -293.9498 -77.3767 0.1968 -0.9771 0.0811 0 -0.0827 -0.9966 0.9804 0.1962 -0.0163 57539k02.dat
0 // seed 2 (back) hose [loose:seed 2]
1 27 -101.3584 -293.5538 -78.3158 0.1293 -0.9901 0.054 0 -0.0545 -0.9985 0.9916 0.1292 -0.007 57539k02.dat
0 // seed 2 (back) hose [loose:seed 2]
1 27 -88 -293.2028 -79.1483 -0.0008 1 0.0003 0 0.0003 -1 -1 -0.0008 0 57539k01.dat
0 STEP
0 // seed 3 (front) gold ring [loose:seed 3]
1 297 48 -305.4139 -99.8096 0 1 0 -0.8609 0 0.5088 0.5088 0 0.8609 3917.dat
0 // seed 3 (front) 2L bar with stop [loose:seed 3]
1 70 52 -305.4139 -99.8096 0 1 0 0 0 1 1 0 0 78258.dat
0 // seed 3 (front) dome bottom [loose:seed 3]
1 70 64 -305.4139 -99.8096 0 -1 0 0 0 1 -1 0 0 15395.dat
0 // seed 3 (front) tan plate [loose:seed 3]
1 19 72 -305.4139 -99.8096 0 -1 0 0 0 1 -1 0 0 6141.dat
0 // seed 3 (front) tan plate [loose:seed 3]
1 19 80 -305.4139 -99.8096 0 -1 0 0 0 1 -1 0 0 6141.dat
0 // seed 3 (front) round brick with points [loose:seed 3]
1 70 108 -305.4139 -99.8096 0 -1 0 0 0 1 -1 0 0 15469.dat
0 // seed 3 (front) round tile with stud [loose:seed 3]
1 70 116 -305.4139 -99.8096 0 -1 0 0 0 1 -1 0 0 18674.dat
0 // seed 3 (front) hose [loose:seed 3]
1 27 60 -369.6283 114.5699 0.0008 -1 0.0002 0 -0.0002 -1 1 0.0008 0 57539k01.dat
0 // seed 3 (front) hose [loose:seed 3]
1 27 73.369 -369.4021 113.8149 0.1132 -0.993 0.0337 0 -0.0339 -0.9994 0.9936 0.1131 -0.0038 57539k02.dat
0 // seed 3 (front) hose [loose:seed 3]
1 27 79.1086 -369.1638 113.0191 0.1611 -0.9858 0.0476 0 -0.0482 -0.9988 0.9869 0.1609 -0.0078 57539k02.dat
0 // seed 3 (front) hose [loose:seed 3]
1 27 84.7981 -368.8414 111.943 0.2096 -0.9759 0.0613 0 -0.0626 -0.998 0.9778 0.2092 -0.0131 57539k02.dat
0 // seed 3 (front) hose [loose:seed 3]
1 27 90.4232 -368.4365 110.5914 0.2568 -0.9636 0.0741 0 -0.0767 -0.9971 0.9665 0.2561 -0.0197 57539k02.dat
0 // seed 3 (front) hose [loose:seed 3]
1 27 95.9705 -367.9512 108.9712 0.3027 -0.9492 0.0861 0 -0.0903 -0.9959 0.9531 0.3014 -0.0273 57539k02.dat
0 // seed 3 (front) hose [loose:seed 3]
1 27 101.4277 -367.388 107.0909 0.3483 -0.9323 0.0973 0 -0.1038 -0.9946 0.9374 0.3464 -0.0361 57539k02.dat
0 // seed 3 (front) hose [loose:seed 3]
1 27 106.7837 -366.7499 104.9604 0.3908 -0.9142 0.107 0 -0.1163 -0.9932 0.9205 0.3882 -0.0454 57539k02.dat
0 // seed 3 (front) hose [loose:seed 3]
1 27 112.029 -366.04 102.5904 0.4328 -0.894 0.1159 0 -0.1286 -0.9917 0.9015 0.4292 -0.0556 57539k02.dat
0 // seed 3 (front) hose [loose:seed 3]
1 27 117.1552 -365.2617 99.9922 0.4716 -0.8731 0.1233 0 -0.1399 -0.9902 0.8818 0.467 -0.066 57539k02.dat
0 // seed 3 (front) hose [loose:seed 3]
1 27 122.1555 -364.4187 97.1777 0.5085 -0.8512 0.1297 0 -0.1506 -0.9886 0.861 0.5027 -0.0766 57539k02.dat
0 // seed 3 (front) hose [loose:seed 3]
1 27 127.024 -363.5143 94.1586 0.5448 -0.8276 0.1351 0 -0.161 -0.9869 0.8386 0.5376 -0.0877 57539k02.dat
0 // seed 3 (front) hose [loose:seed 3]
1 27 131.756 -362.5522 90.9466 0.578 -0.8041 0.1392 0 -0.1706 -0.9853 0.816 0.5695 -0.0986 57539k02.dat
0 // seed 3 (front) hose [loose:seed 3]
1 27 136.348 -361.5357 87.553 0.6105 -0.7791 0.1425 0 -0.1799 -0.9837 0.7921 0.6005 -0.1098 57539k02.dat
0 // seed 3 (front) hose [loose:seed 3]
1 27 140.7967 -360.4681 83.9887 0.6402 -0.7545 0.1447 0 -0.1883 -0.9821 0.7682 0.6287 -0.1206 57539k02.dat
0 // seed 3 (front) hose [loose:seed 3]
1 27 145.1001 -359.3524 80.2641 0.6683 -0.7294 0.146 0 -0.1963 -0.9805 0.7439 0.6553 -0.1312 57539k02.dat
0 // seed 3 (front) hose [loose:seed 3]
1 27 149.2561 -358.1917 76.389 0.6948 -0.7041 0.1465 0 -0.2038 -0.979 0.7192 0.6802 -0.1416 57539k02.dat
0 // seed 3 (front) hose [loose:seed 3]
1 27 153.2633 -356.9886 72.3726 0.7207 -0.6777 0.1463 0 -0.211 -0.9775 0.6933 0.7045 -0.1521 57539k02.dat
0 // seed 3 (front) hose [loose:seed 3]
1 27 157.1202 -355.7458 68.2234 0.7443 -0.6518 0.1453 0 -0.2176 -0.976 0.6678 0.7265 -0.162 57539k02.dat
0 // seed 3 (front) hose [loose:seed 3]
1 27 160.8258 -354.4656 63.9495 0.7667 -0.6258 0.1437 0 -0.2238 -0.9746 0.6421 0.7472 -0.1716 57539k02.dat
0 // seed 3 (front) hose [loose:seed 3]
1 27 164.3788 -353.1503 59.5582 0.7878 -0.5995 0.1415 0 -0.2297 -0.9733 0.616 0.7667 -0.1809 57539k02.dat
0 // seed 3 (front) hose [loose:seed 3]
1 27 167.7779 -351.8019 55.0566 0.8077 -0.573 0.1386 0 -0.2352 -0.972 0.5896 0.7851 -0.1899 57539k02.dat
0 // seed 3 (front) hose [loose:seed 3]
1 27 171.0215 -350.4223 50.4508 0.8272 -0.5455 0.1352 0 -0.2405 -0.9707 0.562 0.8029 -0.1989 57539k02.dat
0 // seed 3 (front) hose [loose:seed 3]
1 27 174.1079 -349.0133 45.747 0.8449 -0.5185 0.1312 0 -0.2454 -0.9694 0.5349 0.8191 -0.2073 57539k02.dat
0 // seed 3 (front) hose [loose:seed 3]
1 27 177.0349 -347.5766 40.9505 0.8623 -0.4904 0.1266 0 -0.2501 -0.9682 0.5064 0.8349 -0.2156 57539k02.dat
0 // seed 3 (front) hose [loose:seed 3]
1 27 179.7998 -346.1137 36.0667 0.8781 -0.4627 0.1217 0 -0.2544 -0.9671 0.4784 0.8492 -0.2234 57539k02.dat
0 // seed 3 (front) hose [loose:seed 3]
1 27 182.3997 -344.6261 31.1003 0.8935 -0.4337 0.1161 0 -0.2585 -0.966 0.449 0.8632 -0.231 57539k02.dat
0 // seed 3 (front) hose [loose:seed 3]
1 27 184.8309 -343.1152 26.0562 0.908 -0.4042 0.1099 0 -0.2625 -0.9649 0.4189 0.8762 -0.2383 57539k02.dat
0 // seed 3 (front) hose [loose:seed 3]
1 27 187.0888 -341.5823 20.9386 0.9216 -0.3741 0.1033 0 -0.2661 -0.9639 0.388 0.8884 -0.2453 57539k02.dat
0 // seed 3 (front) hose [loose:seed 3]
1 27 189.1683 -340.0288 15.7522 0.9343 -0.3432 0.096 0 -0.2695 -0.963 0.3564 0.8998 -0.2518 57539k02.dat
0 // seed 3 (front) hose [loose:seed 3]
1 27 191.0633 -338.456 10.5013 0.9465 -0.3105 0.088 0 -0.2728 -0.9621 0.3227 0.9106 -0.2582 57539k02.dat
0 // seed 3 (front) hose [loose:seed 3]
1 27 192.7667 -336.8652 5.1905 0.9576 -0.2768 0.0794 0 -0.2757 -0.9612 0.288 0.9205 -0.264 57539k02.dat
0 // seed 3 (front) hose [loose:seed 3]
1 27 194.27 -335.2579 -0.1754 0.968 -0.2409 0.0699 0 -0.2785 -0.9604 0.2508 0.9297 -0.2696 57539k02.dat
0 // seed 3 (front) hose [loose:seed 3]
1 27 195.5636 -333.6357 -5.5912 0.977 -0.2047 0.0599 0 -0.2809 -0.9597 0.2133 0.9377 -0.2744 57539k02.dat
0 // seed 3 (front) hose [loose:seed 3]
1 27 196.6362 -332.0003 -11.0511 0.9851 -0.1647 0.0486 0 -0.283 -0.9591 0.1718 0.9449 -0.2788 57539k02.dat
0 // seed 3 (front) hose [loose:seed 3]
1 27 197.4749 -330.3536 -16.5484 0.9916 -0.1242 0.0369 0 -0.2847 -0.9586 0.1295 0.9505 -0.2823 57539k02.dat
0 // seed 3 (front) hose [loose:seed 3]
1 27 198.0647 -328.6981 -22.0752 0.9966 -0.0791 0.0236 0 -0.286 -0.9582 0.0825 0.9549 -0.2851 57539k02.dat
0 // seed 3 (front) hose [loose:seed 3]
1 27 198.3886 -327.0366 -27.6221 0.9995 -0.0316 0.0095 0 -0.2868 -0.958 0.033 0.9575 -0.2866 57539k02.dat
0 // seed 3 (front) hose [loose:seed 3]
1 27 198.4272 -325.3726 -33.1775 0.9998 0.0185 -0.0055 0 -0.2869 -0.958 -0.0193 0.9578 -0.2868 57539k02.dat
0 // seed 3 (front) hose [loose:seed 3]
1 27 198.1586 -323.7103 -38.7269 0.997 0.0744 -0.0222 0 -0.2861 -0.9582 -0.0776 0.9553 -0.2853 57539k02.dat
0 // seed 3 (front) hose [loose:seed 3]
1 27 197.5586 -322.0553 -44.2524 0.9903 0.1335 -0.0396 0 -0.2844 -0.9587 -0.1393 0.9494 -0.2816 57539k02.dat
0 // seed 3 (front) hose [loose:seed 3]
1 27 196.6008 -320.4142 -49.7312 0.9785 0.1977 -0.0579 0 -0.2813 -0.9596 -0.206 0.939 -0.2752 57539k02.dat
0 // seed 3 (front) hose [loose:seed 3]
1 27 195.2574 -318.7955 -55.135 0.9606 0.2671 -0.0768 0 -0.2765 -0.961 -0.2779 0.9231 -0.2656 57539k02.dat
0 // seed 3 (front) hose [loose:seed 3]
1 27 193.5008 -317.2099 -60.4287 0.9357 0.3397 -0.0952 0 -0.2699 -0.9629 -0.3528 0.901 -0.2525 57539k02.dat
0 // seed 3 (front) hose [loose:seed 3]
1 27 191.3054 -315.67 -65.5697 0.9019 0.4169 -0.1126 0 -0.2608 -0.9654 -0.4319 0.8707 -0.2352 57539k02.dat
0 // seed 3 (front) hose [loose:seed 3]
1 27 188.6512 -314.1908 -70.5078 0.8579 0.4976 -0.1279 0 -0.2489 -0.9685 -0.5138 0.8309 -0.2135 57539k02.dat
0 // seed 3 (front) hose [loose:seed 3]
1 27 185.528 -312.7893 -75.1869 0.8038 0.5783 -0.1392 0 -0.2341 -0.9722 -0.5949 0.7815 -0.1882 57539k02.dat
0 // seed 3 (front) hose [loose:seed 3]
1 27 181.9389 -311.4828 -79.5485 0.7382 0.6587 -0.1456 0 -0.2159 -0.9764 -0.6746 0.7208 -0.1594 57539k02.dat
0 // seed 3 (front) hose [loose:seed 3]
1 27 177.9039 -310.2883 -83.5362 0.6649 0.7326 -0.1459 0 -0.1953 -0.9807 -0.747 0.6521 -0.1299 57539k02.dat
0 // seed 3 (front) hose [loose:seed 3]
1 27 173.4603 -309.2199 -87.1031 0.5861 0.798 -0.1401 0 -0.1729 -0.9849 -0.8102 0.5773 -0.1014 57539k02.dat
0 // seed 3 (front) hose [loose:seed 3]
1 27 168.6594 -308.2874 -90.2165 0.5024 0.855 -0.1287 0 -0.1488 -0.9889 -0.8646 0.4968 -0.0748 57539k02.dat
0 // seed 3 (front) hose [loose:seed 3]
1 27 163.5613 -307.4951 -92.8615 0.4182 0.9013 -0.1129 0 -0.1243 -0.9922 -0.9083 0.415 -0.052 57539k02.dat
0 // seed 3 (front) hose [loose:seed 3]
1 27 158.2281 -306.8424 -95.0406 0.3379 0.9364 -0.0948 0 -0.1007 -0.9949 -0.9412 0.3362 -0.034 57539k02.dat
0 // seed 3 (front) hose [loose:seed 3]
1 27 152.7182 -306.3242 -96.7706 0.2611 0.9624 -0.0753 0 -0.078 -0.997 -0.9653 0.2603 -0.0204 57539k02.dat
0 // seed 3 (front) hose [loose:seed 3]
1 27 147.0825 -305.9325 -98.0781 0.1908 0.98 -0.056 0 -0.0571 -0.9984 -0.9816 0.1905 -0.0109 57539k02.dat
0 // seed 3 (front) hose [loose:seed 3]
1 27 141.3632 -305.6577 -98.9955 0.1275 0.9911 -0.0378 0 -0.0382 -0.9993 -0.9918 0.1274 -0.0049 57539k02.dat
0 // seed 3 (front) hose [loose:seed 3]
1 27 128 -305.4139 -99.8096 -0.0008 -1 -0.0002 0 0.0002 -1 1 -0.0008 0 57539k01.dat
