0 m03
0 Name: m03.ldr
0 Author: FLL Sim

0 // base panel
1 72 0 -10 0 1 0 0 0 1 0 0 0 1 64782.dat
0 // pin front
1 0 0 -10 -50 0 0 -1 0 1 0 1 0 0 61332.dat
0 STEP
0 // cross block
1 71 0 -10 -60 0 -1 0 1 0 0 0 0 1 32184.dat
0 // axle/pin up
1 1 20 -20 -60 0 1 0 1 0 0 0 0 -1 43093.dat
0 // axle/pin up
1 1 -20 -20 -60 0 1 0 1 0 0 0 0 -1 43093.dat
0 STEP
0 // 7x11 frame
1 27 0 -30 0 0 0 1 0 1 0 -1 0 0 39794.dat
0 STEP
0 // right L-liftarm
1 27 120 -10 -20 0 1 0 -1 0 0 0 0 1 32140.dat
0 // right L-liftarm
1 1 110 -10 -20 1 0 0 0 1 0 0 0 1 43093.dat
0 // right L-liftarm
1 1 120 -10 20 1 0 0 0 1 0 0 0 1 42924.dat
0 // right L-liftarm
1 1 120 -30 40 1 0 0 0 -1 0 0 0 -1 42924.dat
0 STEP
0 // right pivoting L-liftarm
1 27 120 -10 -40 0 -1 0 -1 0 0 0 0 -1 32140.dat
0 // right pivoting L-liftarm
1 19 110 -10 -40 1 0 0 0 -1 0 0 0 -1 3749.dat
0 // right pivoting L-liftarm
1 0 110 -30 -100 1 0 0 0 -1 0 0 0 -1 61332.dat
0 // right pivoting L-liftarm
1 4 100 -30 -100 0 -1 0 -1 0 0 0 0 -1 18654.dat
0 STEP
0 // left L-liftarm
1 27 -120 -10 -20 0 1 0 -1 0 0 0 0 1 32140.dat
0 // left L-liftarm
1 1 -110 -10 -20 -1 0 0 0 -1 0 0 0 1 43093.dat
0 // left L-liftarm
1 1 -120 -10 20 -1 0 0 0 1 0 0 0 -1 42924.dat
0 // left L-liftarm
1 1 -120 -30 40 -1 0 0 0 -1 0 0 0 1 42924.dat
0 STEP
0 // tan 3L pin left
1 19 -120 -30 0 -1 0 0 0 1 0 0 0 -1 39888.dat
0 // tan 3L pin right
1 19 120 -30 0 1 0 0 0 1 0 0 0 1 39888.dat
0 STEP
0 STEP
0 // platform back liftarm
1 71 0 -70.1818 87.5793 0 0 1 0.9928 0.1201 0 -0.1201 0.9928 0 73507.dat
0 // rotating platform
1 0 -60 -71.3832 77.6517 0 0 -1 0.1201 0.9928 0 0.9928 -0.1201 0 61332.dat
0 // rotating platform
1 0 60 -71.3832 77.6517 0 0 -1 0.1201 0.9928 0 0.9928 -0.1201 0 61332.dat
0 STEP
0 // red pin with stud (up)
1 4 -80 -80.1094 88.7806 0 -1 0 -0.9928 0 -0.1201 0.1201 0 -0.9928 89678.dat
0 // red pin with stud (up)
1 4 80 -80.1094 88.7806 0 1 0 -0.9928 0 0.1201 0.1201 0 0.9928 89678.dat
0 // red pin with stud (down)
1 4 -40 -60.2542 86.3779 0 1 0 0.9928 0 -0.1201 -0.1201 0 -0.9928 89678.dat
0 // red pin with stud (down)
1 4 40 -60.2542 86.3779 0 -1 0 0.9928 0 0.1201 -0.1201 0 0.9928 89678.dat
0 STEP
0 // platform panel
1 72 0 -77.39 28.0138 1 0 0 0 0.9928 0.1201 0 -0.1201 0.9928 64782.dat
0 STEP
0 // rotating platform
1 1 -60 -84.5982 -31.5516 0 0 1 -0.1201 0.9928 0 -0.9928 -0.1201 0 42924.dat
0 // rotating platform
1 1 60 -84.5982 -31.5516 0 0 1 -0.1201 0.9928 0 -0.9928 -0.1201 0 42924.dat
0 STEP
0 // yellow pin (5L pivot)
1 14 -110 -72.5845 67.7241 1 0 0 0 0.9928 0.1201 0 -0.1201 0.9928 3673.dat
0 // yellow pin (5L pivot)
1 14 110 -72.5845 67.7241 1 0 0 0 0.9928 0.1201 0 -0.1201 0.9928 3673.dat
0 STEP
0 // platform front liftarm
1 71 0 -84.5982 -31.5516 0 0 1 0.9928 0.1201 0 -0.1201 0.9928 0 73507.dat
0 // red pin with stud (up)
1 4 -80 -94.5258 -30.3502 0 -1 0 -0.9928 0 -0.1201 0.1201 0 -0.9928 89678.dat
0 // red pin with stud (up)
1 4 80 -94.5258 -30.3502 0 1 0 -0.9928 0 0.1201 0.1201 0 0.9928 89678.dat
0 // red pin with stud (down)
1 4 -40 -74.6706 -32.753 0 1 0 0.9928 0 -0.1201 -0.1201 0 -0.9928 89678.dat
0 // red pin with stud (down)
1 4 40 -74.6706 -32.753 0 -1 0 0.9928 0 0.1201 -0.1201 0 0.9928 89678.dat
0 // platform front liftarm
1 71 0 -87.001 -51.4068 0 0 1 0.9928 0.1201 0 -0.1201 0.9928 0 73507.dat
0 // red pin with stud (up)
1 4 -80 -96.9285 -50.2054 0 -1 0 -0.9928 0 -0.1201 0.1201 0 -0.9928 89678.dat
0 // red pin with stud (up)
1 4 80 -96.9285 -50.2054 0 1 0 -0.9928 0 0.1201 0.1201 0 0.9928 89678.dat
0 // red pin with stud (down)
1 4 -40 -77.0734 -52.6081 0 1 0 0.9928 0 -0.1201 -0.1201 0 -0.9928 89678.dat
0 // red pin with stud (down)
1 4 40 -77.0734 -52.6081 0 -1 0 0.9928 0 0.1201 -0.1201 0 0.9928 89678.dat
0 STEP
0 // pin with stud tube
1 10 -20 -87.7218 -57.3633 0 0 -1 -0.1201 -0.9928 0 -0.9928 0.1201 0 65826.dat
0 // pin with stud tube
1 10 20 -87.7218 -57.3633 0 0 1 -0.1201 0.9928 0 -0.9928 -0.1201 0 65826.dat
0 STEP
0 // 5L link
1 27 -120 -51.2923 33.8621 0 1 0 0.8466 0 0.5323 0.5323 0 -0.8466 32316.dat
0 STEP
0 STEP
0 // lever
1 4 -120 -209.329 71.565 0 -1 0 -0.1156 0 0.9933 -0.9933 0 -0.1156 6629.dat
0 // lever pivot pin
1 14 -130 -110 60 -1 0 0 0 0.1156 0.9933 0 0.9933 -0.1156 3673.dat
0 // lever axle/pin
1 19 -110 -79.7927 8.1587 -1 0 0 0 0.1156 0.9933 0 0.9933 -0.1156 3749.dat
0 STEP
0 // 3x3 square liftarm
1 72 -140 -30 20 0 1 0 0 0 1 1 0 0 39793.dat
0 // red pin with stud (front)
1 4 -140 -10 -10 0 0 1 0 1 0 -1 0 0 89678.dat
0 // flower plate
1 353 -140 -10 -14 -1 0 0 0 0 1 0 1 0 24866.dat
0 STEP
0 // upright 7L liftarm
1 71 -140 -70 60 1 0 0 0 0 -1 0 1 0 2391.dat
0 // pin with bushing
1 71 -140 -10 60 0 0 1 0 1 0 -1 0 0 65304.dat
0 // pin with bushing
1 71 -140 -50 60 0 0 1 0 1 0 -1 0 0 65304.dat
0 STEP
0 // 3L pin connector with two pins
1 0 -160 -30 40 0 0 -1 -1 0 0 0 1 0 2393.dat
0 STEP
0 // 5L link
1 27 120 -51.2923 33.8621 0 1 0 0.8466 0 0.5323 0.5323 0 -0.8466 32316.dat
0 STEP
0 // 3x3 square liftarm
1 72 140 -30 20 0 1 0 0 0 1 1 0 0 39793.dat
0 // 3L pin connector with two pins (front)
1 0 140 -30 -20 -1 0 0 0 1 0 0 0 -1 2393.dat
0 STEP
0 // lever
1 4 120 -209.329 71.565 0 -1 0 -0.1156 0 0.9933 -0.9933 0 -0.1156 6629.dat
0 // lever pivot pin
1 14 130 -110 60 1 0 0 0 -0.1156 0.9933 0 -0.9933 -0.1156 3673.dat
0 // lever axle/pin
1 19 110 -79.7927 8.1587 1 0 0 0 -0.1156 0.9933 0 -0.9933 -0.1156 3749.dat
0 STEP
0 // upright 7L liftarm
1 71 140 -70 60 1 0 0 0 0 -1 0 1 0 2391.dat
0 // pin with bushing
1 71 140 -10 60 0 0 1 0 1 0 -1 0 0 65304.dat
0 // pin with bushing
1 71 140 -50 60 0 0 1 0 1 0 -1 0 0 65304.dat
0 STEP
0 // 3L pin connector with two pins
1 0 160 -30 40 0 0 1 1 0 0 0 1 0 2393.dat
0 STEP
0 // grey 4x8 plate
1 71 50 -96.461 20.2487 0 0 1 -0.1201 0.9928 0 -0.9928 -0.1201 0 3035.dat
0 // trans-green tile
1 35 80 -111.6113 -38.3556 0 0 -1 0.1201 0.9928 0 0.9928 -0.1201 0 3069b.dat
0 // scene 1
1 4 50 -112.8126 -48.2832 -1 0 0 0 0.9928 -0.1201 0 -0.1201 -0.9928 3023b.dat
0 // bracket (side studs)
1 2 50 -120.7547 -47.3221 1 0 0 0 0.9928 0.1201 0 -0.1201 0.9928 99781.dat
0 // scene 1
1 27 40 -128.6968 -46.361 -1 0 0 0 0.9928 -0.1201 0 -0.1201 -0.9928 28192.dat
0 // scene 1
1 27 60 -128.6968 -46.361 -1 0 0 0 0.9928 -0.1201 0 -0.1201 -0.9928 28192.dat
0 // scene 1
1 71 20 -128.6968 -46.361 0 0 1 -0.1201 0.9928 0 -0.9928 -0.1201 0 3665a.dat
0 // scene 1
1 72 40 -122.6899 3.2769 0 0 -1 0.1201 0.9928 0 0.9928 -0.1201 0 3298.dat
0 STEP
0 // scene 1
1 72 20 -123.8913 -6.6507 0 0 1 -0.1201 0.9928 0 -0.9928 -0.1201 0 3046.dat
0 // scene 1
1 72 20 -136.6388 -45.3999 0 0 -1 0.1201 0.9928 0 0.9928 -0.1201 0 14719.dat
0 // scene 1
1 35 30 -131.8333 -5.6896 1 0 0 0 0.9928 0.1201 0 -0.1201 0.9928 3069b.dat
0 STEP
0 // grey 4x8 plate
1 71 -30 -96.461 20.2487 0 0 1 -0.1201 0.9928 0 -0.9928 -0.1201 0 3035.dat
0 // scene 1
1 35 10 -105.6044 11.2822 -1 0 0 0 0.9928 -0.1201 0 -0.1201 -0.9928 3069b.dat
0 STEP
0 // scene 1
1 71 0 -117.8844 42.9872 0 0 -1 0.1201 0.9928 0 0.9928 -0.1201 0 30363.dat
0 // scene 1
1 35 50 -98.3962 70.8477 -1 0 0 0 0.9928 -0.1201 0 -0.1201 -0.9928 3069b.dat
0 // scene 1
1 72 -20 -119.0858 33.0596 1 0 0 0 0.9928 0.1201 0 -0.1201 0.9928 60477.dat
0 // scene 1
1 35 -30 -100.799 50.9925 -1 0 0 0 0.9928 -0.1201 0 -0.1201 -0.9928 3069b.dat
0 // scene 1
1 71 10 -97.1949 80.7753 0 0 -1 0.1201 0.9928 0 0.9928 -0.1201 0 3022.dat
0 // scene 1
1 72 20 -106.3383 71.8088 0 0 -1 0.1201 0.9928 0 0.9928 -0.1201 0 14719.dat
0 // scene 1
1 4 -50 -112.8126 -48.2832 -1 0 0 0 0.9928 -0.1201 0 -0.1201 -0.9928 3023b.dat
0 // bracket (side studs)
1 2 -50 -120.7547 -47.3221 1 0 0 0 0.9928 0.1201 0 -0.1201 0.9928 99781.dat
0 // scene 1
1 27 -40 -128.6968 -46.361 0 0 -1 0.1201 0.9928 0 0.9928 -0.1201 0 28192.dat
0 // scene 1
1 27 -60 -128.6968 -46.361 0 0 1 -0.1201 0.9928 0 -0.9928 -0.1201 0 28192.dat
0 // scene 1
1 71 -80 -96.461 20.2487 0 0 1 -0.1201 0.9928 0 -0.9928 -0.1201 0 3460.dat
0 STEP
0 // scene 1
1 71 -40 -121.4885 13.2044 0 0 1 -0.1201 0.9928 0 -0.9928 -0.1201 0 3675.dat
0 // scene 1
1 71 -40 -119.0858 33.0596 0 0 1 -0.1201 0.9928 0 -0.9928 -0.1201 0 4286.dat
0 // scene 1
1 71 -60 -116.6831 52.9147 -1 0 0 0 0.9928 -0.1201 0 -0.1201 -0.9928 13548.dat
0 STEP
0 // mushroom stem
1 43 40 -145.3147 16.0877 0 0 -1 0.1201 0.9928 0 0.9928 -0.1201 0 59900.dat
0 // mushroom cap
1 43 40 -153.2568 17.0488 0 0 -1 0.1201 0.9928 0 0.9928 -0.1201 0 4740.dat
0 STEP
0 // frog
1 330 0 -123.8913 -6.6507 0 0 1 -0.1201 0.9928 0 -0.9928 -0.1201 0 33320.dat
0 // leaves
1 2 -40 -129.4306 14.1655 0 0 1 -0.1201 0.9928 0 -0.9928 -0.1201 0 32607.dat
0 // leaves
1 2 -20 -127.0279 34.0207 -1 0 0 0 0.9928 -0.1201 0 -0.1201 -0.9928 32607.dat
0 // flower
1 353 -20 -134.9699 34.9818 -1 0 0 0 0.9928 -0.1201 0 -0.1201 -0.9928 24866.dat
0 STEP
0 STEP
0 // brown 1x8 plate
1 70 -80 -60.7217 15.9238 0 0 -1 -0.1201 -0.9928 0 -0.9928 0.1201 0 3460.dat
0 // scene 2
1 28 -70 -46.7728 64.6006 0 0 1 0.1201 -0.9928 0 0.9928 0.1201 0 3021.dat
0 // brown 4x8 plate
1 70 -30 -60.7217 15.9238 0 0 1 0.1201 -0.9928 0 0.9928 0.1201 0 3035.dat
0 // scene 2
1 28 -30 -46.7728 64.6006 0 0 -1 -0.1201 -0.9928 0 -0.9928 0.1201 0 3021.dat
0 // scene 2
1 28 10 -46.7728 64.6006 0 0 -1 -0.1201 -0.9928 0 -0.9928 0.1201 0 3021.dat
0 // scene 2
1 70 0 -38.8308 63.6395 0 0 -1 -0.1201 -0.9928 0 -0.9928 0.1201 0 14719.dat
0 // scene 2
1 70 -60 -38.8308 63.6395 0 0 1 0.1201 -0.9928 0 0.9928 0.1201 0 14719.dat
0 STEP
0 // scene 2
1 70 -70 -35.6942 22.9681 1 0 0 0 -0.9928 -0.1201 0 0.1201 -0.9928 15571.dat
0 // scene 2
1 28 -60 -39.2983 -6.8146 0 0 1 0.1201 -0.9928 0 0.9928 0.1201 0 3039.dat
0 // scene 2
1 70 -40 -39.2983 -6.8146 0 0 -1 -0.1201 -0.9928 0 -0.9928 0.1201 0 15571.dat
0 // brown 4x8 plate
1 70 50 -60.7217 15.9238 0 0 1 0.1201 -0.9928 0 0.9928 0.1201 0 3035.dat
0 STEP
0 // scene 2
1 15 0 -51.5783 24.8903 1 0 0 0 -0.9928 -0.1201 0 0.1201 -0.9928 77850.dat
0 // scene 2
1 15 0 -53.9811 5.0351 1 0 0 0 -0.9928 -0.1201 0 0.1201 -0.9928 77850.dat
0 // scene 2
1 15 0 -56.3838 -14.82 1 0 0 0 -0.9928 -0.1201 0 0.1201 -0.9928 77850.dat
0 // scene 2
1 308 20 -42.9024 -36.5974 0 0 1 0.1201 -0.9928 0 0.9928 0.1201 0 3040b.dat
0 // scene 2
1 308 -40 -42.9024 -36.5974 0 0 -1 -0.1201 -0.9928 0 -0.9928 0.1201 0 3040b.dat
0 // scene 2
1 308 -60 -42.9024 -36.5974 0 0 1 0.1201 -0.9928 0 0.9928 0.1201 0 3040b.dat
0 // scene 2
1 70 -60 -34.9603 -37.5584 0 0 1 0.1201 -0.9928 0 0.9928 0.1201 0 14719.dat
0 STEP
0 // spider
1 84 0 -53.9811 5.0351 0 0 -1 -0.1201 -0.9928 0 -0.9928 0.1201 0 29111.dat
0 // scene 2
1 70 50 -38.0969 3.1129 1 0 0 0 -0.9928 -0.1201 0 0.1201 -0.9928 30363.dat
0 // scene 2
1 70 80 -36.8956 13.0405 0 0 -1 -0.1201 -0.9928 0 -0.9928 0.1201 0 15571.dat
0 STEP
0 // 1x2 brick with hole
1 84 40 -41.701 -26.6698 0 0 1 0.1201 -0.9928 0 0.9928 0.1201 0 3700.dat
0 // red pin with stud
1 4 50 -51.6286 -25.4684 1 0 0 0 -0.9928 -0.1201 0 0.1201 -0.9928 89678.dat
0 // bar with clip
1 4 60 -51.6286 -25.4684 0 -1 0 -0.1201 0 0.9928 -0.9928 0 -0.1201 3484.dat
0 // scene 2
1 70 40 -34.9603 -37.5584 -1 0 0 0 -0.9928 0.1201 0 0.1201 0.9928 14719.dat
0 STEP
0 // bracket (side studs)
1 2 50 -61.1893 -54.5303 -1 0 0 0 -0.9928 0.1201 0 0.1201 0.9928 99781.dat
0 // bracket (side studs)
1 2 -50 -61.1893 -54.5303 -1 0 0 0 -0.9928 0.1201 0 0.1201 0.9928 99781.dat
0 // curved slope
1 70 70 -61.1893 -54.5303 0 0 1 0.1201 -0.9928 0 0.9928 0.1201 0 11477.dat
0 // curved slope
1 70 30 -61.1893 -54.5303 0 0 -1 -0.1201 -0.9928 0 -0.9928 0.1201 0 11477.dat
0 // curved slope
1 70 -30 -61.1893 -54.5303 0 0 1 0.1201 -0.9928 0 0.9928 0.1201 0 11477.dat
0 // curved slope
1 70 -70 -61.1893 -54.5303 0 0 -1 -0.1201 -0.9928 0 -0.9928 0.1201 0 11477.dat
0 STEP
0 // green 1x3 plate (upright)
1 2 40 -113.4701 -70.3641 -1 0 0 0 0.1201 0.9928 0 0.9928 -0.1201 3623.dat
0 // green 2x3 plate (upright)
1 2 -50 -93.615 -72.7669 0 0 -1 -0.9928 0.1201 0 0.1201 0.9928 0 3021.dat
0 STEP
0 // leaves
1 2 -20 -85.0788 -35.5226 0 0 -1 0.9928 -0.1201 0 -0.1201 -0.9928 0 32607.dat
0 // leaves
1 2 20 -85.0788 -35.5226 0 0 -1 0.9928 -0.1201 0 -0.1201 -0.9928 0 32607.dat
