0 m04
0 Name: m04.ldr
0 Author: FLL Sim

0 // left leaf 4x6 plate
1 2 -130.7098 -8 79.7265 -0.7071 0 -0.7071 0 1 0 0.7071 0 -0.7071 3032.dat
0 // 1x2 brick right
1 71 -109.4966 -32 100.9397 0.7071 0 0.7071 0 1 0 -0.7071 0 0.7071 3004.dat
0 STEP
0 // 1x6 brick back
1 71 -166.0651 -32 86.7976 0.7071 0 -0.7071 0 1 0 0.7071 0 0.7071 3009.dat
0 STEP
0 // 2x4 plate under overhang
1 2 -173.1362 -8 37.3001 -0.7071 0 -0.7071 0 1 0 0.7071 0 -0.7071 3020.dat
0 // 1x2 brick left
1 71 -180.2072 -32 30.229 0.7071 0 0.7071 0 1 0 -0.7071 0 0.7071 3004.dat
0 STEP
0 // 1x6 plate front
1 71 -123.6387 -16 44.3712 -0.7071 0 0.7071 0 1 0 -0.7071 0 -0.7071 3666.dat
0 // dark grey 1x2 plate
1 72 -151.923 -24 16.0869 -0.7071 0 0.7071 0 1 0 -0.7071 0 -0.7071 3023b.dat
0 STEP
0 // middle leaf 4x6 plate
1 2 0.0006 -8 25.5862 -1 0 0 0 1 0 0 0 -1 3032.dat
0 // A-shaped plate
1 71 -59.9994 -16 65.5862 0 0 -1 0 1 0 1 0 0 15706.dat
0 // 1x6 plate (back)
1 71 -29.9994 -16 5.5862 0 0 -1 0 1 0 1 0 0 3666.dat
0 // 2x4 plate under overhang
1 2 0.0006 -8 -34.4138 -1 0 0 0 1 0 0 0 -1 3020.dat
0 // 1x2 brick left
1 71 0.0006 -32 -44.4138 1 0 0 0 1 0 0 0 1 3004.dat
0 // 1x2 brick right
1 71 0.0006 -32 55.5862 1 0 0 0 1 0 0 0 1 3004.dat
0 // 1x6 plate (front)
1 71 30.0006 -16 5.5862 0 0 1 0 1 0 -1 0 0 3666.dat
0 // dark grey 1x2 plate
1 72 -29.9994 -24 -34.4138 0 0 -1 0 1 0 1 0 0 3023b.dat
0 // dark grey 1x2 plate
1 72 30.0006 -24 -34.4138 0 0 1 0 1 0 -1 0 0 3023b.dat
0 STEP
0 // right leaf 4x6 plate
1 2 130.7098 -8 79.7294 -0.7071 0 0.7071 0 1 0 -0.7071 0 -0.7071 3032.dat
0 // A-shaped plate
1 71 59.9991 -16 65.5872 -0.7071 0 -0.7071 0 1 0 0.7071 0 -0.7071 15706.dat
0 // 1x6 plate (back)
1 71 123.6387 -16 44.374 -0.7071 0 -0.7071 0 1 0 0.7071 0 -0.7071 3666.dat
0 // 2x4 plate under overhang
1 2 173.1362 -8 37.3029 -0.7071 0 0.7071 0 1 0 -0.7071 0 -0.7071 3020.dat
0 // dark grey 1x2 plate
1 72 151.923 -24 16.0897 -0.7071 0 -0.7071 0 1 0 0.7071 0 -0.7071 3023b.dat
0 // 1x2 brick left
1 71 180.2072 -32 30.2319 0.7071 0 -0.7071 0 1 0 0.7071 0 0.7071 3004.dat
0 // 1x2 brick right
1 71 109.4966 -32 100.9426 0.7071 0 -0.7071 0 1 0 0.7071 0 0.7071 3004.dat
0 // 1x6 brick (front)
1 71 166.0651 -32 86.8004 0.7071 0 0.7071 0 1 0 -0.7071 0 0.7071 3009.dat
0 STEP
0 // 2x4 plate over left/middle A-plate (left half)
1 2 -102.4255 -24 51.4423 -0.7071 0 0.7071 0 1 0 -0.7071 0 -0.7071 3020.dat
0 // 2x4 plate over left/middle A-plate (right half)
1 2 -39.9994 -24 25.5862 0 0 -1 0 1 0 1 0 0 3020.dat
0 // 2x4 plate over middle/right A-plate (left half)
1 2 40.0006 -24 25.5862 0 0 1 0 1 0 -1 0 0 3020.dat
0 // 2x4 plate over middle/right A-plate (right half)
1 2 102.4255 -24 51.4451 -0.7071 0 -0.7071 0 1 0 0.7071 0 -0.7071 3020.dat
0 STEP
0 // 1x6 plate on left leaf
1 71 -123.6387 -32 44.3712 -0.7071 0 0.7071 0 1 0 -0.7071 0 -0.7071 3666.dat
0 // 1x6 plate on middle leaf (left)
1 71 -29.9994 -32 5.5862 0 0 -1 0 1 0 1 0 0 3666.dat
0 // 1x6 plate on middle leaf (right)
1 71 30.0006 -32 5.5862 0 0 1 0 1 0 -1 0 0 3666.dat
0 // 1x6 plate on right leaf
1 71 123.6387 -32 44.374 -0.7071 0 -0.7071 0 1 0 0.7071 0 -0.7071 3666.dat
0 STEP
0 // front tile
1 10 -180.2072 -40 30.229 0.7071 0 0.7071 0 1 0 -0.7071 0 0.7071 2431.dat
0 // front tile
1 10 0.0006 -40 -44.4138 -1 0 0 0 1 0 0 0 -1 2431.dat
0 // front tile
1 10 180.2072 -40 30.2319 -0.7071 0 0.7071 0 1 0 -0.7071 0 -0.7071 2431.dat
0 // side tile
1 10 -123.6387 -40 44.3712 0.7071 0 -0.7071 0 1 0 0.7071 0 0.7071 2431.dat
0 // side tile
1 10 -166.0651 -40 86.7976 0.7071 0 -0.7071 0 1 0 0.7071 0 0.7071 2431.dat
0 // side tile
1 10 30.0006 -40 5.5862 0 0 -1 0 1 0 1 0 0 2431.dat
0 // side tile
1 10 -29.9994 -40 5.5862 0 0 -1 0 1 0 1 0 0 2431.dat
0 // side tile
1 10 166.0651 -40 86.8004 -0.7071 0 -0.7071 0 1 0 0.7071 0 -0.7071 2431.dat
0 // side tile
1 10 123.6387 -40 44.374 -0.7071 0 -0.7071 0 1 0 0.7071 0 -0.7071 2431.dat
0 // back 1x4 plate
1 2 -109.4966 -40 100.9397 0.7071 0 0.7071 0 1 0 -0.7071 0 0.7071 3710.dat
0 // back 1x4 plate
1 2 0.0006 -40 55.5862 1 0 0 0 1 0 0 0 1 3710.dat
0 // back 1x4 plate
1 2 109.4966 -40 100.9426 0.7071 0 -0.7071 0 1 0 0.7071 0 0.7071 3710.dat
0 STEP
0 // back tile
1 10 -109.4966 -48 100.9397 0.7071 0 0.7071 0 1 0 -0.7071 0 0.7071 2431.dat
0 // back tile
1 10 0.0006 -48 55.5862 1 0 0 0 1 0 0 0 1 2431.dat
0 // back tile
1 10 109.4966 -48 100.9426 0.7071 0 -0.7071 0 1 0 0.7071 0 0.7071 2431.dat
0 STEP
0 // leaf (left): leaf [loose:leaf (left)]
1 2 -173.4972 -49.5847 36.9391 0.7049 0.0564 -0.7071 -0.0797 0.9968 0 0.7049 0.0564 0.7071 57906.dat
0 // leaf (left): brown 1x4 round-end plate [loose:leaf (left)]
1 70 -144.8519 -44.8 65.5844 0.7049 0.0564 -0.7071 -0.0797 0.9968 0 0.7049 0.0564 0.7071 77845.dat
0 // leaf (left): 2x4 jumper plate (drops into the recess) [loose:leaf (left)]
1 10 -144.4008 -36.8255 66.0355 -0.7049 0.0564 0.7071 0.0797 0.9968 0 -0.7049 0.0564 -0.7071 65509.dat
0 // leaf (left): click hinge plate (clipped to the leaf fingers) [loose:leaf (left)]
1 0 -84.2908 -77.7348 126.1455 0.7071 0.7049 -0.0564 0 -0.0797 -0.9968 -0.7071 0.7049 -0.0564 44567b.dat
0 // leaf (left): 1x2 plate with handle [loose:leaf (left)]
1 2 -89.9296 -77.0968 120.5067 -0.7071 0.7049 0.0564 0 -0.0797 0.9968 0.7071 0.7049 0.0564 2540.dat
0 // leaf (left): hose end (on handle bar) [loose:leaf (left)]
1 84 -86.1121 -97.1926 117.2531 0.7049 -0.0564 0.7071 -0.0797 -0.9968 0 0.7049 -0.0564 -0.7071 2630k01.dat
0 // leaf (left): hose end (on handle bar) [loose:leaf (left)]
1 84 -93.1832 -97.1926 124.3242 0.7049 -0.0564 0.7071 -0.0797 -0.9968 0 0.7049 -0.0564 -0.7071 2630k01.dat
0 // leaf (left): hose segment [loose:leaf (left)]
1 84 -78.5311 -123.2317 106.726 0.7049 0.5415 0.4582 -0.0797 -0.5814 0.8097 0.7049 -0.6073 -0.3666 2630k02.dat
0 // leaf (left): hose segment [loose:leaf (left)]
1 84 -67.3401 -145.8174 92.9798 0.7049 0.2495 0.664 -0.0797 -0.9023 0.4237 0.7049 -0.3516 -0.6161 2630k02.dat
0 // leaf (left): hose segment [loose:leaf (left)]
1 84 -63.1476 -173.0375 85.7077 0.7049 0.0535 0.7073 -0.0797 -0.9848 0.154 0.7049 -0.1649 -0.6899 2630k02.dat
0 // leaf (left): hose segment [loose:leaf (left)]
1 84 -63.9518 -201.1254 83.3341 0.7049 -0.1089 0.7009 -0.0797 -0.994 -0.0742 0.7049 -0.0036 -0.7093 2630k02.dat
0 // leaf (left): hose segment [loose:leaf (left)]
1 84 -69.7469 -229.8724 85.8769 0.7049 -0.2891 0.6478 -0.0797 -0.9397 -0.3326 0.7049 0.1828 -0.6854 2630k02.dat
0 // leaf (left): hose segment [loose:leaf (left)]
1 84 -81.0084 -254.2867 94.3762 0.7049 -0.5174 0.4853 -0.0797 -0.7375 -0.6706 0.7049 0.434 -0.5611 2630k02.dat
0 // leaf (left): hose segment [loose:leaf (left)]
1 84 -99.4745 -266.6469 111.4439 0.7049 -0.7063 -0.0653 -0.0797 0.0126 -0.9967 0.7049 0.7078 -0.0475 2630k02.dat
0 // leaf (left): hose segment [loose:leaf (left)]
1 84 -116.0601 -254.2867 129.4279 0.7049 -0.434 -0.5611 -0.0797 0.7375 -0.6706 0.7049 0.5174 0.4853 2630k02.dat
0 // leaf (left): hose segment [loose:leaf (left)]
1 84 -124.5594 -229.8724 140.6894 0.7049 -0.1828 -0.6854 -0.0797 0.9397 -0.3326 0.7049 0.2891 0.6478 2630k02.dat
0 // leaf (left): hose segment [loose:leaf (left)]
1 84 -127.1022 -201.1254 146.4845 0.7049 0.0036 -0.7093 -0.0797 0.994 -0.0742 0.7049 0.1089 0.7009 2630k02.dat
0 // leaf (left): hose segment [loose:leaf (left)]
1 84 -124.7286 -173.0375 147.2887 0.7049 0.1649 -0.6899 -0.0797 0.9848 0.154 0.7049 -0.0535 0.7073 2630k02.dat
0 // leaf (left): hose segment [loose:leaf (left)]
1 84 -117.4565 -145.8174 143.0962 0.7049 0.3516 -0.6161 -0.0797 0.9023 0.4237 0.7049 -0.2495 0.664 2630k02.dat
0 // leaf (left): hose segment [loose:leaf (left)]
1 84 -103.7102 -123.2317 131.9052 0.7049 0.6073 -0.3666 -0.0797 0.5814 0.8097 0.7049 -0.5415 0.4582 2630k02.dat
0 // leaf (middle): leaf [loose:leaf (middle)]
1 2 0.0006 -49.5847 -34.9244 0 0 -1 -0.0797 0.9968 0 0.9968 0.0797 0 57906.dat
0 // leaf (middle): brown 1x4 round-end plate [loose:leaf (middle)]
1 70 0.0006 -44.8 5.5862 0 0 -1 -0.0797 0.9968 0 0.9968 0.0797 0 77845.dat
0 // leaf (middle): 2x4 jumper plate (drops into the recess) [loose:leaf (middle)]
1 10 0.0006 -36.8255 6.2241 0 0 1 0.0797 0.9968 0 -0.9968 0.0797 0 65509.dat
0 // leaf (middle): click hinge plate (clipped to the leaf fingers) [loose:leaf (middle)]
1 0 0.0006 -77.7348 91.2326 1 0 0 0 -0.0797 -0.9968 0 0.9968 -0.0797 44567b.dat
0 // leaf (middle): 1x2 plate with handle [loose:leaf (middle)]
1 2 0.0006 -77.0968 83.258 -1 0 0 0 -0.0797 0.9968 0 0.9968 0.0797 2540.dat
0 // leaf (middle): hose end (on handle bar) [loose:leaf (middle)]
1 84 5.0006 -97.1926 83.6568 0 0 1 -0.0797 -0.9968 0 0.9968 -0.0797 0 2630k01.dat
0 // leaf (middle): hose end (on handle bar) [loose:leaf (middle)]
1 84 -4.9994 -97.1926 83.6568 0 0 1 -0.0797 -0.9968 0 0.9968 -0.0797 0 2630k01.dat
0 // leaf (middle): hose segment [loose:leaf (middle)]
1 84 17.8049 -123.2317 81.5736 0 0.8123 0.5833 -0.0797 -0.5814 0.8097 0.9968 -0.0465 0.0648 2630k02.dat
0 // leaf (middle): hose segment [loose:leaf (middle)]
1 84 35.4382 -145.8174 79.7668 0 0.425 0.9052 -0.0797 -0.9023 0.4237 0.9968 -0.0722 0.0339 2630k02.dat
0 // leaf (middle): hose segment [loose:leaf (middle)]
1 84 43.545 -173.0375 77.5892 0 0.1545 0.988 -0.0797 -0.9848 0.154 0.9968 -0.0788 0.0123 2630k02.dat
0 // leaf (middle): hose segment [loose:leaf (middle)]
1 84 44.6546 -201.1254 75.3421 0 -0.0745 0.9972 -0.0797 -0.994 -0.0742 0.9968 -0.0795 -0.0059 2630k02.dat
0 // leaf (middle): hose segment [loose:leaf (middle)]
1 84 38.7589 -229.8724 73.0424 0 -0.3336 0.9427 -0.0797 -0.9397 -0.3326 0.9968 -0.0752 -0.0266 2630k02.dat
0 // leaf (middle): hose segment [loose:leaf (middle)]
1 84 24.7859 -254.2867 71.0892 0 -0.6727 0.7399 -0.0797 -0.7375 -0.6706 0.9968 -0.059 -0.0536 2630k02.dat
0 // leaf (middle): hose segment [loose:leaf (middle)]
1 84 -0.3403 -266.6469 70.1004 0 -0.9999 -0.0126 -0.0797 0.0126 -0.9967 0.9968 0.001 -0.0797 2630k02.dat
0 // leaf (middle): hose segment [loose:leaf (middle)]
1 84 -24.7847 -254.2867 71.0892 0 -0.6727 -0.7399 -0.0797 0.7375 -0.6706 0.9968 0.059 -0.0536 2630k02.dat
0 // leaf (middle): hose segment [loose:leaf (middle)]
1 84 -38.7577 -229.8724 73.0424 0 -0.3336 -0.9427 -0.0797 0.9397 -0.3326 0.9968 0.0752 -0.0266 2630k02.dat
0 // leaf (middle): hose segment [loose:leaf (middle)]
1 84 -44.6534 -201.1254 75.3421 0 -0.0745 -0.9972 -0.0797 0.994 -0.0742 0.9968 0.0795 -0.0059 2630k02.dat
0 // leaf (middle): hose segment [loose:leaf (middle)]
1 84 -43.5438 -173.0375 77.5892 0 0.1545 -0.988 -0.0797 0.9848 0.154 0.9968 0.0788 0.0123 2630k02.dat
0 // leaf (middle): hose segment [loose:leaf (middle)]
1 84 -35.437 -145.8174 79.7668 0 0.425 -0.9052 -0.0797 0.9023 0.4237 0.9968 0.0722 0.0339 2630k02.dat
0 // leaf (middle): hose segment [loose:leaf (middle)]
1 84 -17.8038 -123.2317 81.5736 0 0.8123 -0.5833 -0.0797 0.5814 0.8097 0.9968 0.0465 0.0648 2630k02.dat
0 STEP
0 // katydid (right): katydid leaf [loose:katydid]
1 2 173.4972 -49.5847 36.9419 -0.7049 -0.0564 -0.7071 -0.0797 0.9968 0 0.7049 0.0564 -0.7071 57906.dat
0 // katydid (right): brown 1x4 round-end plate [loose:katydid]
1 70 144.8519 -44.8 65.5872 -0.7049 -0.0564 -0.7071 -0.0797 0.9968 0 0.7049 0.0564 -0.7071 77845.dat
0 // katydid (right): brown 1x2 round-end plate [loose:katydid]
1 70 158.4979 -35.2306 51.9412 0.7049 -0.0564 0.7071 0.0797 0.9968 0 -0.7049 0.0564 0.7071 35480.dat
0 // katydid (right): 2x2 jumper plate [loose:katydid]
1 10 130.3037 -38.4204 80.1354 0.7049 -0.0564 0.7071 0.0797 0.9968 0 -0.7049 0.0564 0.7071 87580.dat
0 // katydid (right): T-piece leg [loose:katydid]
1 0 165.0953 -26.4586 45.3438 0.7049 0.0564 -0.7071 0.0797 -0.9968 0 -0.7049 -0.0564 -0.7071 4697b.dat
0 // katydid (right): T-piece leg [loose:katydid]
1 0 150.9982 -28.0535 59.4409 0.7049 0.0564 -0.7071 0.0797 -0.9968 0 -0.7049 -0.0564 -0.7071 4697b.dat
0 // katydid (right): click hinge plate (clipped to the leaf fingers) [loose:katydid]
1 0 84.2908 -77.7348 126.1483 0.7071 -0.7049 0.0564 0 -0.0797 -0.9968 0.7071 0.7049 -0.0564 44567b.dat
0 // katydid (right): 1x2 plate with handle [loose:katydid]
1 2 89.9296 -77.0968 120.5095 -0.7071 -0.7049 -0.0564 0 -0.0797 0.9968 -0.7071 0.7049 0.0564 2540.dat
0 // katydid (right): hose end (on handle bar) [loose:katydid]
1 84 93.1832 -97.1926 124.327 -0.7049 0.0564 0.7071 -0.0797 -0.9968 0 0.7049 -0.0564 0.7071 2630k01.dat
0 // katydid (right): hose end (on handle bar) [loose:katydid]
1 84 86.1121 -97.1926 117.2559 -0.7049 0.0564 0.7071 -0.0797 -0.9968 0 0.7049 -0.0564 0.7071 2630k01.dat
0 // katydid (right): hose segment [loose:katydid]
1 84 103.7102 -123.2317 131.908 -0.7049 0.6073 0.3666 -0.0797 -0.5814 0.8097 0.7049 0.5415 0.4582 2630k02.dat
0 // katydid (right): hose segment [loose:katydid]
1 84 117.4565 -145.8174 143.099 -0.7049 0.3516 0.6161 -0.0797 -0.9023 0.4237 0.7049 0.2495 0.664 2630k02.dat
0 // katydid (right): hose segment [loose:katydid]
1 84 124.7286 -173.0375 147.2915 -0.7049 0.1649 0.6899 -0.0797 -0.9848 0.154 0.7049 0.0535 0.7073 2630k02.dat
0 // katydid (right): hose segment [loose:katydid]
1 84 127.1022 -201.1254 146.4873 -0.7049 0.0036 0.7093 -0.0797 -0.994 -0.0742 0.7049 -0.1089 0.7009 2630k02.dat
0 // katydid (right): hose segment [loose:katydid]
1 84 124.5594 -229.8724 140.6922 -0.7049 -0.1828 0.6854 -0.0797 -0.9397 -0.3326 0.7049 -0.2891 0.6478 2630k02.dat
0 // katydid (right): hose segment [loose:katydid]
1 84 116.0601 -254.2867 129.4307 -0.7049 -0.434 0.5611 -0.0797 -0.7375 -0.6706 0.7049 -0.5174 0.4853 2630k02.dat
0 // katydid (right): hose segment [loose:katydid]
1 84 98.9924 -266.6469 110.9646 -0.7049 -0.7078 0.0475 -0.0797 0.0126 -0.9967 0.7049 -0.7063 -0.0653 2630k02.dat
0 // katydid (right): hose segment [loose:katydid]
1 84 81.0084 -254.2867 94.379 -0.7049 -0.5174 -0.4853 -0.0797 0.7375 -0.6706 0.7049 -0.434 -0.5611 2630k02.dat
0 // katydid (right): hose segment [loose:katydid]
1 84 69.7469 -229.8724 85.8797 -0.7049 -0.2891 -0.6478 -0.0797 0.9397 -0.3326 0.7049 -0.1828 -0.6854 2630k02.dat
0 // katydid (right): hose segment [loose:katydid]
1 84 63.9518 -201.1254 83.337 -0.7049 -0.1089 -0.7009 -0.0797 0.994 -0.0742 0.7049 0.0036 -0.7093 2630k02.dat
0 // katydid (right): hose segment [loose:katydid]
1 84 63.1476 -173.0375 85.7105 -0.7049 0.0535 -0.7073 -0.0797 0.9848 0.154 0.7049 0.1649 -0.6899 2630k02.dat
0 // katydid (right): hose segment [loose:katydid]
1 84 67.3401 -145.8174 92.9827 -0.7049 0.2495 -0.664 -0.0797 0.9023 0.4237 0.7049 0.3516 -0.6161 2630k02.dat
0 // katydid (right): hose segment [loose:katydid]
1 84 78.5311 -123.2317 106.7289 -0.7049 0.5415 -0.4582 -0.0797 0.5814 0.8097 0.7049 0.6073 -0.3666 2630k02.dat
