0 m05
0 Name: m05.ldr
0 Author: FLL Sim

0 // right hollow frame
1 71 40 -70 0 0 -1 0 0 0 -1 1 0 0 64179.dat
0 // pin up (bottom beam)
1 0 40 -20 0 0 0 -1 -1 0 0 0 1 0 61332.dat
0 STEP
1 0 30 -10 -40 1 0 0 0 0 1 0 -1 0 61332.dat
1 0 30 -50 -40 1 0 0 0 0 1 0 -1 0 61332.dat
0 STEP
0 // 3x3 block
1 72 -1 -30 -40 1 0 0 0 0 1 0 -1 0 39793.dat
0 STEP
1 0 -32 -10 -40 -1 0 0 0 0 1 0 1 0 61332.dat
1 0 -32 -50 -40 -1 0 0 0 0 -1 0 -1 0 61332.dat
0 STEP
0 // right trunk bent liftarm
1 70 20 -90 -40 0 -1 0 0 0 -1 1 0 0 32271.dat
0 // right trunk bent liftarm
1 1 30 -90 -40 -1 0 0 0 0 1 0 1 0 43093.dat
0 // right trunk bent liftarm
1 0 30 -130 -40 1 0 0 0 0 -1 0 1 0 61332.dat
0 STEP
0 // 3L pin
1 1 0 -150 -40 1 0 0 0 0 -1 0 1 0 42924.dat
0 // 1L liftarm on 3L pin
1 70 0 -150 -40 0 -1 0 0 0 -1 1 0 0 18654.dat
0 STEP
0 // root joint
1 2 0 -234 -8 0 -1 0 -0.8 0 0.6 -0.6 0 -0.8 60483.dat
0 // root joint
1 4 10 -234 -8 1 0 0 0 -0.8 0.6 0 -0.6 -0.8 32062.dat
0 // root joint
1 1 10 -222 -24 1 0 0 0 -0.8 0.6 0 -0.6 -0.8 43093.dat
0 // root joint
1 84 40 -222 -24 0 0 1 -0.8 0.6 0 -0.6 -0.8 0 42195.dat
0 // root joint
1 1 70 -222 -24 -1 0 0 0 -0.8 -0.6 0 -0.6 0.8 43093.dat
0 STEP
0 // trunk extension
1 70 -30 -282 56 0 1 0 -0.8 0 -0.6 -0.6 0 0.8 32316.dat
0 // pin with stud
1 4 -38 -306 88 1 0 0 0 -0.8 0.6 0 -0.6 -0.8 65826.dat
0 // trunk extension
1 0 -20 -258 24 -1 0 0 0 -0.8 -0.6 0 -0.6 0.8 61332.dat
0 // trunk extension
1 0 -20 -294 72 -1 0 0 0 -0.8 -0.6 0 -0.6 0.8 61332.dat
0 // upper bent liftarm
1 70 -10 -222 -24 0 -1 0 0.8 0 -0.6 0.6 0 0.8 32271.dat
0 // white 3L axle/pin
1 15 -10 -222 -24 1 0 0 0 0.8 -0.6 0 0.6 0.8 65249.dat
0 STEP
0 // left trunk bent liftarm
1 70 -20 -90 -40 0 -1 0 0 0 -1 1 0 0 32271.dat
0 // left trunk axle/pin
1 1 -40 -90 -40 1 0 0 0 0 -1 0 1 0 43093.dat
0 // left trunk pin
1 0 -30 -130 -40 1 0 0 0 0 -1 0 1 0 61332.dat
0 STEP
1 4 -40 -234 -8 1 0 0 0 -0.8 0.6 0 -0.6 -0.8 32062.dat
0 // green 2L liftarm (left)
1 2 -40 -234 -8 0 -1 0 -0.8 0 0.6 -0.6 0 -0.8 60483.dat
0 STEP
0 // left hollow frame
1 71 -40 -70 0 0 -1 0 0 0 -1 1 0 0 64179.dat
1 0 -40 -20 0 0 0 -1 -1 0 0 0 1 0 61332.dat
0 STEP
0 // 5L stabiliser
1 70 0 -30 0 0 0 1 0 -1 0 1 0 0 32316.dat
1 0 -20 -20 0 0 0 1 1 0 0 0 1 0 61332.dat
1 0 20 -20 0 0 0 1 1 0 0 0 1 0 61332.dat
0 // 3x3 block under the stabiliser
1 72 0 -10 0 0 0 -1 0 1 0 1 0 0 39793.dat
0 STEP
0 // stud pin
1 4 40 -30 -50 0 -1 0 0 0 1 -1 0 0 65826.dat
0 // stud pin
1 4 40 -70 -50 0 -1 0 0 0 1 -1 0 0 65826.dat
0 // stud pin
1 4 40 -110 -50 0 -1 0 0 0 1 -1 0 0 65826.dat
0 // stud pin
1 4 -40 -30 -50 0 -1 0 0 0 1 -1 0 0 65826.dat
0 // stud pin
1 4 -1 -50 -50 0 1 0 0 0 -1 -1 0 0 65826.dat
0 // stud pin
1 4 -1 -10 -50 0 1 0 0 0 -1 -1 0 0 65826.dat
0 STEP
0 STEP
0 // 3x3 plate
1 2 20 -90 -52 -1 0 0 0 0 1 0 1 0 11212.dat
0 // 2x3 slope
1 70 10 -70 -76 -1 0 0 0 0 1 0 1 0 3298.dat
0 // 2x3 brick
1 70 60 -80 -76 -1 0 0 0 0 1 0 1 0 3002.dat
0 // 2x3 plate under the overhang
1 70 70 -90 -52 0 0 -1 -1 0 0 0 1 0 3021.dat
0 // 1x2 brick
1 70 70 -70 -100 -1 0 0 0 0 1 0 1 0 3004.dat
0 // curved slope
1 70 30 -70 -140 0 0 -1 -1 0 0 0 1 0 3573.dat
0 // 1x2 slope (front)
1 2 70 -110 -52 -1 0 0 0 0 1 0 1 0 85984.dat
0 // 1x2 slope
1 2 70 -90 -76 -1 0 0 0 0 1 0 1 0 85984.dat
0 STEP
0 // 4L axle (root arm hinge)
1 0 -20 -282.8 110.4 1 0 0 0 -0.96 -0.28 0 0.28 -0.96 3705.dat
0 // green 7L (back)
1 2 -30 -302.7952 110.8399 0 -1 0 0.022 0 -0.9998 0.9998 0 0.022 32524.dat
0 // blue 3L pin
1 1 -10 -362.7807 112.1594 -1 0 0 0 -0.022 -0.9998 0 -0.9998 0.022 42924.dat
0 // blue 3L pin
1 1 -10 -302.7952 110.8399 -1 0 0 0 -0.022 -0.9998 0 -0.9998 0.022 42924.dat
0 // 1L liftarm
1 70 -10 -362.7807 112.1594 0 1 0 -0.022 0 -0.9998 -0.9998 0 0.022 18654.dat
0 // 1L liftarm
1 70 -10 -302.7952 110.8399 0 1 0 -0.022 0 -0.9998 -0.9998 0 0.022 18654.dat
0 // lever
1 70 -10 -282.8 110.4 0 1 0 0.022 0 0.9998 0.9998 0 -0.022 32316.dat
0 // tan free 3L pin
1 19 -10 -322.7903 111.2797 -1 0 0 0 0.022 0.9998 0 0.9998 -0.022 39888.dat
0 // dark grey 3L axle/pin
1 72 -10 -242.8097 109.5203 -1 0 0 0 0.022 0.9998 0 0.9998 -0.022 11214.dat
0 // black pin
1 0 -20 -262.8048 109.9601 -1 0 0 0 0.022 0.9998 0 0.9998 -0.022 61332.dat
0 // green 7L (front)
1 2 10 -302.7952 110.8399 0 1 0 -0.022 0 -0.9998 -0.9998 0 0.022 32524.dat
0 STEP
0 // handle joiner
1 4 -60 -282.8 110.4 0 0 -1 -0.28 -0.96 0 -0.96 0.28 0 42195.dat
0 // handle axle
1 4 -90 -282.8 110.4 -1 0 0 0 -0.28 -0.96 0 -0.96 0.28 32062.dat
0 // handle ball
1 4 -108.87 -282.8 110.4 0 1 0 -0.28 0 -0.96 -0.96 0 0.28 32474.dat
