0 m06-07
0 Name: m06-07.ldr
0 Author: FLL Sim

0 // 6x12 base plate
1 15 28.4272 -8 194.6423 1 0 0 0 1 0 0 0 1 3028.dat
1 19 -81.5728 -32 224.6423 -1 0 0 0 1 0 0 0 -1 3040b.dat
0 STEP
1 19 -31.5728 -32 224.6423 -1 0 0 0 1 0 0 0 -1 3037.dat
1 19 18.4272 -32 224.6423 -1 0 0 0 1 0 0 0 -1 3040b.dat
1 19 68.4272 -32 224.6423 -1 0 0 0 1 0 0 0 -1 3037.dat
1 19 118.4272 -32 224.6423 -1 0 0 0 1 0 0 0 -1 3040b.dat
0 STEP
0 // green 1x1 slope, tall side front
1 2 138.4272 -8 244.6423 -1 0 0 0 1 0 0 0 -1 54200.dat
0 STEP
0 // right wall 1x8 brick
1 19 138.4272 -32 154.6423 0 0 1 0 1 0 -1 0 0 3008.dat
0 STEP
0 // 3x3 plate
1 19 -81.5728 -16 164.6423 1 0 0 0 1 0 0 0 1 11212.dat
1 19 -101.5728 -8 174.6423 0 0 1 0 1 0 -1 0 0 3023b.dat
0 STEP
0 // 2x3 under right wall
1 71 128.4272 -8 104.6423 0 0 1 0 1 0 -1 0 0 3021.dat
0 STEP
0 // grooved wall brick R
1 15 88.4272 -32 84.6423 -1 0 0 0 1 0 0 0 -1 2653.dat
0 // lower A-shaped plate
1 71 108.4272 -8 74.6423 0.7071 0 -0.7071 0 1 0 0.7071 0 0.7071 15706.dat
0 STEP
0 // 2x2 tile with 2 studs
1 15 8.4272 -8 94.6423 -1 0 0 0 1 0 0 0 -1 33909.dat
0 // 2x2 tile with 2 studs
1 15 -31.5728 -8 94.6423 -1 0 0 0 1 0 0 0 -1 33909.dat
0 // 2x2 tile with 2 studs
1 15 -71.5728 -8 94.6423 -1 0 0 0 1 0 0 0 -1 33909.dat
0 // grooved wall brick M
1 15 8.4272 -32 84.6423 -1 0 0 0 1 0 0 0 -1 2653.dat
0 // grooved wall brick L
1 15 -71.5728 -32 84.6423 -1 0 0 0 1 0 0 0 -1 2653.dat
0 STEP
1 10 -61.5728 -40 84.6423 1 0 0 0 1 0 0 0 1 78329.dat
1 19 68.4272 -40 84.6423 1 0 0 0 1 0 0 0 1 3460.dat
1 19 28.4272 -40 224.6423 1 0 0 0 1 0 0 0 1 60479.dat
1 19 138.4272 -40 154.6423 0 0 1 0 1 0 -1 0 0 3023b.dat
0 STEP
0 // small base 4x4
1 15 122.5692 -8 3.9313 0.7071 0 0.7071 0 1 0 -0.7071 0 0.7071 3031.dat
0 // 2x2 brick with pin
1 71 122.5692 -32 3.9313 -0.7071 0 0.7071 0 1 0 -0.7071 0 -0.7071 30592.dat
0 // 2x2 brick with pin
1 71 150.8535 -32 -24.353 -0.7071 0 0.7071 0 1 0 -0.7071 0 -0.7071 30592.dat
1 15 94.285 -16 32.2155 -0.7071 0 0.7071 0 1 0 -0.7071 0 -0.7071 3020.dat
1 15 157.9246 -8 -31.4241 -0.7071 0 0.7071 0 1 0 -0.7071 0 -0.7071 3710.dat
1 71 87.2139 -40 39.2866 -0.7071 0 0.7071 0 1 0 -0.7071 0 -0.7071 3004.dat
1 15 101.356 -40 -17.2819 0.7071 0 0.7071 0 1 0 -0.7071 0 0.7071 3009.dat
1 15 143.7824 -40 25.1445 0.7071 0 0.7071 0 1 0 -0.7071 0 0.7071 3009.dat
0 STEP
0 // tooth plate, tooth to the left
1 10 -81.5728 -48 224.6423 0 0 1 0 1 0 -1 0 0 15070.dat
1 19 -11.5728 -48 224.6423 1 0 0 0 1 0 0 0 1 3023b.dat
1 19 68.4272 -48 224.6423 1 0 0 0 1 0 0 0 1 3023b.dat
1 19 138.4272 -48 154.6423 0 0 1 0 1 0 -1 0 0 3460.dat
0 STEP
1 2 118.4272 -48 84.6423 1 0 0 0 1 0 0 0 1 98138.dat
0 // upper A-shaped plate
1 71 108.4272 -48 74.6423 0.7071 0 -0.7071 0 1 0 0.7071 0 0.7071 15706.dat
1 10 -21.5728 -48 84.6423 1 0 0 0 1 0 0 0 1 78329.dat
1 19 -91.5728 -48 84.6423 1 0 0 0 1 0 0 0 1 3023b.dat
0 STEP
0 // rack 2x14 plate
1 15 -31.5728 -16 114.6423 1 0 0 0 1 0 0 0 1 91988.dat
0 // rail plate 1x2
1 15 88.4272 -24 104.6423 1 0 0 0 1 0 0 0 1 32028.dat
0 // rail plate 1x8
1 15 -11.5728 -24 104.6423 1 0 0 0 1 0 0 0 1 4510.dat
0 // rail plate 1x2
1 15 -111.5728 -24 104.6423 1 0 0 0 1 0 0 0 1 32028.dat
0 STEP
0 // platform slope (slope back)
1 4 -151.5728 -40 124.6423 -1 0 0 0 1 0 0 0 -1 3039.dat
1 71 -141.5728 -16 144.6423 1 0 0 0 1 0 0 0 1 3623.dat
0 // corner tile
1 4 -121.5728 -24 124.6423 1 0 0 0 1 0 0 0 1 14719.dat
0 // platform slope (slope front)
1 4 -151.5728 -40 104.6423 1 0 0 0 1 0 0 0 1 3039.dat
1 19 -151.5728 -16 84.6423 1 0 0 0 1 0 0 0 1 3023b.dat
0 STEP
0 // rack 1x4
1 15 68.4272 -32 104.6423 1 0 0 0 1 0 0 0 1 3743.dat
0 // rack 1x4
1 15 -11.5728 -32 104.6423 1 0 0 0 1 0 0 0 1 3743.dat
0 // rack 1x4
1 15 -91.5728 -32 104.6423 1 0 0 0 1 0 0 0 1 3743.dat
0 STEP
0 // blue foot
1 1 88.4272 -8 124.6423 1 0 0 0 1 0 0 0 1 35480.dat
0 // round foot
1 71 -151.5728 -8 134.6423 1 0 0 0 1 0 0 0 1 2654a.dat
0 // round foot
1 71 -151.5728 -8 94.6423 1 0 0 0 1 0 0 0 1 2654a.dat
0 STEP
0 // 1x4 with 2 studs under B2/3x3
1 19 -101.5728 -8 114.6423 0 0 1 0 1 0 -1 0 0 41740.dat
0 STEP
0 // small base curved slope
1 15 80.1428 -72 3.9313 0.7071 0 -0.7071 0 1 0 0.7071 0 0.7071 50950.dat
0 // small base curved slope
1 15 122.5692 -72 46.3577 0.7071 0 -0.7071 0 1 0 0.7071 0 0.7071 50950.dat
0 STEP
0 // back wall 1x12 brick
1 19 28.4272 -72 224.6423 1 0 0 0 1 0 0 0 1 6112.dat
0 STEP
1 19 -81.5728 -40 174.6423 1 0 0 0 1 0 0 0 1 3002.dat
1 19 -71.5728 -64 184.6423 1 0 0 0 1 0 0 0 1 3004.dat
1 2 -101.5728 -40 184.6423 0 0 1 0 1 0 -1 0 0 54200.dat
1 19 -71.5728 -48 164.6423 1 0 0 0 1 0 0 0 1 3023b.dat
0 // 1x1 brick with hole (gear-train bearing)
1 19 -81.5728 -72 164.6423 1 0 0 0 1 0 0 0 1 6541.dat
0 STEP
0 // 2L axle connector
1 0 48.4272 -62 164.6423 0 0 1 0 1 0 -1 0 0 59443.dat
0 // 6L axle
1 4 -11.5728 -62 164.6423 1 0 0 0 1 0 0 0 1 3706.dat
0 // 5L axle
1 71 98.4272 -62 164.6423 1 0 0 0 1 0 0 0 1 32073.dat
0 // half bush
1 14 23.4272 -62 164.6423 0 0 1 0 1 0 -1 0 0 32123b.dat
0 // half bush
1 14 73.4272 -62 164.6423 0 0 1 0 1 0 -1 0 0 32123b.dat
0 // cam (tip back)
1 0 13.4272 -62 184.6423 0 0 1 1 0 0 0 1 0 6575a.dat
0 // cam (tip up)
1 0 83.4272 -82 164.6423 0 0 1 0 -1 0 1 0 0 6575a.dat
0 // bush
1 0 -1.5728 -62 164.6423 0 0 1 0 1 0 -1 0 0 3713.dat
0 // bush
1 0 98.4272 -62 164.6423 0 0 1 0 1 0 -1 0 0 3713.dat
0 // cam (tip front)
1 0 -16.5728 -62 144.6423 0 0 1 -1 0 0 0 -1 0 6575a.dat
0 // cam (tip down)
1 0 113.4272 -42 164.6423 0 0 1 0 1 0 -1 0 0 6575a.dat
0 // half bush
1 14 -26.5728 -62 164.6423 0 0 1 0 1 0 -1 0 0 32123b.dat
0 // half bush
1 14 123.4272 -62 164.6423 0 0 1 0 1 0 -1 0 0 32123b.dat
0 // 12T gear
1 0 -41.5728 -62 164.6423 0 0 1 0 1 0 -1 0 0 32270.dat
0 // 1x1 brick with hole (cam bearing L)
1 19 -61.5728 -72 164.6423 0 0 1 0 1 0 -1 0 0 6541.dat
0 // 1x2 brick with holes (cam bearing R)
1 15 138.4272 -72 154.6423 0 0 1 0 1 0 -1 0 0 32000.dat
0 STEP
0 // 2x2 curved slope over the cam bearing
1 15 -71.5728 -72 174.6423 -1 0 0 0 1 0 0 0 -1 15068.dat
0 // 1x2x1.667 curved (tall back)
1 15 138.4272 -112 144.6423 1 0 0 0 1 0 0 0 1 5907.dat
0 // 1x2x1.667 curved (tall front)
1 15 138.4272 -112 164.6423 -1 0 0 0 1 0 0 0 -1 5907.dat
0 STEP
0 // front wall 1x10 brick
1 15 48.4272 -72 84.6423 1 0 0 0 1 0 0 0 1 6111.dat
0 STEP
0 // gear-train 1x2 brick with holes
1 15 -71.5728 -72 84.6423 1 0 0 0 1 0 0 0 1 32000.dat
0 // 5L axle with stop
1 70 -81.5728 -62 124.6423 0 0 1 0 1 0 -1 0 0 15462.dat
0 // 20T gear (meshes with the rack)
1 19 -81.5728 -62 104.6423 1 0 0 0 1 0 0 0 1 18575.dat
0 // bush
1 0 -81.5728 -62 124.6423 1 0 0 0 1 0 0 0 1 3713.dat
0 // 28T gear (meshes with the 12T)
1 71 -81.5728 -62 144.6423 1 0 0 0 1 0 0 0 1 46372.dat
0 STEP
1 2 -101.5728 -48 84.6423 0 0 1 0 1 0 -1 0 0 54200.dat
0 STEP
0 // handle plate (handle right)
1 0 -151.5728 -48 124.6423 -1 0 0 0 1 0 0 0 -1 2540.dat
0 // plate with vertical bar
1 0 -161.5728 -56 114.6423 0 0 1 0 1 0 -1 0 0 88072.dat
0 // handle plate (handle left)
1 0 -151.5728 -48 104.6423 1 0 0 0 1 0 0 0 1 2540.dat
0 // round plate with bar
1 0 -141.5728 -56 104.6423 1 0 0 0 1 0 0 0 1 32828.dat
0 // round plate with bar
1 0 -141.5728 -56 124.6423 1 0 0 0 1 0 0 0 1 32828.dat
0 // 2x2 round plate
1 0 -151.5728 -64 114.6423 0 0 -1 0 1 0 1 0 0 4032a.dat
0 // abdomen socket
1 70 -181.5728 -68 114.6423 0 0 -1 0 1 0 1 0 0 85861.dat
0 // dome bottom
1 4 -181.5728 -76 114.6423 0 0 -1 0 1 0 1 0 0 15395.dat
1 0 -181.5728 -100 114.6423 0 0 -1 0 1 0 1 0 0 4032a.dat
0 // dome top
1 4 -181.5728 -124 114.6423 0 0 -1 0 1 0 1 0 0 3262.dat
0 // eye
1 70 -141.5728 -72 104.6423 0 0 -1 0 1 0 1 0 0 85861.dat
0 // eye
1 70 -141.5728 -72 124.6423 0 0 -1 0 1 0 1 0 0 85861.dat
0 // leg
1 0 -143.5728 -46 84.6423 0 0 -1 1 0 0 0 -1 0 3484.dat
0 // leg
1 0 -151.5728 -46 84.6423 0 0 -1 1 0 0 0 -1 0 3484.dat
0 // leg
1 0 -159.5728 -46 84.6423 0 0 -1 1 0 0 0 -1 0 3484.dat
0 // leg
1 0 -143.5728 -46 144.6423 0 0 -1 -1 0 0 0 1 0 3484.dat
0 // leg
1 0 -151.5728 -46 144.6423 0 0 -1 -1 0 0 0 1 0 3484.dat
0 // leg
1 0 -159.5728 -46 144.6423 0 0 -1 -1 0 0 0 1 0 3484.dat
0 // ant's leaf
1 2 -122.5728 -54 104.6423 0 -1 0 1 0 0 0 0 1 3565.dat
0 STEP
0 // nest back 1x12 plate
1 19 28.4272 -80 224.6423 1 0 0 0 1 0 0 0 1 60479.dat
1 19 -61.5728 -104 224.6423 0 0 1 0 1 0 -1 0 0 3040b.dat
0 STEP
1 2 -61.5728 -104 224.6423 0 0 1 0 1 0 -1 0 0 54200.dat
0 STEP
0 // 1x8x2 arch
1 19 -41.5728 -128 154.6423 0 0 1 0 1 0 -1 0 0 16577.dat
0 STEP
0 // nest front 1x12 plate
1 19 28.4272 -80 84.6423 1 0 0 0 1 0 0 0 1 60479.dat
1 19 -61.5728 -104 84.6423 0 0 1 0 1 0 -1 0 0 3040b.dat
1 2 -61.5728 -104 84.6423 0 0 1 0 1 0 -1 0 0 54200.dat
0 STEP
1 2 -21.5728 -88 224.6423 1 0 0 0 1 0 0 0 1 98138.dat
0 STEP
0 // 1x8x2 arch
1 19 -1.5728 -128 154.6423 0 0 1 0 1 0 -1 0 0 16577.dat
1 2 18.4272 -88 224.6423 1 0 0 0 1 0 0 0 1 98138.dat
0 STEP
0 // 1x8x2 arch
1 19 38.4272 -128 154.6423 0 0 1 0 1 0 -1 0 0 16577.dat
0 // 1x8x2 arch
1 19 58.4272 -128 154.6423 0 0 1 0 1 0 -1 0 0 16577.dat
1 2 78.4272 -88 224.6423 1 0 0 0 1 0 0 0 1 98138.dat
0 STEP
0 // 1x8x2 arch
1 19 98.4272 -128 154.6423 0 0 1 0 1 0 -1 0 0 16577.dat
1 2 118.4272 -88 224.6423 1 0 0 0 1 0 0 0 1 98138.dat
0 STEP
0 // 1x8x2 arch
1 19 138.4272 -128 154.6423 0 0 1 0 1 0 -1 0 0 16577.dat
0 STEP
0 // back 2x10 plate
1 19 48.4272 -136 194.6423 1 0 0 0 1 0 0 0 1 3832.dat
0 STEP
0 // 1x2 curved slope
1 19 -41.5728 -136 214.6423 -1 0 0 0 1 0 0 0 -1 11477.dat
0 // 1x2 curved slope
1 19 -1.5728 -136 214.6423 -1 0 0 0 1 0 0 0 -1 11477.dat
0 // 1x2 curved slope
1 19 98.4272 -136 214.6423 -1 0 0 0 1 0 0 0 -1 11477.dat
0 // 1x2 curved slope
1 19 138.4272 -136 214.6423 -1 0 0 0 1 0 0 0 -1 11477.dat
0 // 2x2 curved slope
1 15 48.4272 -136 214.6423 -1 0 0 0 1 0 0 0 -1 15068.dat
0 STEP
0 // front 2x10 plate
1 19 48.4272 -136 134.6423 1 0 0 0 1 0 0 0 1 3832.dat
0 // 1x3 curved slope
1 15 -41.5728 -160 104.6423 1 0 0 0 1 0 0 0 1 50950.dat
0 STEP
0 // slot slope (back)
1 19 -21.5728 -160 184.6423 -1 0 0 0 1 0 0 0 -1 3040b.dat
0 // slot slope (back)
1 19 18.4272 -160 184.6423 -1 0 0 0 1 0 0 0 -1 3040b.dat
0 // slot slope (back)
1 19 78.4272 -160 184.6423 -1 0 0 0 1 0 0 0 -1 3040b.dat
0 // slot slope (back)
1 19 118.4272 -160 184.6423 -1 0 0 0 1 0 0 0 -1 3040b.dat
0 STEP
0 // 1x3 tile across the slot row
1 2 -41.5728 -144 164.6423 0 0 1 0 1 0 -1 0 0 63864.dat
0 // 1x3 tile across the slot row
1 2 -1.5728 -144 164.6423 0 0 1 0 1 0 -1 0 0 63864.dat
0 // 1x3 tile across the slot row
1 2 98.4272 -144 164.6423 0 0 1 0 1 0 -1 0 0 63864.dat
0 // 1x3 tile across the slot row
1 2 138.4272 -144 164.6423 0 0 1 0 1 0 -1 0 0 63864.dat
0 // 1x3 tile across the slot row
1 2 38.4272 -144 164.6423 0 0 1 0 1 0 -1 0 0 63864.dat
0 // 1x3 tile across the slot row
1 2 58.4272 -144 164.6423 0 0 1 0 1 0 -1 0 0 63864.dat
0 STEP
0 // slot slope (front)
1 19 -21.5728 -160 144.6423 1 0 0 0 1 0 0 0 1 3040b.dat
0 // slot slope (front)
1 19 18.4272 -160 144.6423 1 0 0 0 1 0 0 0 1 3040b.dat
0 // slot slope (front)
1 19 78.4272 -160 144.6423 1 0 0 0 1 0 0 0 1 3040b.dat
0 // slot slope (front)
1 19 118.4272 -160 144.6423 1 0 0 0 1 0 0 0 1 3040b.dat
0 STEP
0 // 2x2 curved slope
1 15 48.4272 -136 114.6423 1 0 0 0 1 0 0 0 1 15068.dat
0 // 1x3 curved slope
1 15 -1.5728 -160 104.6423 1 0 0 0 1 0 0 0 1 50950.dat
0 // 1x3 curved slope
1 15 98.4272 -160 104.6423 1 0 0 0 1 0 0 0 1 50950.dat
0 // 1x3 curved slope
1 15 138.4272 -160 104.6423 1 0 0 0 1 0 0 0 1 50950.dat
0 STEP
0 // 1x2 rounded plate
1 15 48.4272 -136 84.6423 1 0 0 0 1 0 0 0 1 35480.dat
0 // glow round tile
1 329 58.4272 -144 84.6423 1 0 0 0 1 0 0 0 1 98138.dat
0 STEP
0 // cone
1 15 38.4272 -160 84.6423 1 0 0 0 1 0 0 0 1 59900.dat
0 // clear dome (glowing fungus)
1 47 38.4272 -184 84.6423 1 0 0 0 1 0 0 0 1 30367c.dat
0 STEP
0 // leaf 7L liftarm
1 2 -21.5728 -151 164.6423 0 1 0 0 0 1 1 0 0 32524.dat
0 // red 1L pin with stud
1 4 -31.5728 -211 164.6423 -1 0 0 0 0 -1 0 -1 0 65826.dat
0 // red 1L pin with stud
1 4 -31.5728 -191 164.6423 -1 0 0 0 0 -1 0 -1 0 65826.dat
0 // leaf
1 2 -39.5728 -211 164.6423 0 -1 0 0 0 1 -1 0 0 3565.dat
0 STEP
0 // leaf 7L liftarm
1 484 18.4272 -151 164.6423 0 1 0 0 0 1 1 0 0 32524.dat
0 // red 1L pin with stud
1 4 8.4272 -211 164.6423 -1 0 0 0 0 -1 0 -1 0 65826.dat
0 // red 1L pin with stud
1 4 8.4272 -191 164.6423 -1 0 0 0 0 -1 0 -1 0 65826.dat
0 // leaf
1 25 0.4272 -211 164.6423 0 -1 0 0 0 1 -1 0 0 3565.dat
0 STEP
0 // leaf 7L liftarm
1 191 78.4272 -180.9999 164.6423 0 1 0 0 0 1 1 0 0 32524.dat
0 // red 1L pin with stud
1 4 68.4272 -240.9999 164.6423 -1 0 0 0 0 -1 0 -1 0 65826.dat
0 // red 1L pin with stud
1 4 68.4272 -220.9999 164.6423 -1 0 0 0 0 -1 0 -1 0 65826.dat
0 // leaf
1 14 60.4272 -240.9999 164.6423 0 -1 0 0 0 1 -1 0 0 3565.dat
0 STEP
0 // leaf 7L liftarm
1 15 118.4272 -141 164.6423 0 1 0 0 0 1 1 0 0 32524.dat
0 // red 1L pin with stud
1 4 108.4272 -201 164.6423 -1 0 0 0 0 -1 0 -1 0 65826.dat
0 // red 1L pin with stud
1 4 108.4272 -181 164.6423 -1 0 0 0 0 -1 0 -1 0 65826.dat
0 // leaf
1 15 100.4272 -201 164.6423 0 -1 0 0 0 1 -1 0 0 3565.dat
0 STEP
0 // red 3L liftarm
1 4 122.5692 -262 -24.353 -0.7071 -0.7071 0 0 0 1 -0.7071 0.7071 0 32523.dat
0 // blue 3L pin
1 1 122.5692 -282 -24.353 0.7071 -0.7071 0 0 0 1 -0.7071 -0.7071 0 42924.dat
0 // blue 3L pin
1 1 122.5692 -242 -24.353 0.7071 -0.7071 0 0 0 1 -0.7071 -0.7071 0 42924.dat
0 // inner 3x5 L
1 15 136.7114 -282 -38.4951 0.7071 0.7071 0 0 0 1 0.7071 -0.7071 0 2477.dat
0 // inner 3x5 L
1 15 108.4271 -282 -10.2109 0.7071 0.7071 0 0 0 1 0.7071 -0.7071 0 2477.dat
0 // foot pin
1 0 143.7824 -202 -45.5662 0.7071 -0.7071 0 0 0 1 -0.7071 -0.7071 0 61332.dat
0 // foot pin
1 0 172.0667 -202 -17.2819 0.7071 -0.7071 0 0 0 1 -0.7071 -0.7071 0 61332.dat
0 // foot pin
1 0 101.356 -202 -3.1398 0.7071 -0.7071 0 0 0 1 -0.7071 -0.7071 0 61332.dat
0 // foot pin
1 0 129.6403 -202 25.1445 0.7071 -0.7071 0 0 0 1 -0.7071 -0.7071 0 61332.dat
0 // outer 3x5 L
1 15 179.1378 -282 -24.353 -0.7071 -0.7071 0 0 0 1 -0.7071 0.7071 0 2477.dat
0 // black pin (front)
1 0 186.2089 -222 -17.2819 -0.7071 0.7071 0 0 0 -1 -0.7071 -0.7071 0 61332.dat
0 // pin with bush
1 71 179.1378 -262 -24.353 0.7071 0.7071 0 0 0 1 0.7071 -0.7071 0 65304.dat
0 // white 3L liftarm
1 15 193.2799 -242 -10.2109 -0.7071 -0.7071 0 0 0 -1 0.7071 -0.7071 0 32523.dat
0 // axle pin
1 1 172.0667 -242 -17.2819 -0.7071 0.7071 0 0 0 1 0.7071 0.7071 0 43093.dat
0 // 3L axle connector
1 71 150.8535 -242 3.9313 -0.7071 0 0.7071 0 1 0 -0.7071 0 -0.7071 42195.dat
0 // axle pin
1 1 129.6403 -242 25.1445 0.7071 -0.7071 0 0 0 1 -0.7071 -0.7071 0 43093.dat
0 // outer 3x5 L
1 15 122.5692 -282 32.2155 -0.7071 -0.7071 0 0 0 1 -0.7071 0.7071 0 2477.dat
0 // black pin (front)
1 0 129.6403 -222 39.2866 -0.7071 0.7071 0 0 0 -1 -0.7071 -0.7071 0 61332.dat
0 // pin with bush
1 71 122.5692 -262 32.2155 0.7071 0.7071 0 0 0 1 0.7071 -0.7071 0 65304.dat
0 // white 3L liftarm
1 15 136.7114 -242 46.3577 -0.7071 -0.7071 0 0 0 -1 0.7071 -0.7071 0 32523.dat
0 // 5x7 hollow frame
1 71 136.7114 -102 -10.2109 -0.7071 0.7071 0 0 0 1 0.7071 0.7071 0 64179.dat
0 // grey 5L liftarm
1 71 136.7114 -182 -10.2109 0.7071 0 -0.7071 0 1 0 0.7071 0 0.7071 32316.dat
0 // blue 3L pin
1 1 150.8535 -182 -24.353 0 0.7071 -0.7071 -1 0 0 0 0.7071 0.7071 42924.dat
0 // blue 3L pin
1 1 122.5692 -182 3.9313 0 0.7071 -0.7071 -1 0 0 0 0.7071 0.7071 42924.dat
0 STEP
0 // 15L liftarm
1 15 71.6576 -202 -75.2647 0 0.7071 -0.7071 1 0 0 0 -0.7071 -0.7071 32278.dat
0 // tan 3L pin (pivot, no friction)
1 19 170.6525 -202 23.7302 -0.7071 0.6409 0.2988 0 -0.4226 0.9063 0.7071 0.6409 0.2988 39888.dat
0 // front 5L
1 71 144.5569 -238.2523 25.9189 0.6409 0.7071 0.2988 -0.4226 0 0.9063 0.6409 -0.7071 0.2988 32316.dat
0 // blue 3L pin
1 1 158.6991 -238.2523 11.7768 -0.7071 0.6409 0.2988 0 -0.4226 0.9063 0.7071 0.6409 0.2988 42924.dat
0 // 1L spacer
1 15 158.6991 -238.2523 11.7768 0.6409 0.7071 0.2988 -0.4226 0 0.9063 0.6409 -0.7071 0.2988 18654.dat
0 // back 5L
1 71 172.8412 -238.2523 -2.3653 0.6409 0.7071 0.2988 -0.4226 0 0.9063 0.6409 -0.7071 0.2988 32316.dat
0 // 7x3 bent liftarm
1 15 175.0299 -274.5046 -28.4609 -0.6409 0.7071 -0.2988 0.4226 0 -0.9063 -0.6409 -0.7071 -0.2988 32271.dat
0 // tan axle pin
1 19 167.9588 -274.5046 -21.3899 0.7071 -0.6409 0.2988 0 0.4226 0.9063 -0.7071 -0.6409 0.2988 3749.dat
0 // axle pin at arm end
1 1 118.5611 -391.4892 -99.0718 -0.7071 0.1454 0.692 0 -0.9786 0.2057 0.7071 0.1454 0.692 43093.dat
0 // black pin
1 0 132.4009 -387.3754 -85.2321 0.7071 -0.1454 0.692 0 0.9786 0.2057 -0.7071 -0.1454 0.692 61332.dat
0 // axle pin
1 1 138.0752 -365.1354 -51.2735 -0.7071 -0.6409 -0.2988 0 0.4226 -0.9063 0.7071 -0.6409 -0.2988 43093.dat
0 // 3L axle connector
1 71 116.862 -365.1354 -30.0603 0.2988 0.6409 0.7071 0.9063 -0.4226 0 0.2988 0.6409 -0.7071 42195.dat
0 // axle pin
1 1 95.6488 -365.1354 -8.8471 0.7071 0.2988 0.6409 0 0.9063 -0.4226 -0.7071 0.2988 0.6409 43093.dat
0 // 7x3 bent liftarm
1 15 118.4613 -274.5046 28.1076 -0.6409 0.7071 -0.2988 0.4226 0 -0.9063 -0.6409 -0.7071 -0.2988 32271.dat
0 // tan axle pin
1 19 125.5324 -274.5046 21.0366 -0.7071 -0.6409 -0.2988 0 0.4226 -0.9063 0.7071 -0.6409 -0.2988 3749.dat
0 // axle pin at arm end
1 1 47.8504 -391.4892 -28.3611 0.7071 0.1454 -0.692 0 -0.9786 -0.2057 -0.7071 0.1454 -0.692 43093.dat
0 // black pin
1 0 61.6902 -387.3754 -14.5214 0.7071 -0.1454 0.692 0 0.9786 0.2057 -0.7071 -0.1454 0.692 61332.dat
0 // web 7L liftarm
1 15 34.0107 -395.603 -42.2009 0.1454 0.7071 0.692 -0.9786 0 0.2057 0.1454 -0.7071 0.692 32524.dat
0 // red pin with stud (rope)
1 4 68.4589 -383.2616 6.3894 -0.7071 -0.1454 -0.692 0 0.9786 -0.2057 0.7071 -0.1454 -0.692 65826.dat
0 // black pin
1 0 -14.5796 -407.9444 -76.649 0.7071 -0.1454 0.692 0 0.9786 0.2057 -0.7071 -0.1454 0.692 61332.dat
0 // red pin with stud (clip)
1 4 13.0999 -399.7168 -48.9695 -0.7071 -0.1454 -0.692 0 0.9786 -0.2057 0.7071 -0.1454 -0.692 65826.dat
0 // clip bar
1 15 -9.5275 -399.7168 -26.3421 0.1454 0.7071 0.692 -0.9786 0 0.2057 0.1454 -0.7071 0.692 3484.dat
0 // 1L liftarm
1 15 -21.6506 -407.9444 -69.5779 -0.1454 -0.7071 0.692 0.9786 0 0.2057 -0.1454 0.7071 0.692 18654.dat
0 // web 7L liftarm
1 15 118.8635 -395.603 -127.0537 -0.1454 -0.7071 0.692 0.9786 0 0.2057 -0.1454 0.7071 0.692 32524.dat
0 // red pin with stud (rope)
1 4 167.4538 -383.2616 -92.6055 0.7071 0.1454 -0.692 0 -0.9786 -0.2057 -0.7071 0.1454 -0.692 65826.dat
0 // black pin
1 0 84.4154 -407.9444 -175.644 -0.7071 0.1454 0.692 0 -0.9786 0.2057 0.7071 0.1454 0.692 61332.dat
0 // red pin with stud (clip)
1 4 112.0949 -399.7168 -147.9645 0.7071 0.1454 -0.692 0 -0.9786 -0.2057 -0.7071 0.1454 -0.692 65826.dat
0 // clip bar
1 15 134.7223 -399.7168 -170.5919 -0.1454 -0.7071 0.692 0.9786 0 0.2057 -0.1454 0.7071 0.692 3484.dat
0 // 1L liftarm
1 15 91.4864 -407.9444 -182.715 0.1454 0.7071 0.692 -0.9786 0 0.2057 0.1454 -0.7071 0.692 18654.dat
0 // braided string (approx.)
1 15 -65.3693 -298.7379 -116.125 -0.6409 -0.7071 0.2988 0.4226 0 0.9063 -0.6409 0.7071 0.2988 76065.dat
0 // blue 3L pin (handle)
1 1 -27.3374 -202 -174.2596 -0.7071 0 0.7071 0 -1 0 0.7071 0 0.7071 42924.dat
0 // red pin connector
1 4 -6.1242 -202 -195.4729 0.7071 0 0.7071 0 1 0 -0.7071 0 0.7071 62462.dat
0 // axle pin
1 1 8.0179 -202 -209.615 0.7071 0 0.7071 0 1 0 -0.7071 0 0.7071 43093.dat
0 // red ball
1 4 14.5587 -202 -216.1557 0 -0.7071 0.7071 1 0 0 0 0.7071 0.7071 32474.dat
0 // red pin connector
1 4 -48.5506 -202 -153.0464 0.7071 0 0.7071 0 1 0 -0.7071 0 0.7071 62462.dat
0 // axle pin
1 1 -62.6927 -202 -138.9043 -0.7071 0 -0.7071 0 1 0 0.7071 0 -0.7071 43093.dat
0 // red ball
1 4 -69.2335 -202 -132.3636 0 0.7071 -0.7071 1 0 0 0 -0.7071 -0.7071 32474.dat
0 // stop pin
1 0 92.8708 -202 -39.9094 -0.7071 0 0.7071 0 -1 0 0.7071 0 0.7071 61332.dat
0 // stop 1L liftarm
1 15 85.7997 -202 -32.8383 0 0.7071 -0.7071 1 0 0 0 -0.7071 -0.7071 18654.dat
