0 m08-09
0 Name: m08-09.ldr
0 Author: FLL Sim

0 // lower trunk panel A
1 70 -20 -130 -40 0 1 0 0 0 -1 -1 0 0 11954.dat
0 STEP
0 // 4-pin cross block
1 71 0 -190 -40 0 0 -1 0 1 0 1 0 0 65489.dat
0 // 4-pin cross block
1 71 0 -70 -40 0 0 -1 0 1 0 1 0 0 65489.dat
0 STEP
0 // lower trunk panel B
1 70 20 -130 -40 0 -1 0 0 0 1 -1 0 0 11954.dat
0 STEP
1 0 60 -210 -10 0 1 0 0 0 1 1 0 0 61332.dat
1 0 60 -170 -10 0 1 0 0 0 1 1 0 0 61332.dat
0 // green 3L liftarm
1 10 60 -190 0 1 0 0 0 0 -1 0 1 0 32523.dat
1 0 -60 -210 -10 0 1 0 0 0 1 1 0 0 61332.dat
1 0 -60 -170 -10 0 1 0 0 0 1 1 0 0 61332.dat
0 // green 3L liftarm
1 10 -60 -190 0 1 0 0 0 0 -1 0 1 0 32523.dat
0 STEP
0 // camera trap lever
1 4 -60 -150 0 -1 0 0 0 0 1 0 1 0 2477.dat
0 // camera trap lever
1 0 -80 -80 0 0 0 1 -1 0 0 0 -1 0 61332.dat
0 // camera trap lever
1 0 -50 -130 0 -1 0 0 0 0 -1 0 -1 0 61332.dat
0 // camera trap lever
1 0 -80 -90 0 0 0 1 0 1 0 -1 0 0 18654.dat
0 // camera trap lever
1 0 -40 -130 0 0 1 0 0 0 -1 -1 0 0 18654.dat
0 // tan 3L pin (pivot)
1 19 -60 -70 0 0 1 0 0 0 1 1 0 0 39888.dat
0 // camera trap lever
1 4 -60 -150 10 0 0 1 0 -1 0 1 0 0 89678.dat
0 // camera trap lever
1 4 -60 -110 10 0 0 1 0 -1 0 1 0 0 89678.dat
0 // camera
1 0 -55.7861 -168 19.3252 0 -0.5 -0.866 -1 0 0 0 0.866 -0.5 30089b.dat
0 STEP
1 0 60 -50 -10 0 -1 0 0 0 -1 1 0 0 61332.dat
1 0 20 -150 -30 0 1 0 0 0 1 1 0 0 61332.dat
1 10 60 -50 10 0 -1 0 0 0 -1 1 0 0 62462.dat
1 10 20 -150 -10 0 1 0 0 0 1 1 0 0 62462.dat
0 STEP
1 0 60 -50 30 0 -1 0 0 0 -1 1 0 0 61332.dat
1 0 60 -190 10 0 1 0 0 0 -1 -1 0 0 61332.dat
0 STEP
0 // lower trunk panel C
1 70 -20 -130 60 0 1 0 0 0 1 1 0 0 11954.dat
0 // lower trunk half 2
1 1 -60 -190 20 0 -1 0 0 0 1 -1 0 0 42924.dat
0 // lower trunk half 2
1 0 -60 -50 30 0 1 0 0 0 -1 -1 0 0 61332.dat
0 // lower trunk half 2
1 0 -60 -90 30 0 1 0 0 0 -1 -1 0 0 61332.dat
0 // green 3L liftarm
1 10 -60 -70 20 1 0 0 0 0 1 0 -1 0 32523.dat
0 // lower trunk half 2
1 10 -60 -190 20 -1 0 0 0 0 1 0 1 0 18654.dat
0 // lower trunk half 2
1 1 0 -50 60 1 0 0 0 0 -1 0 1 0 42924.dat
0 // lower trunk half 2
1 1 0 -130 60 1 0 0 0 0 -1 0 1 0 42924.dat
0 // lower trunk half 2
1 1 0 -210 60 1 0 0 0 0 -1 0 1 0 42924.dat
0 // lower trunk half 2
1 71 0 -50 60 0 -1 0 0 0 1 -1 0 0 18654.dat
0 // lower trunk half 2
1 10 0 -130 60 0 -1 0 0 0 1 -1 0 0 18654.dat
0 // lower trunk half 2
1 10 0 -210 60 0 1 0 0 0 -1 -1 0 0 18654.dat
0 // lower trunk panel D
1 70 20 -130 60 0 -1 0 0 0 -1 1 0 0 11954.dat
0 // lower trunk half 2
1 0 60 -210 30 0 -1 0 0 0 1 -1 0 0 61332.dat
0 // lower trunk half 2
1 0 60 -90 30 0 1 0 0 0 -1 -1 0 0 61332.dat
0 // dark orange 7L liftarm
1 484 60 -150 20 1 0 0 0 0 -1 0 1 0 32524.dat
0 STEP
0 // root 11L
1 70 80 -10 60 0 0 -1 0 1 0 1 0 0 32525.dat
0 // front root
1 0 20 -20 60 0 0 -1 1 0 0 0 -1 0 61332.dat
0 // front root
1 0 0 -20 60 0 0 -1 1 0 0 0 -1 0 61332.dat
0 // front root
1 0 -20 -20 60 0 0 -1 -1 0 0 0 1 0 61332.dat
0 // grey 2L liftarm
1 71 0 -30 70 1 0 0 0 1 0 0 0 1 43857.dat
0 // front root
1 0 0 -20 80 0 1 0 -1 0 0 0 0 1 61332.dat
0 // root bent liftarm
1 70 -20 -10 80 0 0 1 0 -1 0 1 0 0 32271.dat
0 // red 1/2 pin with stud
1 4 40 -20 80 0 1 0 -1 0 0 0 0 1 89678.dat
0 // red 1/2 pin with stud
1 4 20 -20 80 0 1 0 -1 0 0 0 0 1 89678.dat
0 // red 1/2 pin with stud
1 4 100 -20 60 0 -1 0 -1 0 0 0 0 -1 89678.dat
0 // red 1/2 pin with stud
1 4 80 -20 60 0 -1 0 -1 0 0 0 0 -1 89678.dat
0 // green quarter-round plate
1 2 20 -28 40 1 0 0 0 1 0 0 0 1 68568.dat
0 // green curved slope
1 2 70 -20 50 0 0 -1 0 1 0 1 0 0 15068.dat
0 // green curved slope
1 2 30 -20 90 -1 0 0 0 1 0 0 0 -1 15068.dat
0 // brown side-stud brick
1 70 10 -10 100 0 1 0 0 0 1 1 0 0 32952.dat
0 // brown 1x1 slope
1 70 10 -10 100 0 1 0 0 0 1 1 0 0 54200.dat
0 // brown side-stud brick
1 70 110 -10 40 0 -1 0 0 0 1 -1 0 0 32952.dat
0 // brown 1x1 slope
1 70 110 -10 40 0 -1 0 0 0 1 -1 0 0 54200.dat
0 // root 11L
1 70 -80 -10 -40 0 0 1 0 1 0 -1 0 0 32525.dat
0 // back root
1 0 -20 -20 -40 0 0 1 1 0 0 0 1 0 61332.dat
0 // back root
1 0 0 -20 -40 0 0 1 1 0 0 0 1 0 61332.dat
0 // back root
1 0 20 -20 -40 0 0 1 -1 0 0 0 -1 0 61332.dat
0 // grey 2L liftarm
1 71 0 -30 -50 -1 0 0 0 1 0 0 0 -1 43857.dat
0 // back root
1 0 0 -20 -60 0 -1 0 -1 0 0 0 0 -1 61332.dat
0 // root bent liftarm
1 70 20 -10 -60 0 0 -1 0 -1 0 -1 0 0 32271.dat
0 // red 1/2 pin with stud
1 4 -40 -20 -60 0 -1 0 -1 0 0 0 0 -1 89678.dat
0 // red 1/2 pin with stud
1 4 -20 -20 -60 0 -1 0 -1 0 0 0 0 -1 89678.dat
0 // red 1/2 pin with stud
1 4 -100 -20 -40 0 1 0 -1 0 0 0 0 1 89678.dat
0 // red 1/2 pin with stud
1 4 -80 -20 -40 0 1 0 -1 0 0 0 0 1 89678.dat
0 // green quarter-round plate
1 2 -20 -28 -20 -1 0 0 0 1 0 0 0 -1 68568.dat
0 // green curved slope
1 2 -70 -20 -30 0 0 1 0 1 0 -1 0 0 15068.dat
0 // green curved slope
1 2 -30 -20 -70 1 0 0 0 1 0 0 0 1 15068.dat
0 // brown side-stud brick
1 70 -10 -10 -80 0 -1 0 0 0 1 -1 0 0 32952.dat
0 // brown 1x1 slope
1 70 -10 -10 -80 0 -1 0 0 0 1 -1 0 0 54200.dat
0 // brown side-stud brick
1 70 -110 -10 -20 0 1 0 0 0 1 1 0 0 32952.dat
0 // brown 1x1 slope
1 70 -110 -10 -20 0 1 0 0 0 1 1 0 0 54200.dat
0 STEP
0 // root 7L
1 484 -40 -10 80 -1 0 0 0 1 0 0 0 -1 32524.dat
0 // small root 1
1 0 -40 -20 20 0 1 0 1 0 0 0 0 -1 61332.dat
0 // red 2L crosspiece
1 4 -50 -30 20 0 0 -1 0 1 0 1 0 0 43857.dat
0 // small root 1
1 0 -60 -20 20 0 0 -1 -1 0 0 0 1 0 61332.dat
0 // front 7L
1 484 -60 -10 40 -1 0 0 0 1 0 0 0 -1 32524.dat
0 // small root 1
1 0 -60 -20 40 0 1 0 1 0 0 0 0 -1 61332.dat
0 // small root 1
1 0 -60 -20 -20 0 1 0 1 0 0 0 0 -1 61332.dat
0 // red 1/2 pin with stud
1 4 -60 -20 100 0 0 1 -1 0 0 0 -1 0 89678.dat
0 // red 1/2 pin with stud
1 4 -60 -20 80 0 0 1 -1 0 0 0 -1 0 89678.dat
0 // red 1/2 pin with stud
1 4 -40 -20 100 0 0 1 -1 0 0 0 -1 0 89678.dat
0 // red 1/2 pin with stud
1 4 -40 -20 80 0 0 1 -1 0 0 0 -1 0 89678.dat
0 // green quarter-round plate
1 2 -40 -28 40 0 0 -1 0 1 0 1 0 0 68568.dat
0 // brown 1x2 side-stud brick
1 70 -110 -10 50 0 1 0 0 0 1 1 0 0 22885.dat
0 // green curved slope
1 2 -90 -20 50 0 0 1 0 1 0 -1 0 0 15068.dat
0 // green curved slope
1 2 -50 -20 90 -1 0 0 0 1 0 0 0 -1 15068.dat
0 // green 1x2 slope
1 2 -110 -10 50 0 1 0 0 0 1 1 0 0 85984.dat
0 // root 11L
1 70 40 -10 -60 1 0 0 0 1 0 0 0 1 32525.dat
0 // small root 2
1 0 40 -20 0 0 -1 0 1 0 0 0 0 1 61332.dat
0 // green 3L crosspiece
1 10 60 -30 0 0 0 1 0 1 0 -1 0 0 32523.dat
0 // small root 2
1 0 60 -20 0 0 0 1 -1 0 0 0 -1 0 61332.dat
0 // front 7L
1 484 60 -10 -20 -1 0 0 0 -1 0 0 0 1 32524.dat
0 // small root 2
1 0 60 -20 -20 0 1 0 -1 0 0 0 0 1 61332.dat
0 // small root 2
1 0 60 -20 40 0 1 0 -1 0 0 0 0 1 61332.dat
0 // red 1/2 pin with stud
1 4 60 -20 -80 0 0 1 -1 0 0 0 -1 0 89678.dat
0 // red 1/2 pin with stud
1 4 60 -20 -60 0 0 1 -1 0 0 0 -1 0 89678.dat
0 // red 1/2 pin with stud
1 4 40 -20 -80 0 0 -1 -1 0 0 0 1 0 89678.dat
0 // red 1/2 pin with stud
1 4 40 -20 -60 0 0 -1 -1 0 0 0 1 0 89678.dat
0 // small root 2
1 0 80 -20 0 0 0 1 -1 0 0 0 -1 0 61332.dat
0 // lime axle/pin cross block
1 27 80 -10 0 -1 0 0 0 0 -1 0 -1 0 42003.dat
0 // red 1/2 pin with stud
1 4 80 -20 -20 0 0 -1 -1 0 0 0 1 0 89678.dat
0 // green quarter-round plate
1 2 40 -28 -20 0 0 1 0 1 0 -1 0 0 68568.dat
0 // green curved slope
1 2 50 -20 -70 1 0 0 0 1 0 0 0 1 15068.dat
0 STEP
1 1 -20 -250 -40 0 0 1 -1 0 0 0 -1 0 42924.dat
1 1 20 -250 -40 0 0 1 -1 0 0 0 -1 0 42924.dat
1 1 -20 -250 60 0 0 -1 -1 0 0 0 1 0 42924.dat
1 1 20 -250 60 0 0 -1 -1 0 0 0 1 0 42924.dat
0 STEP
0 // nougat 3L
1 92 0 -250 -40 0 0 -1 0 -1 0 -1 0 0 32523.dat
0 // green 3L
1 10 0 -250 60 0 0 -1 0 1 0 1 0 0 32523.dat
0 STEP
0 // 3L axle/pin
1 72 -60 -250 -20 0 0 1 -1 0 0 0 -1 0 11214.dat
0 // brown 1L
1 70 -60 -250 -20 0 0 1 0 1 0 -1 0 0 18654.dat
0 // 3L axle/pin
1 72 60 -250 -20 0 0 1 -1 0 0 0 -1 0 11214.dat
0 // brown 1L
1 70 60 -250 -20 0 0 1 0 1 0 -1 0 0 18654.dat
0 // 3L axle/pin
1 72 -60 -250 40 0 0 -1 -1 0 0 0 1 0 11214.dat
0 // brown 1L
1 70 -60 -250 40 0 0 -1 0 1 0 1 0 0 18654.dat
0 // 3L axle/pin
1 72 60 -250 40 0 0 -1 -1 0 0 0 1 0 11214.dat
0 // brown 1L
1 70 60 -250 40 0 0 -1 0 1 0 1 0 0 18654.dat
0 STEP
0 // upper trunk panel E
1 70 20 -370 -40 0 -1 0 0 0 1 -1 0 0 11954.dat
0 // 4-pin cross block
1 71 0 -310 -40 0 0 1 0 -1 0 1 0 0 65489.dat
0 // 4-pin cross block
1 71 0 -430 -40 0 0 1 0 -1 0 1 0 0 65489.dat
0 // upper trunk panel F
1 70 -20 -370 -40 0 1 0 0 0 -1 -1 0 0 11954.dat
0 // upper trunk
1 0 60 -310 -10 0 -1 0 0 0 -1 1 0 0 61332.dat
0 // green pin joiner
1 10 60 -310 10 0 -1 0 0 0 -1 1 0 0 62462.dat
0 // upper trunk
1 0 60 -310 30 0 -1 0 0 0 -1 1 0 0 61332.dat
0 // red 1/2 pin with stud
1 4 20 -310 -30 0 0 -1 0 1 0 1 0 0 89678.dat
0 // red 1/2 pin with stud
1 4 -20 -310 -30 0 0 -1 0 1 0 1 0 0 89678.dat
0 // 1x1 flower plate
1 353 20 -310 -26 -1 0 0 0 0 -1 0 -1 0 24866.dat
0 // 1x1 flower plate
1 27 -20 -310 -26 -1 0 0 0 0 -1 0 -1 0 24866.dat
0 // tan 3L pin (red lever pivot)
1 19 20 -350 -20 0 -1 0 0 0 -1 1 0 0 39888.dat
0 // upper trunk
1 0 20 -390 -30 0 1 0 0 0 1 1 0 0 61332.dat
0 // upper trunk
1 0 20 -430 -30 0 1 0 0 0 1 1 0 0 61332.dat
0 // upper trunk
1 0 -20 -350 -30 0 -1 0 0 0 -1 1 0 0 61332.dat
0 // tan 3L pin (branch pivot)
1 19 -20 -390 -20 0 1 0 0 0 1 1 0 0 39888.dat
0 // upper trunk
1 0 -20 -430 -30 0 1 0 0 0 1 1 0 0 61332.dat
0 // brown 15L (tallest)
1 70 20 -490 -20 -1 0 0 0 0 -1 0 -1 0 32278.dat
0 // brown 11L
1 70 -20 -450 -20 -1 0 0 0 0 1 0 1 0 32525.dat
0 // upper trunk
1 0 60 -450 -10 0 1 0 0 0 1 1 0 0 61332.dat
0 // upper trunk
1 0 60 -410 -10 0 1 0 0 0 1 1 0 0 61332.dat
0 // nougat 3L
1 92 60 -430 0 1 0 0 0 0 -1 0 1 0 32523.dat
0 // upper trunk
1 0 60 -430 10 0 1 0 0 0 -1 -1 0 0 61332.dat
0 // red 7L lever
1 4 60 -350 0 0 0 1 1 0 0 0 1 0 32524.dat
0 // red 1/2 pin with stud
1 4 0 -350 10 0 -1 0 0 0 -1 1 0 0 89678.dat
0 // branch bent liftarm
1 70 -20 -350 0 -1 0 0 0 0 -1 0 -1 0 32271.dat
0 // red 1/2 pin with stud
1 4 -20 -370 10 0 0 -1 0 1 0 1 0 0 89678.dat
0 // red 2L axle
1 4 -52 -494 10 0 0.6 0.8 0 -0.8 0.6 1 0 0 32062.dat
0 // axle connector with axle
1 0 -52 -494 20 0 -0.8 0.6 0 -0.6 -0.8 1 0 0 6553.dat
0 // yellow half bush
1 14 -72 -509 20 0 -0.6 0.8 0 0.8 0.6 -1 0 0 32123b.dat
0 // angle connector #3
1 308 -100 -530 20 -0.6 0 -0.8 0.8 0 -0.6 0 -1 0 32016.dat
0 // axle
1 14 -129.5541 -552.1656 35.3176 -0.7394 -0.4588 0.4928 -0.5546 0 -0.8321 0.3818 -0.8886 -0.2544 4519.dat
0 // upper trunk
1 0 -60 -410 -10 0 1 0 0 0 1 1 0 0 61332.dat
0 // upper trunk
1 0 -60 -330 -10 0 -1 0 0 0 -1 1 0 0 61332.dat
0 // brown 5L
1 70 -60 -370 0 1 0 0 0 0 1 0 -1 0 32316.dat
0 // upper trunk
1 0 -60 -350 10 0 1 0 0 0 1 1 0 0 61332.dat
0 // upper trunk
1 0 -60 -370 10 0 1 0 0 0 1 1 0 0 61332.dat
0 // upper trunk panel G
1 70 -20 -370 60 0 1 0 0 0 1 1 0 0 11954.dat
0 // upper trunk half 2
1 1 0 -450 60 1 0 0 0 0 -1 0 1 0 42924.dat
0 // upper trunk half 2
1 1 0 -370 60 1 0 0 0 0 -1 0 1 0 42924.dat
0 // upper trunk half 2
1 1 0 -290 60 1 0 0 0 0 -1 0 1 0 42924.dat
0 // green 1L spacer
1 10 0 -450 60 0 1 0 0 0 -1 -1 0 0 18654.dat
0 // green 1L spacer
1 10 0 -370 60 0 -1 0 0 0 1 -1 0 0 18654.dat
0 // green 1L spacer
1 10 0 -290 60 0 -1 0 0 0 1 -1 0 0 18654.dat
0 // upper trunk panel H
1 70 20 -370 60 0 -1 0 0 0 -1 1 0 0 11954.dat
0 // red 1/2 pin with stud
1 4 20 -480 60 0 1 0 -1 0 0 0 0 1 89678.dat
0 // red 1/2 pin with stud
1 4 -20 -310 70 0 0 1 0 -1 0 1 0 0 89678.dat
0 // red 1/2 pin with stud
1 4 -20 -350 70 0 0 1 0 -1 0 1 0 0 89678.dat
0 // red 1/2 pin with stud
1 4 -20 -390 70 0 0 -1 0 1 0 1 0 0 89678.dat
0 // red 1/2 pin with stud
1 4 20 -310 70 0 0 1 0 -1 0 1 0 0 89678.dat
0 // red 1/2 pin with stud
1 4 20 -350 70 0 0 1 0 -1 0 1 0 0 89678.dat
0 // red 1/2 pin with stud
1 4 20 -390 70 0 0 -1 0 1 0 1 0 0 89678.dat
0 // upper trunk half 2
1 0 -60 -330 30 0 1 0 0 0 -1 -1 0 0 61332.dat
0 // upper trunk half 2
1 0 -60 -290 30 0 1 0 0 0 -1 -1 0 0 61332.dat
0 // upper trunk half 2
1 0 60 -450 30 0 -1 0 0 0 1 -1 0 0 61332.dat
0 // upper trunk half 2
1 0 60 -410 30 0 -1 0 0 0 1 -1 0 0 61332.dat
0 // brown cross block 3x2
1 70 80 -430 20 0 -1 0 1 0 0 0 0 1 63869.dat
0 // brown 5L
1 70 -60 -330 20 1 0 0 0 0 -1 0 1 0 32316.dat
0 // red 2L axle
1 4 80 -440 20 0 1 0 1 0 0 0 0 -1 32062.dat
0 // angle connector #5
1 288 80 -470 20 0 -1 0 0 0 -1 1 0 0 32015.dat
0 // axle connector with axle
1 0 135.4278 -492.9528 20 0 -0.9243 -0.3818 0 0.3818 -0.9243 1 0 0 6553.dat
0 // yellow half bush
1 14 112.3213 -483.4088 20 0 -0.3818 0.9243 0 -0.9243 -0.3818 1 0 0 32123b.dat
0 // green 3-prong bar
1 10 129.023 -490.3073 -8.5563 0.6536 -0.6536 0.3818 -0.2699 0.2699 0.9243 -0.7071 -0.7071 0 68211.dat
0 // trans-yellow flower
1 46 135.4278 -492.9528 10 0.3818 0 -0.9243 0.9243 0 0.3818 0 -1 0 5904.dat
0 // upper trunk
1 0 60 -490 -20 0 0 -1 1 0 0 0 -1 0 61332.dat
0 // green 1L
1 10 60 -490 -20 0 0 -1 0 -1 0 -1 0 0 18654.dat
0 // upper trunk
1 0 60 -490 40 0 0 1 1 0 0 0 1 0 61332.dat
0 // green 1L
1 10 60 -490 40 0 0 1 0 -1 0 1 0 0 18654.dat
0 // dark green crown (flower)
1 288 20 -488 60 -1 0 0 0 1 0 0 0 -1 39262.dat
0 // green frog
1 2 20 -488 60 -1 0 0 0 1 0 0 0 -1 33320.dat
0 // upper trunk
1 0 20 -630 -10 0 1 0 0 0 1 1 0 0 61332.dat
0 // upper trunk
1 0 20 -610 -10 0 1 0 0 0 1 1 0 0 61332.dat
0 // lime 2x4 L liftarm
1 27 -40 -630 0 0 0 1 1 0 0 0 1 0 32140.dat
0 STEP
0 // branch bent liftarm 1
1 70 116 -662 -40 0.6 0 -0.8 0.8 0 0.6 0 -1 0 32271.dat
0 // blue axle/pin
1 1 20 -550 -30 0 0 1 0 1 0 -1 0 0 43093.dat
0 // black pin
1 0 20 -590 -30 0 0 -1 0 1 0 1 0 0 61332.dat
0 // red 1/2 pin with stud
1 4 52 -614 -30 0 0.8 0.6 0 -0.6 0.8 1 0 0 89678.dat
0 // dark grey axle/pin
1 72 116 -662 -20 0 0 1 0 1 0 -1 0 0 11214.dat
0 // blue axle/pin
1 1 84 -638 -30 0 0 -1 0 1 0 1 0 0 43093.dat
0 // branch bent liftarm 2
1 70 231.2 -628.4 -20 -0.28 0 -0.96 0.96 0 -0.28 0 -1 0 32271.dat
0 STEP
1 1 0 -50 -60 0 0 1 0 -1 0 1 0 0 42924.dat
0 // green 1L
1 10 0 -50 -60 0 0 1 -1 0 0 0 -1 0 18654.dat
1 1 0 -450 -60 0 0 -1 0 1 0 1 0 0 42924.dat
0 // green 1L
1 10 0 -450 -60 0 0 -1 1 0 0 0 -1 0 18654.dat
1 1 0 -330 -60 0 0 -1 0 1 0 1 0 0 42924.dat
0 // green 1L
1 10 0 -330 -60 0 0 -1 1 0 0 0 -1 0 18654.dat
1 1 0 -290 -60 0 0 -1 0 1 0 1 0 0 42924.dat
0 // green 1L
1 10 0 -290 -60 0 0 -1 1 0 0 0 -1 0 18654.dat
0 STEP
0 // brown 15L (front)
1 70 0 -150 -80 1 0 0 0 0 -1 0 1 0 32278.dat
0 STEP
0 // yellow T liftarm
1 14 0 -490 -60 1 0 0 0 0 -1 0 1 0 60484.dat
0 // black pin
1 0 0 -530 -70 0 0 -1 0 1 0 1 0 0 61332.dat
0 // black pin
1 0 0 -490 -70 0 0 -1 0 1 0 1 0 0 61332.dat
0 // brown 11L (front)
1 70 0 -430 -80 1 0 0 0 0 -1 0 1 0 32525.dat
0 STEP
0 // branch bent liftarm 1
1 70 -116 -622 0 -0.6 0 0.8 0.8 0 0.6 0 1 0 32271.dat
0 // blue axle/pin
1 1 -20 -510 -10 0 0 -1 0 1 0 1 0 0 43093.dat
0 // black pin
1 0 -20 -550 -10 0 0 1 0 1 0 -1 0 0 61332.dat
0 // dark grey axle/pin
1 72 -116 -622 -20 0 0 -1 0 1 0 1 0 0 11214.dat
0 // blue axle/pin
1 1 -84 -598 -10 0 0 1 0 1 0 -1 0 0 43093.dat
0 // branch bent liftarm 2
1 70 -231.2 -588.4 -20 0.28 0 0.96 0.96 0 -0.28 0 1 0 32271.dat
0 STEP
0 // red 1/2 pin with stud
1 4 -20 -190 70 0 0 -1 0 1 0 1 0 0 89678.dat
0 // red 1/2 pin with stud
1 4 20 -190 70 0 0 -1 0 1 0 1 0 0 89678.dat
0 STEP
0 // platform back 15L
1 71 80 -187 -218 0 1 0 0.8 0 -0.6 -0.6 0 -0.8 32278.dat
0 // research platform [loose:research platform~]
1 0 70 -115 -122 1 0 0 0 0.8 0.6 0 -0.6 0.8 61332.dat
0 // research platform [loose:research platform~]
1 0 70 -139 -154 1 0 0 0 0.8 0.6 0 -0.6 0.8 61332.dat
0 // blue 3L pin
1 1 100 -271 -330 1 0 0 0 0.8 0.6 0 -0.6 0.8 42924.dat
0 // tan 1L
1 19 100 -271 -330 0 1 0 -0.6 0 -0.8 -0.8 0 0.6 18654.dat
0 // handle red L liftarm
1 4 60 -139 -154 0 1 0 -0.8 0 0.6 0.6 0 0.8 2477.dat
0 // blue 3L pin
1 1 40 -91 -90 -1 0 0 0 0.8 -0.6 0 -0.6 -0.8 42924.dat
0 // blue 3L pin
1 1 40 -123 -66 -1 0 0 0 0.8 -0.6 0 -0.6 -0.8 42924.dat
0 // dark grey 3L
1 72 40 -107 -78 0 1 0 0.6 0 0.8 0.8 0 -0.6 32523.dat
0 // red 5L
1 4 20 -107 -78 0 1 0 0.6 0 0.8 0.8 0 -0.6 32316.dat
0 // dark grey 3x7 panel
1 72 0 -163 -186 1 0 0 0 -0.8 -0.6 0 0.6 -0.8 71709.dat
0 // research platform [loose:research platform~]
1 0 70 -151 -170 1 0 0 0 0.8 0.6 0 -0.6 0.8 61332.dat
0 // research platform [loose:research platform~]
1 0 -70 -151 -170 1 0 0 0 0.8 0.6 0 -0.6 0.8 61332.dat
0 // research platform [loose:research platform~]
1 0 70 -175 -202 1 0 0 0 0.8 0.6 0 -0.6 0.8 61332.dat
0 // research platform [loose:research platform~]
1 0 -70 -175 -202 1 0 0 0 0.8 0.6 0 -0.6 0.8 61332.dat
0 // platform front 15L
1 71 -80 -187 -218 0 1 0 0.8 0 -0.6 -0.6 0 -0.8 32278.dat
0 // handle red L liftarm
1 4 -60 -139 -154 0 1 0 -0.8 0 0.6 0.6 0 0.8 2477.dat
0 // blue 3L pin
1 1 -40 -91 -90 1 0 0 0 0.8 0.6 0 -0.6 0.8 42924.dat
0 // blue 3L pin
1 1 -40 -123 -66 1 0 0 0 0.8 0.6 0 -0.6 0.8 42924.dat
0 // dark grey 3L
1 72 -40 -107 -78 0 1 0 0.6 0 0.8 0.8 0 -0.6 32523.dat
0 // red 5L
1 4 -20 -107 -78 0 1 0 0.6 0 0.8 0.8 0 -0.6 32316.dat
0 // research platform [loose:research platform~]
1 0 -70 -115 -122 1 0 0 0 0.8 0.6 0 -0.6 0.8 61332.dat
0 // research platform [loose:research platform~]
1 0 -70 -139 -154 1 0 0 0 0.8 0.6 0 -0.6 0.8 61332.dat
0 // blue 3L pin
1 1 -100 -271 -330 -1 0 0 0 0.8 -0.6 0 -0.6 -0.8 42924.dat
0 // tan 1L
1 19 -100 -271 -330 0 1 0 -0.6 0 -0.8 -0.8 0 0.6 18654.dat
0 // research platform [loose:research platform~]
1 0 60 -135 -132 0 1 0 -0.8 0 0.6 0.6 0 0.8 61332.dat
0 // research platform [loose:research platform~]
1 0 -60 -135 -132 0 1 0 -0.8 0 0.6 0.6 0 0.8 61332.dat
0 // yellow 7L
1 14 0 -143 -126 0 0 1 -0.6 0.8 0 -0.8 -0.6 0 32524.dat
0 // blue 3L pin
1 1 40 -175 -202 0 1 0 0.8 0 -0.6 -0.6 0 -0.8 42924.dat
0 // tan 1L
1 19 40 -159 -214 0 0 1 -0.6 0.8 0 -0.8 -0.6 0 18654.dat
0 // blue 3L pin
1 1 -40 -175 -202 0 1 0 0.8 0 -0.6 -0.6 0 -0.8 42924.dat
0 // tan 1L
1 19 -40 -159 -214 0 0 1 -0.6 0.8 0 -0.8 -0.6 0 18654.dat
0 // hollow frame 5x7
1 71 60 -239 -154 1 0 0 0 -0.6 0.8 0 -0.8 -0.6 64179.dat
0 // hollow frame 5x7
1 71 -60 -239 -154 1 0 0 0 -0.6 0.8 0 -0.8 -0.6 64179.dat
0 // blue 3L pin
1 1 0 -239 -154 1 0 0 0 0.8 0.6 0 -0.6 0.8 42924.dat
0 // blue 3L pin
1 1 0 -207 -178 1 0 0 0 0.8 0.6 0 -0.6 0.8 42924.dat
0 // dark grey 3L
1 72 0 -223 -166 0 1 0 0.6 0 0.8 0.8 0 -0.6 32523.dat
0 // research platform [loose:research platform~]
1 0 40 -295 -112 0 1 0 -0.8 0 0.6 0.6 0 0.8 61332.dat
0 // research platform [loose:research platform~]
1 0 80 -295 -112 0 1 0 -0.8 0 0.6 0.6 0 0.8 61332.dat
0 // research platform [loose:research platform~]
1 0 -80 -295 -112 0 1 0 -0.8 0 0.6 0.6 0 0.8 61332.dat
0 // research platform [loose:research platform~]
1 0 -40 -295 -112 0 1 0 -0.8 0 0.6 0.6 0 0.8 61332.dat
0 // grey 3x5 L liftarm
1 71 20 -303 -106 0 0 1 0.6 -0.8 0 0.8 0.6 0 32526.dat
0 // grey 3x5 L liftarm
1 71 -20 -303 -106 0 0 -1 0.6 0.8 0 0.8 -0.6 0 32526.dat
0 // pin (inside back frame)
1 0 90 -239 -154 1 0 0 0 0.8 0.6 0 -0.6 0.8 61332.dat
0 // pin (inside front frame)
1 0 -90 -239 -154 1 0 0 0 0.8 0.6 0 -0.6 0.8 61332.dat
0 // pin (top of back frame)
1 0 110 -271 -130 1 0 0 0 0.8 0.6 0 -0.6 0.8 61332.dat
0 // pin (top of front frame)
1 0 -110 -271 -130 1 0 0 0 0.8 0.6 0 -0.6 0.8 61332.dat
0 // grey 11L extension
1 71 -100 -158.7691 -22.9952 0 1 0 0.83 0 0.5577 0.5577 0 -0.83 32525.dat
0 // research platform [loose:research platform~]
1 0 -90 -214.5383 60.0097 1 0 0 0 0.8 0.6 0 -0.6 0.8 61332.dat
0 // research platform [loose:research platform~]
1 0 -90 -203.3844 43.4087 1 0 0 0 0.8 0.6 0 -0.6 0.8 61332.dat
0 // grey axle/pin cross block
1 71 -80 -214.5383 60.0097 0 0 1 -0.83 0.5577 0 -0.5577 -0.83 0 42003.dat
0 // red 1/2 pin with stud
1 4 -110 -192.2306 26.8077 -1 0 0 0 0.8 -0.6 0 -0.6 -0.8 89678.dat
0 // red 1/2 pin with stud
1 4 -110 -181.0768 10.2068 -1 0 0 0 0.8 -0.6 0 -0.6 -0.8 89678.dat
0 // research platform [loose:research platform~]
1 0 -90 -169.923 -6.3942 1 0 0 0 0.8 0.6 0 -0.6 0.8 61332.dat
0 // dark grey axle/pin (pivot)
1 72 -100 -103 -106 -1 0 0 0 0.8 -0.6 0 -0.6 -0.8 11214.dat
0 // red 3L axle joiner
1 4 -140 -103 -106 0 0 1 -0.6 0.8 0 -0.8 -0.6 0 42195.dat
0 // red 2L axle
1 4 -170 -103 -106 1 0 0 0 0.8 0.6 0 -0.6 0.8 32062.dat
0 // red ball
1 4 -184 -103 -106 0 1 0 -0.6 0 -0.8 -0.8 0 0.6 32474.dat
0 // black 9L brace
1 0 -80 -204.4615 -80.1971 0 1 0 -0.9057 0 0.4239 0.4239 0 0.9057 40490.dat
0 // grey 11L extension
1 71 100 -158.7691 -22.9952 0 1 0 0.83 0 0.5577 0.5577 0 -0.83 32525.dat
0 // research platform [loose:research platform~]
1 0 90 -214.5383 60.0097 1 0 0 0 0.8 0.6 0 -0.6 0.8 61332.dat
0 // research platform [loose:research platform~]
1 0 90 -203.3844 43.4087 1 0 0 0 0.8 0.6 0 -0.6 0.8 61332.dat
0 // grey axle/pin cross block
1 71 80 -214.5383 60.0097 0 0 1 -0.83 0.5577 0 -0.5577 -0.83 0 42003.dat
0 // red 1/2 pin with stud
1 4 110 -192.2306 26.8077 1 0 0 0 0.8 0.6 0 -0.6 0.8 89678.dat
0 // red 1/2 pin with stud
1 4 110 -181.0768 10.2068 1 0 0 0 0.8 0.6 0 -0.6 0.8 89678.dat
0 // research platform [loose:research platform~]
1 0 90 -169.923 -6.3942 1 0 0 0 0.8 0.6 0 -0.6 0.8 61332.dat
0 // dark grey axle/pin (pivot)
1 72 100 -103 -106 1 0 0 0 0.8 0.6 0 -0.6 0.8 11214.dat
0 // red 3L axle joiner
1 4 140 -103 -106 0 0 1 -0.6 0.8 0 -0.8 -0.6 0 42195.dat
0 // red 2L axle
1 4 170 -103 -106 1 0 0 0 0.8 0.6 0 -0.6 0.8 32062.dat
0 // red ball
1 4 184 -103 -106 0 -1 0 -0.6 0 0.8 -0.8 0 -0.6 32474.dat
0 // black 9L brace
1 0 80 -204.4615 -80.1971 0 1 0 -0.9057 0 0.4239 0.4239 0 0.9057 40490.dat
0 // grey 1x12 brick with holes
1 71 -120 -281 -230 0 0 1 0 1 0 -1 0 0 3895.dat
0 // grey jumper plate
1 71 -120 -289 -330 0 0 1 0 1 0 -1 0 0 15573.dat
0 // grey jumper plate
1 71 -120 -289 -290 0 0 1 0 1 0 -1 0 0 15573.dat
0 // grey jumper plate
1 71 -120 -289 -250 0 0 1 0 1 0 -1 0 0 15573.dat
0 // grey jumper plate
1 71 -120 -289 -210 0 0 1 0 1 0 -1 0 0 15573.dat
0 // grey jumper plate
1 71 -120 -289 -170 0 0 1 0 1 0 -1 0 0 15573.dat
0 // grey 1x12 brick with holes
1 71 120 -281 -230 0 0 1 0 1 0 -1 0 0 3895.dat
0 // grey jumper plate
1 71 120 -289 -330 0 0 1 0 1 0 -1 0 0 15573.dat
0 // grey jumper plate
1 71 120 -289 -290 0 0 1 0 1 0 -1 0 0 15573.dat
0 // grey jumper plate
1 71 120 -289 -250 0 0 1 0 1 0 -1 0 0 15573.dat
0 // grey jumper plate
1 71 120 -289 -210 0 0 1 0 1 0 -1 0 0 15573.dat
0 // grey jumper plate
1 71 120 -289 -170 0 0 1 0 1 0 -1 0 0 15573.dat
0 // blue axle/pin
1 1 -80 -217.3961 82.1886 0 1 0 -0.8299 0 -0.558 -0.558 0 0.8299 43093.dat
0 // blue axle/pin
1 1 80 -217.3961 82.1886 0 1 0 -0.8299 0 -0.558 -0.558 0 0.8299 43093.dat
0 // black 9L cross bar
1 0 0 -209.1001 87.7666 0 0 1 0.558 0.8299 0 -0.8299 0.558 0 40490.dat
0 // blue axle/pin
1 1 -20 -217.3961 82.1886 0 1 0 -0.8299 0 -0.558 -0.558 0 0.8299 43093.dat
0 // grey ball
1 71 -20 -229.0105 74.3794 1 0 0 0 0.8299 -0.558 0 0.558 0.8299 32474.dat
0 // blue axle/pin
1 1 20 -217.3961 82.1886 0 1 0 -0.8299 0 -0.558 -0.558 0 0.8299 43093.dat
0 // grey ball
1 71 20 -229.0105 74.3794 1 0 0 0 0.8299 -0.558 0 0.558 0.8299 32474.dat
0 // tan 1x2 round plate
1 19 -122 -186.6537 18.5073 0 1 0 0.5577 0 -0.83 -0.83 0 -0.5577 35480.dat
0 // lime 1x1 curved brick
1 27 -122 -181.0768 10.2068 0 1 0 0.5577 0 -0.83 -0.83 0 -0.5577 49307.dat
0 // lime cherries
1 27 -122 -192.2306 26.8077 0 1 0 0.5577 0 -0.83 -0.83 0 -0.5577 22667.dat
0 // grey jumper plate
1 71 118 -181.0768 10.2068 0 -1 0 0.8 0 0.6 -0.6 0 0.8 15573.dat
0 // pale yellow butterfly
1 226 122 -186.6537 18.5073 0 -1 0 0.5577 0 0.83 -0.83 0 0.5577 80674.dat
0 // tan 2x14 plate
1 19 -10 -297 -160 1 0 0 0 1 0 0 0 1 91988.dat
0 // tan 6x14 plate
1 19 -10 -297 -240 1 0 0 0 1 0 0 0 1 3456.dat
0 // tan 2x14 plate
1 19 -10 -297 -320 1 0 0 0 1 0 0 0 1 91988.dat
0 // dark tan 1x10 plate
1 28 120 -305 -240 0 0 -1 0 1 0 1 0 0 4477.dat
0 // dark tan 1x10 plate
1 28 -140 -305 -240 0 0 -1 0 1 0 1 0 0 4477.dat
0 // tan lattice fence
1 19 -140 -329 -280 0 0 -1 0 1 0 1 0 0 3633.dat
0 // tan lattice fence
1 19 -140 -329 -200 0 0 -1 0 1 0 1 0 0 3633.dat
0 // tan lattice fence
1 19 120 -329 -280 0 0 -1 0 1 0 1 0 0 3633.dat
0 // tan lattice fence
1 19 120 -329 -200 0 0 -1 0 1 0 1 0 0 3633.dat
0 // tan lattice fence
1 19 -50 -321 -330 1 0 0 0 1 0 0 0 1 3633.dat
0 // tan lattice fence
1 19 30 -321 -330 1 0 0 0 1 0 0 0 1 3633.dat
0 // tan lattice fence
1 19 -50 -321 -150 1 0 0 0 1 0 0 0 1 3633.dat
0 // tan lattice fence
1 19 30 -321 -150 1 0 0 0 1 0 0 0 1 3633.dat
0 // brown 2x2 round brick
1 70 -10 -321 -240 1 0 0 0 1 0 0 0 1 3941.dat
0 // dark brown 4x4 round plate
1 308 -10 -329 -240 1 0 0 0 1 0 0 0 1 60474.dat
0 // red 1x1 round plate with leaves
1 4 -20 -337 -210 1 0 0 0 1 0 0 0 1 32607.dat
0 // yellow horn
1 14 -10 -321 -240 1 0 0 0 0 -1 0 1 0 53451.dat
0 // tan 1x2 tile
1 19 10 -337 -230 1 0 0 0 1 0 0 0 1 3069b.dat
0 // white 1x1 cone
1 15 0 -353 -270 1 0 0 0 1 0 0 0 1 59900.dat
0 // trans-orange 2x2 dish
1 57 0 -361 -270 1 0 0 0 1 0 0 0 1 4740.dat
0 // pale blue butterfly
1 323 -70 -291.25 -330 1 0 0 0 1 0 0 0 1 80674.dat
0 // gold frog
1 297 80 -297 -310 1 0 0 0 1 0 0 0 1 33320.dat
0 // minifig legs
1 28 -90 -337 -268.8 1 0 0 0 1 0 0 0 1 73200b.dat
0 // minifig torso with arms and hands
1 10 -90 -369 -268.8 1 0 0 0 1 0 0 0 1 76382.dat
0 // minifig head
1 14 -90 -393 -268.8 1 0 0 0 1 0 0 0 1 3626c.dat
0 // minifig headgear
1 288 -90 -393 -268.8 1 0 0 0 1 0 0 0 1 2514.dat
0 // minifig tool
1 308 -100 -329 -270 1 0 0 0 1 0 0 0 1 64644.dat
0 // minifig tool
1 0 -82 -331.6748 -273.0139 1 0 0 0 0.866 -0.5 0 0.5 0.866 30089b.dat
0 // minifig legs
1 308 -10 -337 -288.8 1 0 0 0 1 0 0 0 1 73200b.dat
0 // minifig torso with arms and hands
1 70 -10 -369 -288.8 1 0 0 0 1 0 0 0 1 76382.dat
0 // minifig head
1 14 -10 -393 -288.8 1 0 0 0 1 0 0 0 1 3626c.dat
0 // minifig headgear
1 70 0 -393 -310 1 0 0 0 1 0 0 0 1 30381.dat
0 // minifig tool
1 70 -40 -297 -330 1 0 0 0 1 0 0 0 1 24324.dat
0 // minifig tool
1 321 14.5071 -337.4869 -308.9907 0.9854 0.0862 -0.1464 -0.1701 0.4997 -0.8489 0 0.8619 0.5079 30162.dat
0 // minifig legs
1 288 90 -337 -208.8 1 0 0 0 1 0 0 0 1 73200b.dat
0 // minifig torso with arms and hands
1 288 90 -369 -208.8 1 0 0 0 1 0 0 0 1 76382.dat
0 // minifig head
1 14 90 -393 -208.8 1 0 0 0 1 0 0 0 1 3626c.dat
0 // minifig headgear
1 308 90 -393 -208.8 1 0 0 0 1 0 0 0 1 61506.dat
0 // minifig tool
1 0 85.2877 -358.1292 -208.8 0.1701 0.9854 0 -0.9854 0.1701 0 0 0 1 10830p01.dat
0 // book cover
1 70 -24 -343 -330 1 0 0 0 1 0 0 0 1 24093.dat
0 // tan 1x2 tile (book page)
1 19 -30 -305 -330 1 0 0 0 1 0 0 0 1 3069b.dat
0 STEP
0 // tan axle/pin (vine arm pivot)
1 19 90 -10 20 -1 0 0 0 1 0 0 0 -1 3749.dat
0 // lime 5L (vine arm)
1 27 100 -41.3043 -4.9006 0 1 0 -0.6225 0 0.7826 0.7826 0 0.6225 32316.dat
0 // tan axle/pin
1 19 110 -72.6087 -29.8012 1 0 0 0 0.0234 0.9997 0 -0.9997 0.0234 3749.dat
0 // 3L axle joiner
1 288 140 -72.6087 -29.8012 0 0 1 -0.9997 0.0234 0 -0.0234 -0.9997 0 42195.dat
0 // red 2L axle
1 4 170 -72.6087 -29.8012 1 0 0 0 0.0234 0.9997 0 -0.9997 0.0234 32062.dat
0 // 3L axle joiner
1 288 200 -72.6087 -29.8012 0 0 1 -0.9997 0.0234 0 -0.0234 -0.9997 0 42195.dat
0 // red 2L axle
1 4 230 -72.6087 -29.8012 1 0 0 0 0.0234 0.9997 0 -0.9997 0.0234 32062.dat
0 // 90 degree tube
1 28 260 -72.6087 -29.8012 1 0 0 0 -0.0234 -0.9997 0 0.9997 -0.0234 25214.dat
0 // red 2L axle
1 4 260 -102.6005 -30.5026 0 0 1 -0.9997 0.0234 0 -0.0234 -0.9997 0 32062.dat
0 // 3L axle joiner
1 84 260 -132.5922 -31.2041 -1 0 0 0 0.0234 -0.9997 0 -0.9997 -0.0234 42195.dat
0 // red 2L axle
1 4 260 -162.584 -31.9056 0 0 1 -0.9997 0.0234 0 -0.0234 -0.9997 0 32062.dat
0 // 3L axle joiner
1 84 260 -192.5758 -32.607 -1 0 0 0 0.0234 -0.9997 0 -0.9997 -0.0234 42195.dat
0 // red 2L axle
1 4 260 -222.5676 -33.3085 0 0 1 -0.9997 0.0234 0 -0.0234 -0.9997 0 32062.dat
0 // 90 degree tube
1 10 260 -252.5594 -34.01 0 0 -1 -0.9997 -0.0234 0 -0.0234 0.9997 0 25214.dat
0 // red 2L axle
1 4 230 -252.5594 -34.01 -1 0 0 0 0.0234 -0.9997 0 -0.9997 -0.0234 32062.dat
0 // 3L axle joiner
1 288 200 -252.5594 -34.01 0 0 -1 0.9997 0.0234 0 0.0234 -0.9997 0 42195.dat
0 // red 2L axle
1 4 170 -252.5594 -34.01 -1 0 0 0 0.0234 -0.9997 0 -0.9997 -0.0234 32062.dat
0 // 90 degree tube
1 10 140 -252.5594 -34.01 -1 0 0 0 0.0234 -0.9997 0 -0.9997 -0.0234 25214.dat
0 // red 2L axle
1 4 140 -282.5512 -34.7115 0 0 1 -0.9997 0.0234 0 -0.0234 -0.9997 0 32062.dat
0 // 90 degree tube
1 10 140 -312.543 -35.4129 0 0 1 -0.9997 0.0234 0 -0.0234 -0.9997 0 25214.dat
0 // red 2L axle
1 4 170 -312.543 -35.4129 1 0 0 0 0.0234 0.9997 0 -0.9997 0.0234 32062.dat
0 // 90 degree tube
1 28 200 -312.543 -35.4129 1 0 0 0 -0.0234 -0.9997 0 0.9997 -0.0234 25214.dat
0 // red 2L axle
1 4 200 -342.5348 -36.1144 0 0 1 -0.9997 0.0234 0 -0.0234 -0.9997 0 32062.dat
0 // 90 degree tube
1 10 200 -372.5266 -36.8159 0 0 -1 -0.9997 -0.0234 0 -0.0234 0.9997 0 25214.dat
0 // red 2L axle
1 4 170 -372.5266 -36.8159 -1 0 0 0 0.0234 -0.9997 0 -0.9997 -0.0234 32062.dat
0 // 90 degree tube
1 28 140 -372.5266 -36.8159 -1 0 0 0 0.0234 -0.9997 0 -0.9997 -0.0234 25214.dat
0 // red 2L axle
1 4 140 -402.5184 -37.5173 0 0 1 -0.9997 0.0234 0 -0.0234 -0.9997 0 32062.dat
0 // 90 degree tube
1 28 140 -432.5102 -38.2188 0 0 1 -0.9997 0.0234 0 -0.0234 -0.9997 0 25214.dat
0 // red 2L axle
1 4 170 -432.5102 -38.2188 1 0 0 0 0.0234 0.9997 0 -0.9997 0.0234 32062.dat
0 // 90 degree tube
1 28 200 -432.5102 -38.2188 1 0 0 0 -0.0234 -0.9997 0 0.9997 -0.0234 25214.dat
0 // red 2L axle
1 4 200 -462.502 -38.9203 0 0 1 -0.9997 0.0234 0 -0.0234 -0.9997 0 32062.dat
0 // 90 degree tube
1 28 200 -492.4938 -39.6217 0 0 -1 -0.9997 -0.0234 0 -0.0234 0.9997 0 25214.dat
0 // red 2L axle
1 4 170 -492.4938 -39.6217 -1 0 0 0 0.0234 -0.9997 0 -0.9997 -0.0234 32062.dat
0 // 3L axle joiner
1 288 140 -492.4938 -39.6217 0 0 -1 0.9997 0.0234 0 0.0234 -0.9997 0 42195.dat
0 // red 2L axle
1 4 110 -492.4938 -39.6217 -1 0 0 0 0.0234 -0.9997 0 -0.9997 -0.0234 32062.dat
0 // 90 degree tube
1 28 80 -492.4938 -39.6217 -1 0 0 0 0.0234 -0.9997 0 -0.9997 -0.0234 25214.dat
0 // red 2L axle
1 4 80 -522.4856 -40.3232 0 0 1 -0.9997 0.0234 0 -0.0234 -0.9997 0 32062.dat
0 // 90 degree tube
1 28 80 -552.4774 -41.0247 0 1 0 -0.9997 0 -0.0234 -0.0234 0 0.9997 25214.dat
0 // red 2L axle
1 4 80 -553.1789 -11.0329 0 0 -1 -0.0234 0.9997 0 0.9997 0.0234 0 32062.dat
0 // 90 degree tube
1 28 80 -553.8804 18.9589 0 1 0 -0.0234 0 0.9997 0.9997 0 0.0234 25214.dat
0 // red 2L axle
1 4 80 -523.8886 19.6604 0 0 -1 0.9997 0.0234 0 0.0234 -0.9997 0 32062.dat
0 // grey ball (vine end)
1 71 80 -509.8924 19.9877 0 0 -1 0.0234 -0.9997 0 -0.9997 -0.0234 0 32474.dat
0 STEP
0 // black pin
1 0 0 -630 -10 0 0 -1 0 1 0 1 0 0 61332.dat
0 // black pin
1 0 -20 -630 -10 0 0 -1 0 1 0 1 0 0 61332.dat
0 // brown 3L bar
1 70 52 -614 -46 1 0 0 0 0 -1 0 1 0 87994.dat
0 // black pin
1 0 135.2 -656.4 -10 0 0 -1 0 1 0 1 0 0 61332.dat
0 // black pin
1 0 -135.2 -616.4 -30 0 0 -1 0 1 0 1 0 0 61332.dat
0 STEP
0 // red 2L axle
1 4 231.2 -628.4 -30 0 0 -1 0 1 0 1 0 0 32062.dat
0 // brown 1x1 brick with axle hole
1 70 231.2 -638.4 -40 1 0 0 0 1 0 0 0 1 73230.dat
0 // red 2L axle
1 4 -231.2 -588.4 -30 0 0 -1 0 1 0 1 0 0 32062.dat
0 // brown 1x1 brick with axle hole
1 70 -231.2 -598.4 -40 1 0 0 0 1 0 0 0 1 73230.dat
0 STEP
0 // brown 1x2 brick with holes
1 70 128.4 -668.8 0 0.96 -0.28 0 0.28 0.96 0 0 0 1 32000.dat
0 // brown 1x2 brick with holes
1 70 -128.4 -628.8 -40 -0.96 0.28 0 0.28 0.96 0 0 0 -1 32000.dat
0 // brown 1x2 brick with holes
1 70 -10 -640 -20 1 0 0 0 1 0 0 0 1 32000.dat
0 STEP
0 // green plant leaves
1 2 331.2 -638.4 -100 0 0 1 0 1 0 -1 0 0 2417.dat
0 // green plant leaves
1 2 291.2 -654.4 -40 0 0 1 0 1 0 -1 0 0 2417.dat
0 // red 1x1 round plate with leaves
1 4 331.2 -662.4 0 0 0 1 0 1 0 -1 0 0 32607.dat
0 // orange leaf bar
1 191 331.2 -654.4 0 0 0 1 0 1 0 -1 0 0 33183.dat
0 // green plant leaves
1 2 291.2 -646.4 -40 0 0 1 0 1 0 -1 0 0 2417.dat
0 // lime leaf bar
1 27 231.2 -638.4 -40 -1 0 0 0 1 0 0 0 -1 33183.dat
0 // lime 1x2 round plate
1 27 281.2 -662.4 80 1 0 0 0 1 0 0 0 1 35480.dat
0 // lime plant leaves
1 27 291.2 -654.4 20 -1 0 0 0 1 0 0 0 -1 2417.dat
0 // lime plant leaves
1 27 271.2 -654.4 140 1 0 0 0 1 0 0 0 1 2417.dat
0 // lime leaf bar
1 27 271.2 -654.4 80 0 0 1 0 1 0 -1 0 0 33183.dat
0 // lime plant leaves
1 27 40 -640 80 -1 0 0 0 1 0 0 0 -1 2417.dat
0 // red 1x1 round plate with leaves
1 4 40 -648 140 0 0 1 0 1 0 -1 0 0 32607.dat
0 // orange leaf bar
1 191 40 -640 140 0 0 1 0 1 0 -1 0 0 33183.dat
0 // yellow bar with clip
1 14 20 -668 0 1 0 0 0 1 0 0 0 1 3484.dat
0 // white 1x1 round plate
1 15 20 -656 0 1 0 0 0 1 0 0 0 1 85861.dat
0 // white 1x1 brick with 4 side studs
1 15 20 -680 0 1 0 0 0 1 0 0 0 1 4733.dat
0 // white 1x1 round plate
1 15 2 -670 0 0 1 0 -1 0 0 0 0 1 85861.dat
0 // white 1x1 round plate
1 15 -6 -670 0 0 1 0 -1 0 0 0 0 1 85861.dat
0 // red 1x1 slope
1 4 30 -670 0 0 -1 0 1 0 0 0 0 1 54200.dat
0 // white 1x1 tooth plate (wing)
1 15 30 -670 0 0 -1 0 0 0 1 -1 0 0 49668.dat
0 // white 1x1 tooth plate (wing)
1 15 40 -640 40 -1 0 0 0 1 0 0 0 -1 49668.dat
0 // orange 1x1 tooth plate (beak)
1 191 20 -688 0 0 0 1 0 1 0 -1 0 0 49668.dat
0 // red 1x1 tile with clip
1 4 20 -696 0 1 0 0 0 1 0 0 0 1 15712.dat
0 // lime 1x2 round plate
1 27 -10 -656 -20 1 0 0 0 1 0 0 0 1 35480.dat
0 // lime plant leaves
1 27 0 -648 40 1 0 0 0 1 0 0 0 1 2417.dat
0 // lime plant leaves
1 27 -20 -648 -80 -1 0 0 0 1 0 0 0 -1 2417.dat
0 // lime leaf bar
1 27 0 -648 -20 0 0 1 0 1 0 -1 0 0 33183.dat
0 // lime plant leaves
1 27 -60 -656 -120 0 0 -1 0 1 0 1 0 0 2417.dat
0 // lime leaf bar
1 27 -90 -632 -170 0 0 1 0 1 0 -1 0 0 33183.dat
0 // lime 1x2 round plate
1 27 0 -648 -70 0 0 1 0 1 0 -1 0 0 35480.dat
0 // green plant leaves
1 2 -60 -640 -80 0 0 -1 0 1 0 1 0 0 2417.dat
0 // green plant leaves
1 2 60 -640 -60 0 0 1 0 1 0 -1 0 0 2417.dat
0 // lime leaf bar
1 27 0 -640 -60 -1 0 0 0 1 0 0 0 -1 33183.dat
0 // gold flower (crown)
1 297 -60 -648 -80 -1 0 0 0 1 0 0 0 -1 39262.dat
0 // pale yellow songbird
1 226 -60 -648 -80 -1 0 0 0 1 0 0 0 -1 41835.dat
0 // green plant leaves
1 2 100 -632 -40 0 0 -1 0 1 0 1 0 0 2417.dat
0 // red 1x1 round plate with leaves
1 4 160 -640 -40 -1 0 0 0 1 0 0 0 -1 32607.dat
0 // orange leaf bar
1 191 160 -632 -40 -1 0 0 0 1 0 0 0 -1 33183.dat
0 // green plant leaves
1 2 -171.2 -574.4 -40 0 0 1 0 1 0 -1 0 0 2417.dat
0 // green plant leaves
1 2 -231.2 -582.4 20 1 0 0 0 1 0 0 0 1 2417.dat
0 // lime leaf bar
1 27 -231.2 -574.4 -40 1 0 0 0 1 0 0 0 1 33183.dat
0 STEP
0 // red angle connector #1 (seed)
1 4 -142.8635 -562.1476 42.1893 -0.7394 -0.4588 0.4928 -0.5546 0 -0.8321 0.3818 -0.8886 -0.2544 32013.dat
0 // red 2L axle (seed)
1 4 -157.6461 -537.1832 49.8216 0.4928 -0.4588 0.7394 -0.8321 0 0.5546 -0.2544 -0.8886 -0.3818 32062.dat
0 // brown 1x1 cone (seed)
1 70 -174.3998 -508.8903 58.4716 -0.7394 0.4928 0.4588 -0.5546 -0.8321 0 0.3818 -0.2544 0.8886 59900.dat
0 // brown 2L bar with stop (seed)
1 70 -180.3129 -498.9045 61.5246 -0.7394 0.4928 0.4588 -0.5546 -0.8321 0 0.3818 -0.2544 0.8886 78258.dat
0 // brown 1x1 brick with 4 side studs (seed)
1 70 -198.0521 -468.9473 70.6834 -0.7394 0.4928 0.4588 -0.5546 -0.8321 0 0.3818 -0.2544 0.8886 4733.dat
0 // brown 3-prong bar (seed)
1 70 -187.9486 -473.3868 65.467 0.4928 0.7394 0.4588 -0.8321 0.5546 0 -0.2544 -0.3818 0.8886 68211.dat
0 // brown 3-prong bar (seed)
1 70 -208.0045 -480.1012 75.8219 -0.1744 -0.8713 -0.4588 -0.9805 0.1963 0 0.09 0.4498 -0.8886 68211.dat
0 // brown 3-prong bar (seed)
1 70 -201.4741 -477.2687 51.9675 0.4928 0.4588 -0.7394 -0.8321 0 -0.5546 -0.2544 0.8886 0.3818 68211.dat
0 // brown 3-prong bar (seed)
1 70 -184.775 -477.2687 84.311 0.4928 -0.4588 0.7394 -0.8321 0 0.5546 -0.2544 -0.8886 -0.3818 68211.dat
