0 m10b
0 Name: m10b.ldr
0 Author: FLL Sim

0 STEP
0 STEP
0 STEP
0 STEP
0 STEP
0 STEP
0 STEP
0 STEP
0 STEP
0 // snail body: grey 4x4 bent liftarm (back)
1 71 63.2634 -9.0005 20 0 0 1 -1 0 0 0 -1 0 32348.dat
0 // snail body: yellow 3L axle (bottom)
1 14 63.2634 -9.0005 0 0 0 -1 0 -1 0 -1 0 0 4519.dat
0 // snail body: yellow 3L axle (top)
1 14 159.2634 -57.0005 0 0 0 -1 0 -1 0 -1 0 0 4519.dat
0 STEP
0 // snail body: grey pin (back link pivot)
1 71 103.2634 -9.0005 30 0 0 -1 0 -1 0 -1 0 0 3673.dat
0 STEP
0 // snail body: dark grey 5L liftarm
1 72 83.2634 -9.0005 0 0 0 1 -1 0 0 0 -1 0 32316.dat
0 // snail body: blue 3L pin (corner)
1 1 123.2634 -9.0005 0 0 0 1 0 -1 0 1 0 0 42924.dat
0 STEP
0 // snail body: brown 7x3 bent liftarm
1 70 159.2634 -57.0005 0 0.8 0 0.6 0.6 0 -0.8 0 1 0 32271.dat
0 STEP
0 // snail body: grey 4x4 bent liftarm (front)
1 71 63.2634 -9.0005 -20 0 0 1 -1 0 0 0 -1 0 32348.dat
0 // snail body: grey pin (front link pivot)
1 71 103.2634 -9.0005 -30 0 0 -1 0 -1 0 -1 0 0 3673.dat
0 STEP
0 STEP
0 // snail: brown 3L link (back)
1 70 106.1956 -28.7843 40 -0.9892 0 0.1466 -0.1466 0 -0.9892 0 -1 0 32523.dat
0 STEP
0 // snail neck: lime 7x3 bent liftarm
1 27 137.2634 -77.0005 0 0.8 0 0.6 0.6 0 -0.8 0 1 0 32271.dat
0 // snail neck: yellow 3L axle
1 14 137.2634 -77.0005 0 0 0 -1 0 -1 0 -1 0 0 4519.dat
0 // snail neck: dark grey cam
1 72 123.1956 -62.7843 -15 -0.7108 -0.7034 0 -0.7034 0.7108 0 0 0 -1 6575a.dat
0 // snail neck: dark grey cam
1 72 123.1956 -62.7843 -25 -0.7108 -0.7034 0 -0.7034 0.7108 0 0 0 -1 6575a.dat
0 // snail neck: dark grey cam
1 72 123.1956 -62.7843 15 -0.7108 -0.7034 0 -0.7034 0.7108 0 0 0 -1 6575a.dat
0 // snail neck: dark grey cam
1 72 123.1956 -62.7843 25 -0.7108 -0.7034 0 -0.7034 0.7108 0 0 0 -1 6575a.dat
0 // snail neck: tan axle/pin (front)
1 19 109.1278 -48.5682 -30 0 0 1 0 -1 0 1 0 0 3749.dat
0 // snail neck: tan axle/pin (back)
1 19 109.1278 -48.5682 30 0 0 -1 0 -1 0 -1 0 0 3749.dat
0 // snail neck: red 2L axle (in the corner pin hole)
1 4 209.2634 -173.0005 0 0 0 -1 0 -1 0 -1 0 0 32062.dat
0 // snail neck: black thin 2L liftarm (back)
1 0 209.2634 -173.0005 15 -1 0 0 0 0 -1 0 -1 0 41677.dat
0 // snail neck: black thin 2L liftarm (front)
1 0 209.2634 -173.0005 -15 -1 0 0 0 0 -1 0 -1 0 41677.dat
0 // snail neck: white 4L bar (bars in axle holes register no connection)
1 15 209.2634 -193.0005 40 1 0 0 0 0 1 0 -1 0 30374.dat
0 // snail neck: orange cross block (head, turns on the bar)
1 25 229.2634 -193.0005 0 0 1 0 0 0 -1 -1 0 0 42003.dat
0 // snail neck: red 1L pin with stud
1 4 249.2634 -203.0005 0 0 1 0 -1 0 0 0 0 1 89678.dat
0 // snail neck: gold T-piece (antennae)
1 297 249.2634 -207.0005 0 -1 0 0 0 1 0 0 0 -1 4697b.dat
0 // snail neck: lime round plate (eye front)
1 27 209.2634 -193.0005 -28 1 0 0 0 0 -1 0 1 0 85861.dat
0 // snail neck: yellow 3x3 dish (eye front)
1 14 209.2634 -193.0005 -36 1 0 0 0 0 -1 0 1 0 43898.dat
0 // snail neck: lime round plate (eye back)
1 27 209.2634 -193.0005 28 1 0 0 0 0 1 0 -1 0 85861.dat
0 // snail neck: yellow 3x3 dish (eye back)
1 14 209.2634 -193.0005 36 1 0 0 0 0 1 0 -1 0 43898.dat
0 STEP
0 // snail: brown 3L link (front)
1 70 106.1956 -28.7843 -40 -0.9892 0 0.1466 -0.1466 0 -0.9892 0 -1 0 32523.dat
