0 m12
0 Name: m12.ldr
0 Author: FLL Sim

0 // 8x8 round plate
1 2 0 -8 0 -1 0 0 0 1 0 0 0 -1 74611.dat
0 // wall panel (back row, wall at the back)
1 4 0 -32 -70 -1 0 0 0 1 0 0 0 -1 4865b.dat
0 STEP
0 // wall panel (front row, wall at the front)
1 4 0 -32 -50 1 0 0 0 1 0 0 0 1 4865b.dat
0 // wall panel (front row, wall at the front)
1 4 40 -32 -50 1 0 0 0 1 0 0 0 1 4865b.dat
0 // wall panel (front row, wall at the front)
1 4 -40 -32 -50 1 0 0 0 1 0 0 0 1 4865b.dat
0 STEP
0 // green 1x2 brick with axle hole
1 2 -70 -32 0 0 0 1 0 1 0 -1 0 0 32064a.dat
0 // grey 1x2 brick
1 71 -50 -32 0 0 0 -1 0 1 0 1 0 0 3004.dat
0 STEP
0 // 4x4 round brick with holes
1 71 0 -32 0 -1 0 0 0 1 0 0 0 -1 6222.dat
0 // 3L pin (front hole)
1 1 0 -22 50 0 -1 0 0 0 1 -1 0 0 42924.dat
0 // dark grey 1x2 brick with hole
1 72 0 -32 50 -1 0 0 0 1 0 0 0 -1 3700.dat
0 // 1x2 brick with two liftarms (U)
1 72 0 -32 70 -1 0 0 0 1 0 0 0 -1 85943.dat
0 STEP
0 // green 2x3 plate (front)
1 2 0 -40 50 0 0 -1 0 1 0 1 0 0 3021.dat
0 // green 2x3 plate (right)
1 2 -50 -40 0 -1 0 0 0 1 0 0 0 -1 3021.dat
0 STEP
0 // leaves plate
1 2 50 -16 10 0.7071 0 -0.7071 0 1 0 0.7071 0 0.7071 32607.dat
0 // frog
1 26 50 -16 10 1 0 0 0 1 0 0 0 1 33320.dat
0 STEP
0 // leaves plate
1 2 10 -48 30 -1 0 0 0 1 0 0 0 -1 32607.dat
0 // leaves plate
1 2 -30 -48 10 0 0 1 0 1 0 -1 0 0 32607.dat
0 STEP
0 // curved bar (axle in the green brick)
1 70 -80 -22 0 0 1 0 0 0 -1 -1 0 0 4042.dat
0 STEP
0 // 11L axle (trunk)
1 14 0 -110 0 0 1 0 1 0 0 0 0 -1 23948.dat
0 // 2x2 round brick (trunk)
1 19 0 -56 0 -1 0 0 0 1 0 0 0 -1 3941.dat
0 // 2x2 round brick (trunk)
1 19 0 -80 0 -1 0 0 0 1 0 0 0 -1 3941.dat
0 // 2x2 round brick (trunk)
1 19 0 -104 0 -1 0 0 0 1 0 0 0 -1 3941.dat
0 // 2x2 round brick (trunk)
1 19 0 -128 0 -1 0 0 0 1 0 0 0 -1 3941.dat
0 // 2x2 round brick (trunk)
1 19 0 -152 0 -1 0 0 0 1 0 0 0 -1 3941.dat
0 // 2x2 round plate with 4 bars (trunk)
1 378 0 -160 0 -1 0 0 0 1 0 0 0 -1 98284.dat
0 // 2x2 round plate (trunk)
1 19 0 -168 0 -1 0 0 0 1 0 0 0 -1 4032a.dat
0 // 2x2 round brick (trunk)
1 19 0 -192 0 -1 0 0 0 1 0 0 0 -1 3941.dat
0 // 2x2 round tile with hole (trunk)
1 19 0 -200 0 -1 0 0 0 1 0 0 0 -1 15535.dat
0 // 2x2 round brick curved 45 (trunk top)
1 19 0 -200 0 0 0 -1 0 1 0 1 0 0 65473.dat
0 // leaves plate on a trunk bar
1 2 0 -164 30 0.7071 0 0.7071 0 -1 0 0.7071 0 -0.7071 32607.dat
0 // leaves plate on a trunk bar
1 2 0 -164 -30 -0.7071 0 -0.7071 0 -1 0 -0.7071 0 0.7071 32607.dat
0 STEP
0 // 2x2 round brick (top)
1 19 0 -267.8704 38.0704 -1 0 0 0 0.7071 -0.7071 0 -0.7071 -0.7071 3941.dat
0 // 2x2 round plate with 4 bars (top)
1 378 0 -273.5272 43.7272 -1 0 0 0 0.7071 -0.7071 0 -0.7071 -0.7071 98284.dat
0 // 2x2 round tile with hole (top)
1 19 0 -279.184 49.384 -1 0 0 0 0.7071 -0.7071 0 -0.7071 -0.7071 15535.dat
0 // bent horn
1 19 0 -279.184 49.384 -1 0 0 0 0.7071 -0.7071 0 -0.7071 -0.7071 2142.dat
0 // 4L axle (top)
1 0 0 -265.042 35.242 0 1 0 0.7071 0 -0.7071 -0.7071 0 -0.7071 3705.dat
0 // red 2L axle (horn tip)
1 4 0 -307.3015 119.0156 0 0 1 0 -1 0 1 0 0 32062.dat
0 STEP
0 // 1x1 cone (branch 11)
1 19 30 -282.0125 52.2125 -1 0 0 0 -0.7071 0.7071 0 0.7071 0.7071 59900.dat
0 // 1x1 round plate with open stud (branch 11)
1 19 30 -298.6295 68.8295 -1 0 0 0 -0.7071 0.7071 0 0.7071 0.7071 85861.dat
0 // stem with 3 leaves (branch 11)
1 10 30 -311.3574 81.5574 1 0 0 0 -0.7071 -0.7071 0 0.7071 -0.7071 37695.dat
0 STEP
0 // 90 degree tube (branch 12)
1 19 0 -323.0243 50.7983 0 0 -1 -0.7071 0.7071 0 0.7071 0.7071 0 25214.dat
0 // 1x1 round plate with open stud (branch 12)
1 19 -30 -323.0243 50.7983 0 -1 0 -0.7071 0 -0.7071 0.7071 0 -0.7071 85861.dat
0 // red 2L axle (branch 12)
1 4 0 -294.7403 22.5143 0 0 -1 -0.7071 0.7071 0 0.7071 0.7071 0 32062.dat
0 // 3L bar (branch 12)
1 10 -2 -323.0243 50.7983 0 -1 0 -0.7071 0 -0.7071 0.7071 0 -0.7071 87994.dat
0 // 1x1 cone on the bar (branch 12)
1 19 -62 -323.0243 50.7983 0 1 0 -0.7071 0 0.7071 0.7071 0 0.7071 59900.dat
0 // 1x1 cone on the axle (branch 12)
1 19 0 -303.2255 30.9995 1 0 0 0 -0.7071 -0.7071 0 0.7071 -0.7071 59900.dat
0 // leaves plate, leaves up (branch 12)
1 2 -64 -337.1663 36.6563 0 1 0 -0.7071 0 0.7071 0.7071 0 0.7071 3565.dat
0 // leaves plate, leaves up (branch 12)
1 2 -70 -323.0243 50.7983 0 1 0 -1 0 0 0 0 1 32607.dat
0 // leaves plate, leaves up (branch 12)
1 2 -78 -323.0243 50.7983 0 1 0 -1 0 0 0 0 1 32607.dat
0 STEP
0 // 90 degree tube (branch 13)
1 19 0 -307.3015 147.0156 0 -1 0 0 0 -1 1 0 0 25214.dat
0 // 1x1 round plate with open stud (branch 13)
1 19 0 -337.3015 147.0156 0 0 1 0 -1 0 1 0 0 85861.dat
0 // 3L bar (branch 13)
1 10 0 -309.3015 147.0156 0 0 1 0 -1 0 1 0 0 87994.dat
0 // 1x1 cone on the bar (branch 13)
1 19 0 -369.3015 147.0156 0 0 -1 0 1 0 1 0 0 59900.dat
0 // leaves plate, leaves right (branch 13)
1 2 0 -371.3015 167.0156 -1 0 0 0 1 0 0 0 -1 3565.dat
0 // leaves plate, leaves up (branch 13)
1 2 20 -373.3015 147.0156 0 0 -1 0 1 0 1 0 0 3565.dat
0 // leaves plate, leaves down (branch 13)
1 2 0 -381.3015 147.0156 0 0 1 0 1 0 -1 0 0 3565.dat
0 // butterfly
1 191 0 -391.0515 147.0156 0 0 1 0 -1 0 1 0 0 80674.dat
0 STEP
0 // red 2L axle (support pivot)
1 4 30 -22 100 -1 0 0 0 1 0 0 0 -1 32062.dat
0 STEP
0 // #1 connector (support pivot)
1 10 30 -22 100 1 0 0 0 0.4067 0.9135 0 -0.9135 0.4067 32013.dat
0 // red 2L axle (support)
1 4 30 -49.4064 87.7979 0 1 0 0.9135 0 0.4067 0.4067 0 -0.9135 32062.dat
0 // 2L axle joiner (support)
1 2 30 -67.6773 79.6632 1 0 0 0 0.4067 0.9135 0 -0.9135 0.4067 59443.dat
0 // red 2L axle (support)
1 4 30 -85.9482 71.5284 0 1 0 0.9135 0 0.4067 0.4067 0 -0.9135 32062.dat
0 // 3L axle joiner (support)
1 84 30 -113.3545 59.3263 1 0 0 0 -0.4067 -0.9135 0 0.9135 -0.4067 42195.dat
0 // red 2L axle (support)
1 4 30 -140.7609 47.1242 0 1 0 -0.9135 0 -0.4067 -0.4067 0 0.9135 32062.dat
0 // 3L axle joiner (support)
1 84 30 -168.1673 34.9221 1 0 0 0 -0.4067 -0.9135 0 0.9135 -0.4067 42195.dat
0 // bush with three axles (support fork)
1 0 30 -204.7091 18.6527 1 0 0 0 0.4067 0.9135 0 -0.9135 0.4067 57585.dat
0 // #5 connector (support fork 1)
1 70 64.6413 -222.98 10.5179 0 0.5 0.866 0.4067 0.7912 -0.4568 -0.9135 0.3522 -0.2034 32015.dat
0 // #5 connector (support fork -1)
1 70 -4.6413 -222.98 10.5179 0 -0.5 -0.866 -0.4067 0.7912 -0.4568 0.9135 0.3522 -0.2034 32015.dat
0 // axle/pin (support)
1 1 30 -208.7765 27.7881 0 1 0 0.4067 0 -0.9135 -0.9135 0 -0.4067 43093.dat
0 // 1L liftarm (support)
1 10 30 -212.8438 36.9236 1 0 0 0 -0.4067 -0.9135 0 0.9135 -0.4067 18654.dat
0 STEP
0 // red 1x4 round-end plate (ring) [loose:ring]
1 4 0 -26 -52 -1 0 0 0 0 1 0 1 0 77845.dat
0 // red quarter-ring plate, back left (ring) [loose:ring]
1 4 20 -96 -60 1 0 0 0 0 -1 0 1 0 80015.dat
0 // red quarter-ring plate, back right (ring) [loose:ring]
1 4 -20 -96 -60 0 0 1 1 0 0 0 1 0 80015.dat
0 // red 1x4 round-end plate (ring back) [loose:ring]
1 4 0 -26 -68 -1 0 0 0 0 1 0 1 0 77845.dat
0 // red 1x1 round tile (ring) [loose:ring]
1 4 30 -26 -76 -1 0 0 0 0 1 0 1 0 98138.dat
0 // red 1x1 round tile (ring) [loose:ring]
1 4 10 -26 -76 -1 0 0 0 0 1 0 1 0 98138.dat
0 // red 1x1 round tile (ring) [loose:ring]
1 4 -10 -26 -76 -1 0 0 0 0 1 0 1 0 98138.dat
0 // red 1x1 round tile (ring) [loose:ring]
1 4 -30 -26 -76 -1 0 0 0 0 1 0 1 0 98138.dat
0 // red 1x4 round-end plate (ring side) [loose:ring]
1 4 90 -116 -52 0 0 -1 -1 0 0 0 1 0 77845.dat
0 // red 1x4 round-end plate (ring side) [loose:ring]
1 4 -90 -116 -52 0 0 -1 -1 0 0 0 1 0 77845.dat
0 // red quarter-ring plate, front left (ring) [loose:ring]
1 4 20 -136 -60 0 0 -1 -1 0 0 0 1 0 80015.dat
0 // red quarter-ring plate, front right (ring) [loose:ring]
1 4 -20 -136 -60 -1 0 0 0 0 1 0 1 0 80015.dat
0 // black 1x2 round-end plate (ring side) [loose:ring]
1 0 90 -116 -68 0 0 -1 -1 0 0 0 1 0 35480.dat
0 // black 1x2 round-end plate (ring side) [loose:ring]
1 0 -90 -116 -68 0 0 -1 -1 0 0 0 1 0 35480.dat
0 // red 1x4 round-end plate (ring front) [loose:ring]
1 4 0 -206 -52 -1 0 0 0 0 1 0 1 0 77845.dat
0 // black 1x4 plate with hanging bar (ring) [loose:ring]
1 0 0 -206 -68 -1 0 0 0 0 1 0 1 0 30043.dat
0 STEP
0 // chain end (on the trunk bar) [loose:ring]
1 71 0 -176 -30 -0.1804 0.8379 -0.5151 0 0.5237 0.8519 0.9836 0.1537 -0.0945 60169k01.dat
0 // chain link [loose:ring]
1 71 -14.6964 -154.1463 -32.4769 -0.873 -0.4878 0 -0.4843 0.8667 -0.1195 0.0583 -0.1044 -0.9928 60169k02.dat
0 // chain link [loose:ring]
1 71 -20.8085 -142.9885 -33.8603 0 -0.4683 -0.8836 0.1273 0.8764 -0.4645 0.9919 -0.1125 0.0596 60169k02.dat
0 // chain link [loose:ring]
1 71 -26.6577 -131.736 -35.3526 -0.8937 -0.4486 0 -0.4444 0.8853 -0.1366 0.0613 -0.1221 -0.9906 60169k02.dat
0 // chain link [loose:ring]
1 71 -32.167 -120.5509 -36.9521 0 -0.4286 -0.9035 0.1478 0.8936 -0.4239 0.989 -0.1335 0.0633 60169k02.dat
0 // chain link [loose:ring]
1 71 -37.6494 -108.7528 -38.7984 -0.9137 -0.4064 0 -0.4009 0.9015 -0.1632 0.0663 -0.1491 -0.9866 60169k02.dat
0 // chain link [loose:ring]
1 71 -42.6696 -97.2228 -40.8185 0 -0.3821 -0.9241 0.1848 0.9082 -0.3756 0.9828 -0.1707 0.0706 60169k02.dat
0 // chain link [loose:ring]
1 71 -47.2852 -85.7805 -43.1482 -0.9358 -0.3524 0 -0.3438 0.9129 -0.2199 0.0775 -0.2058 -0.9755 60169k02.dat
0 // chain link [loose:ring]
1 71 -51.6069 -73.7967 -46.275 0 -0.3007 -0.9537 0.3051 0.9083 -0.2863 0.9523 -0.291 0.0917 60169k02.dat
0 // chain link [loose:ring]
1 71 -53.5315 -64.3514 -53.3729 -0.9257 0.3783 0 -0.1667 -0.408 -0.8976 -0.3396 -0.8309 0.4407 60169k02.dat
0 // chain link [loose:ring]
1 71 -48.5838 -75.3394 -57.4293 0 0.3624 -0.932 0.2112 -0.911 -0.3542 -0.9774 -0.1968 -0.0765 60169k02.dat
0 // chain link [loose:ring]
1 71 -44.1093 -87.2193 -59.3596 -0.9412 0.3378 0 -0.3349 -0.9329 -0.1323 -0.0447 -0.1246 0.9912 60169k02.dat
0 // chain link [loose:ring]
1 71 -39.7738 -99.5596 -60.7339 0 0.323 -0.9464 0.0969 -0.9419 -0.3215 -0.9953 -0.0917 -0.0313 60169k02.dat
0 // chain link [loose:ring]
1 71 -35.6944 -111.7054 -61.7654 -0.9499 0.3127 0 -0.3118 -0.9471 -0.0764 -0.0239 -0.0726 0.9971 60169k02.dat
0 // chain link [loose:ring]
1 71 -31.7872 -123.7333 -62.5872 0 0.3047 -0.9525 0.0625 -0.9506 -0.3041 -0.998 -0.0596 -0.0191 60169k02.dat
0 // chain link [loose:ring]
1 71 -27.996 -135.7222 -63.2656 -0.9545 0.2981 0 -0.2977 -0.9532 -0.0523 -0.0156 -0.0499 0.9986 60169k02.dat
0 // chain link [loose:ring]
1 71 -24.1699 -148.1045 -63.8542 0 0.2923 -0.9563 0.0441 -0.9554 -0.292 -0.999 -0.0422 -0.0129 60169k02.dat
0 // chain link [loose:ring]
1 71 -20.3616 -160.6863 -64.3601 -0.9579 0.2872 0 -0.287 -0.9572 -0.0374 -0.0107 -0.0358 0.9993 60169k02.dat
0 // chain link [loose:ring]
1 71 -16.6201 -173.2772 -64.7905 0 0.2826 -0.9592 0.0319 -0.9587 -0.2825 -0.9995 -0.0306 -0.009 60169k02.dat
0 // chain link [loose:ring]
1 71 -13.3 -184.6288 -65.124 -0.9603 0.279 0 -0.2789 -0.9599 -0.0276 -0.0077 -0.0265 0.9996 60169k02.dat
0 // chain link [loose:ring]
1 71 -9.5167 -197.7565 -65.4544 0 0.2751 -0.9614 0.0234 -0.9612 -0.275 -0.9997 -0.0225 -0.0064 60169k02.dat
0 // chain link [loose:ring]
1 71 -6.2354 -209.3001 -65.7024 -0.9623 0.272 0 -0.2719 -0.9621 -0.0202 -0.0055 -0.0194 0.9998 60169k02.dat
0 // chain end (on the ring's bar) [loose:ring]
1 71 0 -226 -66 0.963 -0.0046 -0.2695 0.2696 0.0164 0.9628 0 -0.9999 0.0171 60169k01.dat
0 STEP
0 // #1 connector (root)
1 4 -180 -102 -14 0 0.6561 0.7547 0 0.7547 -0.6561 -1 0 0 32013.dat
0 // 4L axle (root)
1 0 -217.7355 -69.197 -14 -0.7547 0.6561 0 0.6561 0.7547 0 0 0 -1 3705.dat
0 // green 2x2 round plate (root)
1 2 -208.679 -77.0698 -14 0 0.7547 -0.6561 0 -0.6561 -0.7547 -1 0 0 4032a.dat
0 // tan 2x2 round brick (root)
1 19 -226.792 -61.3243 -14 0 0.7547 -0.6561 0 -0.6561 -0.7547 -1 0 0 3941.dat
0 // tan 2x2x2 cone (root)
1 19 -263.0181 -29.8335 -14 0 0.7547 -0.6561 0 -0.6561 -0.7547 -1 0 0 3942c.dat
0 // sand green crown (root)
1 378 -269.0557 -24.585 -14 0 0.7547 -0.6561 0 -0.6561 -0.7547 -1 0 0 39262.dat
0 // bar with ball (root)
1 72 -274.3387 -19.9926 -14 0 0.6561 0.7547 0 0.7547 -0.6561 -1 0 0 22484.dat
