0 Driving Base 1
0 Name: Driving_Base_1.ldr
0 Author: FLL Sim (scripted from the official building instructions)
0 !LICENSE Model data for simulation use

0 // 11x7 frame
1 26 0 -30 40 0 0 1 0 1 0 -1 0 0 39794.dat
0 STEP
0 // pin (frame -> motor)
1 0 100 -40 -20 0 1 0 -1 0 0 0 0 1 61332.dat
0 // pin (frame -> motor)
1 0 60 -40 -20 0 1 0 -1 0 0 0 0 1 61332.dat
0 // pin (frame -> motor)
1 0 100 -40 20 0 1 0 -1 0 0 0 0 1 61332.dat
0 // pin (frame -> motor)
1 0 -100 -40 -20 0 1 0 -1 0 0 0 0 1 61332.dat
0 // pin (frame -> motor)
1 0 -60 -40 -20 0 1 0 -1 0 0 0 0 1 61332.dat
0 // pin (frame -> motor)
1 0 -100 -40 20 0 1 0 -1 0 0 0 0 1 61332.dat
0 STEP
0 // drive motor (left, port C)
0 !FLLSIM PORT C
1 15 80 -70 0 0 -1 0 1 0 0 0 0 1 54696p01.dat
0 // drive motor (right, port D)
0 !FLLSIM PORT D
1 15 -80 -70 0 0 1 0 -1 0 0 0 0 1 54696p01.dat
0 // pin (output disc -> wheel)
1 0 130 -90 0 1 0 0 0 1 0 0 0 1 61332.dat
0 // pin (output disc -> wheel)
1 0 130 -50 0 1 0 0 0 1 0 0 0 1 61332.dat
0 // pin (output disc -> wheel)
1 0 -130 -90 0 1 0 0 0 1 0 0 0 1 61332.dat
0 // pin (output disc -> wheel)
1 0 -130 -50 0 1 0 0 0 1 0 0 0 1 61332.dat
0 STEP
0 // 3L axle (drive)
1 14 150 -70 0 1 0 0 0 1 0 0 0 1 4519.dat
0 // 3L axle (drive)
1 14 -150 -70 0 1 0 0 0 1 0 0 0 1 4519.dat
0 STEP
0 // pin (motor top)
1 0 60 -100 -20 0 1 0 -1 0 0 0 0 1 61332.dat
0 // pin (motor top)
1 0 100 -100 -20 0 1 0 -1 0 0 0 0 1 61332.dat
0 // pin (motor top)
1 0 60 -100 140 0 1 0 -1 0 0 0 0 1 61332.dat
0 // pin (motor top)
1 0 100 -100 140 0 1 0 -1 0 0 0 0 1 61332.dat
0 // pin (motor top)
1 0 -60 -100 -20 0 1 0 -1 0 0 0 0 1 61332.dat
0 // pin (motor top)
1 0 -100 -100 -20 0 1 0 -1 0 0 0 0 1 61332.dat
0 // pin (motor top)
1 0 -60 -100 140 0 1 0 -1 0 0 0 0 1 61332.dat
0 // pin (motor top)
1 0 -100 -100 140 0 1 0 -1 0 0 0 0 1 61332.dat
0 STEP
0 // SPIKE Prime hub
1 15 0 -100 40 -1 0 0 0 1 0 0 0 -1 45601c01.dat
0 STEP
0 // cross block with 4 pins (front)
1 71 80 -90 -60 0 1 0 0 0 1 1 0 0 48989.dat
0 // 3L beam (front)
1 14 80 -70 -60 0 0 1 0 1 0 -1 0 0 32523.dat
0 // cross block with 4 pins (front)
1 71 -40 -90 -60 0 1 0 0 0 1 1 0 0 48989.dat
0 // 3L beam (front)
1 14 -40 -70 -60 0 0 1 0 1 0 -1 0 0 32523.dat
0 STEP
0 // pin (hub -> 3x3 block)
1 0 20 -100 140 0 1 0 -1 0 0 0 0 1 61332.dat
0 // pin (hub -> 3x3 block)
1 0 -20 -100 140 0 1 0 -1 0 0 0 0 1 61332.dat
0 STEP
0 // 3x3 connector block
1 26 0 -90 140 1 0 0 0 1 0 0 0 1 39793.dat
0 // pin (3x3 block -> caster)
1 0 0 -80 120 0 1 0 -1 0 0 0 0 1 61332.dat
0 // pin (3x3 block -> caster)
1 0 0 -80 160 0 1 0 -1 0 0 0 0 1 61332.dat
0 STEP
0 // ball caster
1 322 0 -60 140 1 0 0 0 1 0 0 0 1 39370c01.dat
0 STEP
0 // tan axle pin (caster)
1 19 20 -60 100 -1 0 0 0 0 -1 0 -1 0 43093.dat
0 // yellow cross block (cable clip) [locked]
1 14 30 -80 100 0 0 1 0 1 0 -1 0 0 6536.dat
0 STEP
0 // 15L beam
1 0 100 -110 0 1 0 0 0 1 0 0 0 1 32278.dat
0 // tan axle pin (beam)
1 19 100 -130 80 0 -1 0 -1 0 0 0 0 -1 43093.dat
0 // cross block (cable clip) [locked]
1 322 120 -120 80 0 -1 0 0 0 -1 1 0 0 6536.dat
0 // 15L beam
1 0 -100 -110 0 1 0 0 0 1 0 0 0 1 32278.dat
0 // tan axle pin (beam)
1 19 -100 -130 80 0 -1 0 -1 0 0 0 0 -1 43093.dat
0 // cross block (cable clip) [locked]
1 2 -80 -120 80 0 -1 0 0 0 -1 1 0 0 6536.dat
0 STEP
0 // wheel
1 0 148 -70 0 0 0 -1 -1 0 0 0 1 0 39367p01.dat
0 // wheel
1 0 -148 -70 0 0 0 1 1 0 0 0 1 0 39367p01.dat
0 STEP
0 // white tooth (axle end)
1 15 172 -70 0 0 1 0 0 0 1 1 0 0 48267.dat
0 // white tooth (axle end)
1 15 -172 -70 0 0 -1 0 0 0 1 -1 0 0 48267.dat
0 STEP
0 // accessory motor (port E)
0 !FLLSIM PORT E
1 15 20 -70 -100 -1 0 0 0 -1 0 0 0 1 54696p01.dat
0 // 2L axle (accessory output)
1 4 20 -100 -100 0 1 0 -1 0 0 0 0 1 32062.dat
0 // 12-tooth double bevel gear
1 0 20 -110 -100 -1 0 0 0 0 1 0 1 0 32270.dat
0 // pin (side cross block -> accessory motor)
1 0 50 -90 -80 1 0 0 0 1 0 0 0 1 61332.dat
0 // pin (side cross block -> accessory motor)
1 0 50 -50 -80 1 0 0 0 1 0 0 0 1 61332.dat
0 // cross block with 4 pins (accessory)
1 71 60 -70 -80 1 0 0 0 1 0 0 0 1 48989.dat
0 // 3L beam (accessory)
1 14 60 -70 -100 -1 0 0 0 0 1 0 1 0 32523.dat
0 // pin (side cross block -> accessory motor)
1 0 -10 -90 -80 1 0 0 0 1 0 0 0 1 61332.dat
0 // pin (side cross block -> accessory motor)
1 0 -10 -50 -80 1 0 0 0 1 0 0 0 1 61332.dat
0 // cross block with 4 pins (accessory)
1 71 -20 -70 -80 1 0 0 0 1 0 0 0 1 48989.dat
0 // 3L beam (accessory)
1 14 -20 -70 -100 -1 0 0 0 0 1 0 1 0 32523.dat
0 STEP
0 // accessory
1 16 20 -110 -100 1 0 0 0 1 0 0 0 1 fllsim-mount.dat
0 STEP
