0 spike-drivebase
0 Name: spike-drivebase.ldr
0 Author: FLL Sim

1 14 0 0 0 1 0 0 0 1 0 0 0 1 45601c01.dat
1 0 81 -10 80 1 0 0 0 1 0 0 0 -1 61332.dat
1 0 81 -10 -80 1 0 0 0 1 0 0 0 1 61332.dat
0 !FLLSIM PORT A
1 71 122 -10 60 0 -1 0 -1 0 0 0 0 -1 54696p01.dat
1 71 192 -10 60 1 0 0 0 -1 0 0 0 -1 4519.dat
1 0 210 -10 60 0 0 -1 0 1 0 1 0 0 39367p01.dat
1 0 -81 -10 80 -1 0 0 0 1 0 0 0 -1 61332.dat
1 0 -81 -10 -80 -1 0 0 0 1 0 0 0 1 61332.dat
0 !FLLSIM PORT B
1 71 -122 -10 60 0 1 0 -1 0 0 0 0 -1 54696p01.dat
1 71 -192 -10 60 -1 0 0 0 -1 0 0 0 -1 4519.dat
1 0 -210 -10 60 0 0 1 0 1 0 1 0 0 39367p01.dat
1 0 20 11 -100 0 -1 0 -1 0 0 0 0 -1 66906.dat
1 0 20 11 100 0 -1 0 -1 0 0 0 0 1 66906.dat
