0 DB2 distance sensor
0 Name: DB2_distance_sensor.ldr
0 Author: FLL Sim (scripted from the official building instructions)
0 !LICENSE Model data for simulation use

0 // 7L beam
1 322 0 -190 -100 0 0 -1 0 1 0 1 0 0 32524.dat
0 // pin
1 0 -60 -180 -100 0 0 -1 1 0 0 0 -1 0 2780.dat
0 // pin
1 0 60 -180 -100 0 0 -1 1 0 0 0 -1 0 2780.dat
0 // pin
1 0 -20 -200 -100 0 0 -1 1 0 0 0 -1 0 2780.dat
0 // pin
1 0 20 -200 -100 0 0 -1 1 0 0 0 -1 0 2780.dat
0 STEP
0 // distance sensor
0 !FLLSIM PORT F
1 15 0 -270 -100 0 1 0 -1 0 0 0 0 1 37316.dat
0 STEP
0 // axle pin (cable clip)
1 19 0 -210 -89 0 0 1 0 -1 0 1 0 0 3749.dat
0 // cable clip
1 4 0 -210 -79 -1 0 0 0 1 0 0 0 -1 49283.dat
0 STEP
0 // db2-distance
1 16 60 -180 -100 1 0 0 0 1 0 0 0 1 fllsim-mount.dat
0 STEP
